<?xml version="1.0" standalone="no"?>
<!DOCTYPE svg PUBLIC "-//W3C//DTD SVG 1.1//EN" "http://www.w3.org/Graphics/SVG/1.1/DTD/svg11.dtd" >
<svg xmlns="http://www.w3.org/2000/svg" xmlns:xlink="http://www.w3.org/1999/xlink" version="1.1">
<metadata>
Created by FontForge 20150318 at Fri Aug 21 17:59:14 2015
 By uniteet7
Copyright (c) 2004-9 by Kris Sowersby. All rights reserved.
</metadata>
<defs>
<font id="NationalRegularItalic" horiz-adv-x="622" >
  <font-face 
    font-family="NationalRegularItalic"
    font-weight="510"
    font-style="italic"
    font-stretch="normal"
    units-per-em="1000"
    panose-1="2 0 5 3 0 0 0 2 0 4"
    ascent="800"
    descent="-200"
    x-height="462"
    cap-height="589"
    bbox="-168 -257 1188 944"
    underline-thickness="57"
    underline-position="28"
    unicode-range="U+0020-F778"
  />
<missing-glyph horiz-adv-x="755" 
d="M83 0v589h589v-589h-589zM377 264l-221 -221h443zM156 546l221 -222l222 222h-443zM407 294l222 -221v443zM347 294l-221 222v-443z" />
    <glyph glyph-name="f_b" unicode="fb" horiz-adv-x="813" 
d="M454 261l-14 -84q-8 -47 16.5 -86t75.5 -39q67 0 107 65t40 160q0 58 -24 91t-68 33q-48 0 -85 -38.5t-48 -101.5zM318 0l101 582q-38 25 -86 25q-86 0 -103 -95l-9 -50h94l-13 -72h-94l-85 -487q-12 -66 -42 -90t-84 -24t-85 25l20 69q27 -23 54 -23q20 0 31 10t16 36
l86 484h-71l14 72h69l9 52q31 161 186 161q68 0 108 -23l92 16l-52 -295q45 100 149 100q72 0 112 -49t40 -142q0 -127 -63 -210.5t-168 -83.5q-50 0 -84.5 24t-42.5 62l-32 -74h-67z" />
    <glyph glyph-name="f_f_b" unicode="ffb" horiz-adv-x="1080" 
d="M722 261l-15 -84q-8 -47 17 -86t76 -39q67 0 107 65t40 160q0 58 -24 91t-68 33q-48 0 -85 -38.5t-48 -101.5zM586 0l101 582q-38 25 -86 25q-86 0 -103 -95l-9 -50h92l-13 -72h-92l-84 -474q-11 -65 -41 -89.5t-84 -24.5t-85 25l19 69q27 -23 54 -23q21 0 32 10t15 36
l85 471h-179l-85 -487q-12 -66 -42 -90t-84 -24t-85 25l20 69q27 -23 54 -23q20 0 31 10t16 36l86 484h-71l14 72h69l11 63q27 143 148 143q52 0 95 -28l-34 -75q-29 27 -57 27q-27 0 -41 -16.5t-21 -52.5l-11 -61h178l9 52q31 161 186 161q68 0 108 -23l92 16l-52 -295
q45 100 148 100q73 0 112.5 -49t39.5 -142q0 -127 -62.5 -210.5t-167.5 -83.5q-50 0 -85 24t-42 62l-33 -74h-66z" />
    <glyph glyph-name="f_f_h" unicode="ffh" horiz-adv-x="1066" 
d="M585 0l102 582q-38 25 -86 25q-86 0 -103 -95l-9 -50h92l-13 -72h-92l-84 -474q-11 -65 -41 -89.5t-84 -24.5t-85 25l19 69q27 -23 54 -23q21 0 32 10t15 36l85 471h-179l-85 -487q-12 -66 -42 -90t-84 -24t-85 25l20 69q27 -23 54 -23q20 0 31 10t16 36l86 484h-71
l14 72h69l11 63q27 143 148 143q52 0 95 -28l-34 -75q-29 27 -57 27q-27 0 -41 -16.5t-21 -52.5l-11 -61h178l9 52q31 161 186 161q68 0 108 -23l92 16l-54 -300q49 105 148 105q55 0 87 -29t32 -82q0 -17 -4 -44l-36 -207q-8 -45 27 -45q9 0 29 5l-13 -67q-24 -9 -54 -9
q-100 0 -81 107l37 208q15 87 -60 87q-43 0 -81 -35t-51 -111l-44 -251h-91z" />
    <glyph glyph-name="f_f_j" unicode="ffj" horiz-adv-x="780" 
d="M655 390h-179l-84 -474q-11 -65 -41 -89.5t-84 -24.5t-85 25l19 69q27 -23 54 -23q21 0 32 10t15 36l85 471h-179l-85 -487q-12 -66 -42 -90t-84 -24t-85 25l20 69q27 -23 54 -23q20 0 31 10t16 36l86 484h-71l14 72h69l11 63q27 143 148 143q52 0 95 -28l-34 -75
q-29 27 -57 27q-27 0 -41 -16.5t-21 -52.5l-11 -61h178l9 51q31 162 180 162q66 0 115 -30l-33 -76q-41 31 -81 31q-37 0 -59.5 -21t-32.5 -72l-8 -45h269l-96 -546q-12 -65 -42.5 -89.5t-84.5 -24.5q-53 0 -86 25l20 69q27 -23 54 -23q20 0 31.5 10t15.5 36z" />
    <glyph glyph-name="f_f_k" unicode="ffk" horiz-adv-x="1006" 
d="M585 0l102 582q-38 25 -86 25q-86 0 -103 -95l-9 -50h92l-13 -72h-92l-84 -474q-11 -65 -41 -89.5t-84 -24.5t-85 25l19 69q27 -23 54 -23q21 0 32 10t15 36l85 471h-179l-85 -487q-12 -66 -42 -90t-84 -24t-85 25l20 69q27 -23 54 -23q20 0 31 10t16 36l86 484h-71
l14 72h69l11 63q27 143 148 143q52 0 95 -28l-34 -75q-29 27 -57 27q-27 0 -41 -16.5t-21 -52.5l-11 -61h178l9 52q31 161 186 161q68 0 108 -23l92 16l-67 -380h22l164 174h111l-203 -205l76 -156q14 -27 32.5 -32.5t50.5 4.5l-14 -69q-27 -9 -57 -9q-57 0 -82 54l-84 172
h-28l-39 -221h-91z" />
    <glyph glyph-name="f_h" unicode="fh" horiz-adv-x="798" 
d="M317 0l102 582q-38 25 -86 25q-86 0 -103 -95l-9 -50h94l-13 -72h-94l-85 -487q-12 -66 -42 -90t-84 -24t-85 25l20 69q27 -23 54 -23q20 0 31 10t16 36l86 484h-71l14 72h69l9 52q31 161 186 161q68 0 108 -23l92 16l-54 -300q49 105 149 105q54 0 86 -29t32 -82
q0 -24 -4 -44l-36 -207q-8 -45 27 -45q9 0 29 5l-13 -67q-24 -9 -54 -9q-100 0 -81 107l37 208q17 87 -60 87q-43 0 -81 -35t-51 -111l-44 -251h-91z" />
    <glyph glyph-name="f_j" unicode="fj" horiz-adv-x="512" 
d="M490 462l-96 -546q-12 -65 -42.5 -89.5t-84.5 -24.5t-85 25l19 69q27 -23 54 -23q21 0 32 10t15 36l85 471h-179l-85 -487q-12 -66 -42 -90t-84 -24t-85 25l20 69q27 -23 54 -23q20 0 31 10t16 36l86 484h-71l14 72h69l10 51q31 162 180 162q65 0 115 -30l-34 -76
q-41 31 -81 31q-37 0 -59.5 -21t-31.5 -72l-9 -45h269z" />
    <glyph glyph-name="f_k" unicode="fk" horiz-adv-x="738" 
d="M317 0l102 582q-38 25 -86 25q-86 0 -103 -95l-9 -50h92l-13 -72h-92l-85 -487q-12 -66 -42 -90t-84 -24t-85 25l20 69q27 -23 54 -23q20 0 31 10t16 36l86 484h-71l14 72h69l9 52q31 161 186 161q68 0 108 -23l92 16l-67 -380h22l164 174h111l-202 -205l75 -156
q14 -27 32.5 -32.5t50.5 4.5l-14 -69q-27 -9 -57 -9q-57 0 -82 54l-84 172h-28l-39 -221h-91z" />
    <glyph glyph-name="ff" unicode="ff" horiz-adv-x="568" 
d="M476 390l-84 -474q-11 -65 -41 -89.5t-84 -24.5t-85 25l19 69q27 -23 54 -23q21 0 32 10t15 36l85 471h-179l-85 -487q-12 -66 -42 -90t-84 -24t-85 25l20 69q27 -23 54 -23q20 0 31 10t16 36l86 484h-71l14 72h69l11 63q27 143 148 143q52 0 95 -28l-34 -75
q-29 27 -57 27q-27 0 -41 -16.5t-21 -52.5l-11 -61h178l11 59q27 154 167 154q59 0 109 -28l-33 -75q-38 27 -73 27t-54 -18t-27 -60l-10 -59h116l-12 -72h-117z" />
    <glyph glyph-name="ffi" unicode="ffi" horiz-adv-x="806" 
d="M758 462l-62 -351q-8 -45 26 -45q9 0 29 5l-12 -67q-26 -9 -55 -9q-99 0 -80 107l50 288h-178l-84 -474q-11 -65 -41 -89.5t-84 -24.5t-85 25l19 69q27 -23 54 -23q21 0 32 10t15 36l85 471h-179l-85 -487q-12 -66 -42 -90t-84 -24t-85 25l20 69q27 -23 54 -23
q20 0 31 10t16 36l86 484h-71l14 72h69l11 63q27 143 148 143q52 0 95 -28l-34 -75q-29 27 -57 27q-27 0 -41 -16.5t-21 -52.5l-11 -61h178l9 51q31 162 180 162q66 0 115 -30l-33 -76q-41 31 -81 31q-37 0 -59.5 -21t-32.5 -72l-8 -45h269z" />
    <glyph glyph-name="ffl" unicode="ffl" horiz-adv-x="804" 
d="M476 390l-84 -474q-11 -65 -41 -89.5t-84 -24.5t-85 25l19 69q27 -23 54 -23q21 0 32 10t15 36l85 471h-179l-85 -487q-12 -66 -42 -90t-84 -24t-85 25l20 69q27 -23 54 -23q20 0 31 10t16 36l86 484h-71l14 72h69l11 63q27 143 148 143q52 0 95 -28l-34 -75
q-29 27 -57 27q-27 0 -41 -16.5t-21 -52.5l-11 -61h178l9 52q31 161 186 161q68 0 108 -23l92 16l-98 -557q-8 -45 26 -45q9 0 29 5l-12 -67q-26 -9 -55 -9q-99 0 -80 107l83 480q-38 25 -86 25q-86 0 -103 -95l-9 -50h93l-12 -72h-94z" />
    <glyph glyph-name="fi" unicode="fi" horiz-adv-x="539" 
d="M490 462l-62 -351q-8 -45 26 -45q10 0 30 5l-13 -67q-24 -9 -54 -9q-100 0 -81 107l50 288h-178l-85 -487q-12 -66 -42 -90t-84 -24t-85 25l20 69q27 -23 54 -23q20 0 31 10t16 36l86 484h-71l14 72h69l10 51q31 162 180 162q65 0 115 -30l-34 -76q-41 31 -81 31
q-37 0 -59.5 -21t-31.5 -72l-9 -45h269z" />
    <glyph glyph-name="fl" unicode="fl" horiz-adv-x="536" 
d="M208 390l-85 -487q-12 -66 -42 -90t-84 -24t-85 25l20 69q27 -23 54 -23q20 0 31 10t16 36l86 484h-71l14 72h69l9 52q31 161 186 161q68 0 108 -23l92 16l-98 -557q-8 -45 26 -45q10 0 30 5l-13 -67q-24 -9 -54 -9q-100 0 -81 107l83 480q-38 25 -86 25q-86 0 -103 -95
l-9 -50h94l-13 -72h-94z" />
    <glyph glyph-name=".notdef" horiz-adv-x="755" 
d="M83 0v589h589v-589h-589zM377 264l-221 -221h443zM156 546l221 -222l222 222h-443zM407 294l222 -221v443zM347 294l-221 222v-443z" />
    <glyph glyph-name=".null" horiz-adv-x="0" 
 />
    <glyph glyph-name="nonmarkingreturn" horiz-adv-x="333" 
 />
    <glyph glyph-name="space" unicode=" " horiz-adv-x="224" 
 />
    <glyph glyph-name="exclam" unicode="!" horiz-adv-x="226" 
d="M121 589h117l-103 -415h-61zM23 56q0 27 18.5 44.5t45.5 17.5t45.5 -17.5t18.5 -44.5q0 -26 -18.5 -44t-45.5 -18t-45.5 18t-18.5 44z" />
    <glyph glyph-name="quotedbl" unicode="&#x22;" horiz-adv-x="305" 
d="M76 412l45 256h98l-87 -256h-56zM224 412l45 256h98l-87 -256h-56z" />
    <glyph glyph-name="numbersign" unicode="#" horiz-adv-x="642" 
d="M555 144h-158l-68 -144h-79l68 144h-97l-68 -144h-79l68 144h-104l12 67h124l41 87h-129l11 67h150l55 116h81l-56 -116h96l55 116h80l-56 -116h112l-12 -67h-132l-41 -87h138zM295 298l-42 -87h97l41 87h-96z" />
    <glyph glyph-name="dollar" unicode="$" horiz-adv-x="453" 
d="M14 122l77 20q0 -36 23 -60t58 -31l29 161q-18 6 -34 14q-89 40 -89 120q0 71 48.5 107.5t123.5 39.5l15 81h50l-15 -83q65 -8 99.5 -40.5t34.5 -87.5l-80 -16q1 29 -16.5 50.5t-49.5 28.5l-27 -150l5 -1q67 -25 94 -57t27 -83q0 -69 -48 -106t-128 -40l-16 -95h-50
l17 96q-68 7 -107.5 41.5t-40.5 90.5zM303 124q0 25 -12 40.5t-44 30.5l-25 -145q81 7 81 74zM161 360q0 -23 12 -37.5t42 -27.5l24 133q-78 -8 -78 -68z" />
    <glyph glyph-name="percent" unicode="%" horiz-adv-x="861" 
d="M163 229q-60 0 -91 39t-31 107q0 86 44 154t122 68q58 0 90 -40.5t32 -109.5q0 -87 -43.5 -152.5t-122.5 -65.5zM200 534q-31 0 -52 -30t-28 -63.5t-7 -63.5q0 -41 15 -65.5t43 -24.5q31 0 52 31t28 65t7 64q0 87 -58 87zM194 0l410 590h65l-409 -590h-66zM654 -7
q-60 0 -91 39t-31 107q0 86 44 154t122 68q58 0 90 -40.5t32 -109.5q0 -87 -43.5 -152.5t-122.5 -65.5zM691 298q-31 0 -52 -30t-28 -63.5t-7 -63.5q0 -41 15 -65.5t43 -24.5q31 0 52 31t28 65t7 64q0 87 -58 87z" />
    <glyph glyph-name="ampersand" unicode="&#x26;" horiz-adv-x="560" 
d="M519 46l-69 -55l-59 71q-87 -74 -204 -74q-81 0 -125.5 36t-44.5 106q0 65 43.5 108.5t128.5 75.5l-23 29q-46 56 -46 114q0 67 52 105.5t124 38.5t110 -34.5t38 -93.5q0 -106 -143 -164l103 -127q27 39 43 111l79 -22q-27 -89 -76 -145zM105 137q0 -36 24.5 -58.5
t66.5 -22.5q87 0 154 59l-126 155q-34 -19 -48 -28t-34.5 -26t-28.5 -36t-8 -43zM288 538q-35 0 -58.5 -20.5t-24.5 -54.5q0 -31 26 -64l33 -45q96 46 96 115t-72 69z" />
    <glyph glyph-name="quotesingle" unicode="'" horiz-adv-x="157" 
d="M76 412l45 256h98l-87 -256h-56z" />
    <glyph glyph-name="parenleft" unicode="(" horiz-adv-x="339" 
d="M157 145q0 -93 25 -175t82 -172h-93q-103 158 -103 344q0 155 68 295t179 231h104q-122 -110 -192 -234t-70 -289z" />
    <glyph glyph-name="parenright" unicode=")" horiz-adv-x="339" 
d="M191 321q0 93 -25.5 175t-82.5 172h94q102 -159 102 -344q0 -155 -68 -295t-179 -231h-104q58 52 101 102.5t82 115t59.5 142t20.5 163.5z" />
    <glyph glyph-name="asterisk" unicode="*" horiz-adv-x="366" 
d="M285 578l-39 -95l99 20l5 -72l-102 9l49 -92l-70 -27l-23 100l-70 -75l-45 59l87 54l-93 43l40 60l77 -66l13 101z" />
    <glyph glyph-name="plus" unicode="+" horiz-adv-x="497" 
d="M49 275h174l30 170h57l-30 -170h177l-9 -54h-177l-33 -184h-57l32 184h-173z" />
    <glyph glyph-name="comma" unicode="," horiz-adv-x="286" 
d="M191 33q0 -70 -48.5 -106.5t-123.5 -40.5v43q43 5 74.5 24.5t31.5 50.5q-31 -6 -51.5 10t-20.5 45t18 45.5t48 16.5q32 0 52 -23.5t20 -64.5z" />
    <glyph glyph-name="hyphen" unicode="-" horiz-adv-x="379" 
d="M68 219l13 76h230l-13 -76h-230z" />
    <glyph glyph-name="period" unicode="." horiz-adv-x="286" 
d="M46 62q0 29 19.5 48.5t48.5 19.5t48.5 -19.5t19.5 -48.5q0 -28 -20 -48t-48 -20t-48 20t-20 48z" />
    <glyph glyph-name="slash" unicode="/" horiz-adv-x="372" 
d="M-85 -203l424 872h84l-426 -872h-82z" />
    <glyph glyph-name="zero" unicode="0" horiz-adv-x="580" 
d="M265 -12q-108 0 -162.5 64.5t-54.5 159.5q0 128 77 204.5t189 76.5q110 0 164 -64t54 -162q0 -126 -77 -202.5t-190 -76.5zM138 215q0 -68 34.5 -109.5t97.5 -41.5q74 0 122.5 57t48.5 143q0 68 -35 109.5t-98 41.5q-74 0 -122 -57t-48 -143z" />
    <glyph glyph-name="one" unicode="1" horiz-adv-x="358" 
d="M208 0h-93l70 395l-142 -25l14 75l237 44z" />
    <glyph glyph-name="two" unicode="2" horiz-adv-x="456" 
d="M383 76l-13 -76h-362l12 70q149 70 221 132.5t72 136.5q0 36 -20 56t-57 20q-39 0 -64.5 -23.5t-26.5 -74.5l-83 21q9 83 62.5 119t121.5 36q77 0 119.5 -38.5t42.5 -108.5q0 -51 -27 -97.5t-70.5 -79t-91 -55t-96.5 -34.5v-4h260z" />
    <glyph glyph-name="three" unicode="3" horiz-adv-x="452" 
d="M214 188v-4q78 -6 116 -43.5t38 -99.5q0 -87 -60.5 -133t-152.5 -46q-87 0 -133 38t-48 102l87 23q0 -46 27 -69.5t76 -23.5t80 27t31 77q0 49 -32.5 78.5t-118.5 37.5l11 69q100 10 142.5 40t42.5 85q0 36 -22 55t-60 19q-81 0 -97 -90l-84 20q30 143 191 143
q75 0 120.5 -34.5t45.5 -101.5q0 -80 -54 -123.5t-146 -45.5z" />
    <glyph glyph-name="four" unicode="4" horiz-adv-x="540" 
d="M261 -131l32 178h-285l11 60l350 374h91l-63 -363h97l-12 -71h-97l-32 -178h-92zM195 118h109l25 144l25 114h-4q-25 -35 -76 -93l-91 -102q-17 -20 -33.5 -35.5t-24.5 -21.5l-8 -6v-4q19 4 78 4z" />
    <glyph glyph-name="five" unicode="5" horiz-adv-x="458" 
d="M69 153l70 328h298l-13 -78h-220l-43 -191q31 26 81 26q69 0 108 -45.5t38 -113.5q0 -104 -65 -160.5t-164 -56.5q-82 0 -127.5 38t-45.5 102l85 23q0 -92 100 -92q52 0 89 34t37 100q0 49 -25 78t-70 29q-38 0 -65 -21h-68z" />
    <glyph glyph-name="six" unicode="6" horiz-adv-x="517" 
d="M510 487l-76 -39q-19 81 -96 81q-78 0 -134 -71.5t-72 -193.5h4q20 55 64.5 82.5t99.5 27.5q77 0 122 -44.5t45 -119.5q0 -100 -60 -161t-162 -61q-96 0 -146.5 58t-50.5 173q0 69 19.5 136t55 122.5t92.5 89.5t127 34q138 0 168 -114zM275 302q-56 0 -94 -37t-38 -99
q0 -51 27.5 -79t75.5 -28q57 0 94.5 38.5t37.5 103.5q0 47 -27.5 74t-75.5 27z" />
    <glyph glyph-name="seven" unicode="7" horiz-adv-x="486" 
d="M297 402h-160l-14 -75h-82l27 154h406l-11 -62l-332 -550h-97l280 464q15 25 28 42.5t18 22.5l6 5v4q-19 -5 -69 -5z" />
    <glyph glyph-name="eight" unicode="8" horiz-adv-x="497" 
d="M219 -12q-87 0 -138 40t-51 105t38 109t101 57l1 5q-40 10 -62 41t-22 72q0 87 63 135.5t155 48.5q77 0 125 -40t48 -106q0 -59 -37 -101t-93 -54v-5q44 -14 70 -48t26 -81q0 -90 -65 -134t-159 -44zM294 532q-52 0 -83.5 -32t-31.5 -80q0 -42 24 -63t63 -21
q53 0 84.5 32t31.5 82q0 37 -22.5 59.5t-65.5 22.5zM253 262q-55 0 -91.5 -32t-36.5 -84q0 -42 27 -66t72 -24q57 0 92.5 31t35.5 85q0 42 -28 66t-71 24z" />
    <glyph glyph-name="nine" unicode="9" horiz-adv-x="516" 
d="M3 -24l68 43q32 -85 115 -85q165 0 198 281h-4q-19 -56 -62 -83.5t-96 -27.5q-79 0 -125.5 46.5t-46.5 123.5q0 97 60.5 158t161.5 61q95 0 145.5 -60t50.5 -174q0 -110 -31.5 -198.5t-98 -143.5t-158.5 -55q-138 0 -177 114zM241 177q56 0 93.5 37t37.5 100
q0 51 -28 79.5t-79 28.5q-54 0 -90.5 -39t-36.5 -103q0 -46 27.5 -74.5t75.5 -28.5z" />
    <glyph glyph-name="colon" unicode=":" horiz-adv-x="286" 
d="M46 62q0 29 19.5 48.5t48.5 19.5t48.5 -19.5t19.5 -48.5q0 -28 -20 -48t-48 -20t-48 20t-20 48zM108 414q0 28 20 48t48 20q29 0 48.5 -19.5t19.5 -48.5t-19.5 -48.5t-48.5 -19.5q-28 0 -48 20t-20 48z" />
    <glyph glyph-name="semicolon" unicode=";" horiz-adv-x="286" 
d="M191 33q0 -70 -48.5 -106.5t-123.5 -40.5v43q43 5 74.5 24.5t31.5 50.5q-31 -6 -51.5 10t-20.5 45t18 45.5t48 16.5q32 0 52 -23.5t20 -64.5zM114 414q0 29 19.5 48.5t47.5 19.5q29 0 49 -19.5t20 -48.5t-20 -48.5t-49 -19.5q-28 0 -47.5 19.5t-19.5 48.5z" />
    <glyph glyph-name="less" unicode="&#x3c;" horiz-adv-x="413" 
d="M383 410l-233 -170l167 -163l-45 -44l-214 214l290 212z" />
    <glyph glyph-name="equal" unicode="=" horiz-adv-x="520" 
d="M448 154h-408l9 53h408zM471 285h-408l9 53h408z" />
    <glyph glyph-name="greater" unicode="&#x3e;" horiz-adv-x="413" 
d="M32 82l234 169l-168 164l45 44l214 -214l-290 -212z" />
    <glyph glyph-name="question" unicode="?" horiz-adv-x="421" 
d="M139 430l-76 30q43 141 193 141q84 0 129 -42.5t45 -119.5q0 -92 -62 -142t-141 -50l-15 -82h-82l25 135h27q69 0 111.5 31.5t42.5 98.5q0 45 -23.5 69.5t-68.5 24.5q-81 0 -105 -94zM93 56q0 27 18 44.5t45 17.5t45.5 -17.5t18.5 -44.5q0 -26 -18.5 -44t-45.5 -18
t-45 18t-18 44z" />
    <glyph glyph-name="at" unicode="@" horiz-adv-x="879" 
d="M514 181l7 42q9 51 -14 83.5t-61 32.5q-52 0 -85 -48t-33 -129q0 -103 71 -103q41 0 73.5 31t41.5 91zM612 -12q-104 0 -107 92q-30 -92 -130 -92q-64 0 -100.5 45t-36.5 127q0 111 55.5 179t135.5 68q44 0 75 -21t37 -64l34 79h67l-56 -287q-10 -67 47 -67t94 59t37 151
q0 137 -89.5 209t-221.5 72q-139 0 -237.5 -88.5t-98.5 -250.5q0 -168 101.5 -254t260.5 -86q99 0 184 30l15 -59q-95 -31 -200 -31q-89 0 -165 23t-137 69t-96 125t-35 183q0 176 112.5 286.5t298.5 110.5q181 0 279.5 -94.5t98.5 -233.5q0 -126 -57 -203t-165 -77z" />
    <glyph glyph-name="A" unicode="A" horiz-adv-x="591" 
d="M432 0l-28 161h-241l-84 -161h-100l318 589h121l110 -589h-96zM272 370l-70 -133h188q-14 69 -24.5 141t-15 110t-3.5 38h-4q-22 -64 -71 -156z" />
    <glyph glyph-name="B" unicode="B" horiz-adv-x="518" 
d="M356 301v-4q112 -11 112 -113q0 -93 -61.5 -138.5t-165.5 -45.5h-203l103 589h187q162 0 162 -132q0 -68 -38.5 -109t-95.5 -47zM190 331h87q117 0 117 107q0 39 -22 56.5t-68 17.5h-82zM178 258l-32 -181h105q125 0 125 104q0 77 -94 77h-104z" />
    <glyph glyph-name="C" unicode="C" horiz-adv-x="560" 
d="M439 156l75 -41q-70 -127 -230 -127q-108 0 -169 65.5t-61 174.5q0 171 87 272t215 101q168 0 200 -147l-94 -36q-8 51 -38 77.5t-76 26.5q-91 0 -144.5 -84t-53.5 -204q0 -78 37 -123t106 -45q49 0 83 19t63 71z" />
    <glyph glyph-name="D" unicode="D" horiz-adv-x="593" 
d="M146 77h86q100 0 163.5 69.5t63.5 209.5q0 156 -164 156h-73zM232 0h-194l103 589h169q124 0 186 -58t62 -167q0 -77 -18.5 -139.5t-49.5 -103.5t-73.5 -69t-88.5 -40t-96 -12z" />
    <glyph glyph-name="E" unicode="E" horiz-adv-x="490" 
d="M414 80l-13 -80h-363l103 589h363l-14 -80h-269l-30 -174h237l-14 -80h-237l-31 -175h268z" />
    <glyph glyph-name="F" unicode="F" horiz-adv-x="461" 
d="M132 0h-94l103 589h347l-15 -80h-252l-31 -180h221l-14 -80h-221z" />
    <glyph glyph-name="G" unicode="G" horiz-adv-x="603" 
d="M322 304h234l-53 -304h-67l-4 74q-40 -86 -151 -86q-106 0 -166.5 65.5t-60.5 174.5q0 171 87.5 272t215.5 101q166 0 200 -147l-94 -36q-8 51 -38.5 77.5t-75.5 26.5q-91 0 -145 -84t-54 -203q0 -79 37 -124.5t109 -45.5q127 0 149 126l6 33h-143z" />
    <glyph glyph-name="H" unicode="H" 
d="M132 0h-94l103 589h94l-43 -250h278l44 250h94l-103 -589h-94l45 259h-279z" />
    <glyph glyph-name="I" unicode="I" horiz-adv-x="249" 
d="M141 589h94l-103 -589h-94z" />
    <glyph glyph-name="J" unicode="J" horiz-adv-x="430" 
d="M327 589h94l-76 -431q-16 -92 -62 -131t-134 -39q-68 0 -110 32.5t-56 88.5l76 50q21 -96 96 -96q48 0 68 24.5t30 85.5z" />
    <glyph glyph-name="K" unicode="K" horiz-adv-x="525" 
d="M476 0h-106l-140 259h-53l-45 -259h-94l103 589h94l-43 -251h43l216 251h112l-254 -287z" />
    <glyph glyph-name="L" unicode="L" horiz-adv-x="461" 
d="M141 589h94l-89 -509h261l-13 -80h-356z" />
    <glyph glyph-name="M" unicode="M" horiz-adv-x="700" 
d="M369 144h-61l-72 198q-10 28 -16.5 55t-7.5 40l-2 13h-4q-2 -37 -13 -107l-61 -343h-94l103 589h105l87 -261q8 -24 13 -45.5t6 -30.5l1 -10h4q9 32 45 83l179 264h105l-103 -589h-95l61 343q5 31 10.5 58t8.5 38l4 11h-4q-17 -40 -61 -104z" />
    <glyph glyph-name="N" unicode="N" 
d="M235 589l154 -331q13 -29 24.5 -60t16.5 -48l5 -16h4q7 68 20 142l55 313h94l-103 -589h-91l-158 328q-13 28 -25 59.5t-17 48.5l-6 17h-4q-4 -65 -17 -141l-55 -312h-94l103 589h94z" />
    <glyph glyph-name="O" unicode="O" 
d="M284 -12q-108 0 -169 65.5t-61 174.5q0 171 87 272t215 101q109 0 170 -66t61 -175q0 -171 -87.5 -271.5t-215.5 -100.5zM348 521q-91 0 -144.5 -83.5t-53.5 -202.5q0 -79 37 -124t106 -45q90 0 143.5 84t53.5 203q0 75 -35.5 121.5t-106.5 46.5z" />
    <glyph glyph-name="P" unicode="P" horiz-adv-x="493" 
d="M222 512l-39 -220h79q66 0 101.5 35t35.5 102q0 43 -23.5 63t-75.5 20h-78zM132 0h-94l103 589h173q95 0 138 -37.5t43 -114.5q0 -106 -65 -163.5t-168 -57.5h-92z" />
    <glyph glyph-name="Q" unicode="Q" horiz-adv-x="627" 
d="M592 360q0 -165 -81 -264t-203 -106q43 -66 169 -56l-29 -83q-98 -2 -159.5 36t-74.5 111q-74 21 -114.5 81.5t-40.5 148.5q0 171 87 272t215 101q109 0 170 -66t61 -175zM353 521q-91 0 -144.5 -83.5t-53.5 -202.5q0 -79 37 -124t106 -45q90 0 143.5 84t53.5 203
q0 75 -35.5 121.5t-106.5 46.5z" />
    <glyph glyph-name="R" unicode="R" horiz-adv-x="547" 
d="M489 0h-101q-15 17 -22 55l-17 102q-8 49 -29 65.5t-69 16.5h-77l-42 -239h-94l103 589h202q93 0 133 -35.5t40 -107.5q0 -80 -49 -124t-112 -47v-4q41 -6 60.5 -26.5t27.5 -66.5l21 -116q6 -36 25 -62zM222 512l-34 -196h106q125 0 125 116q0 41 -21.5 60.5t-70.5 19.5
h-105z" />
    <glyph glyph-name="S" unicode="S" horiz-adv-x="489" 
d="M18 143l85 21q-1 -53 28.5 -79.5t83.5 -26.5t84 24t30 72q0 41 -22 64.5t-80 45.5q-69 24 -103.5 59.5t-34.5 102.5q0 62 33.5 103.5t76.5 56.5t92 15q90 0 136.5 -37t47.5 -120l-90 -15q1 48 -25 73.5t-76 25.5q-48 0 -77.5 -24t-29.5 -66q0 -39 22 -56.5t83 -41.5
q73 -29 106.5 -67t33.5 -106q0 -91 -61 -135t-156 -44q-184 0 -187 155z" />
    <glyph glyph-name="T" unicode="T" horiz-adv-x="481" 
d="M245 0h-94l88 509h-171l14 80h439l-15 -80h-172z" />
    <glyph glyph-name="U" unicode="U" horiz-adv-x="589" 
d="M491 589h94l-70 -399q-19 -110 -84.5 -156t-169.5 -46t-160.5 57t-34.5 178l63 366h95l-66 -372q-13 -77 18 -114.5t97 -37.5q64 0 101 34t50 110z" />
    <glyph glyph-name="V" unicode="V" horiz-adv-x="542" 
d="M173 589l52 -373q6 -40 9 -77t4 -55v-17h4q18 59 61 148l184 374h100l-298 -589h-121l-90 589h95z" />
    <glyph glyph-name="W" unicode="W" horiz-adv-x="833" 
d="M527 589l31 -369q4 -41 5 -80.5t1 -59.5l-1 -19h4q17 67 53 158l148 370h98l-246 -589h-131l-30 347q-3 46 -3 81t2 55l2 20h-4q-14 -65 -53 -156l-149 -347h-129l-29 589h93l15 -367l1 -161h4q14 69 54 160l158 368h106z" />
    <glyph glyph-name="X" unicode="X" horiz-adv-x="546" 
d="M388 0l-84 161q-13 24 -20 42.5t-8 24.5v7h-4q-4 -17 -52 -75l-134 -160h-110l257 301l-144 288h103l70 -145q13 -27 20.5 -47t8.5 -27l1 -6h3q3 16 54 79l117 146h108l-240 -287l152 -302h-98z" />
    <glyph glyph-name="Y" unicode="Y" horiz-adv-x="506" 
d="M179 589l62 -187q9 -30 15 -58t7 -41l1 -13h4q14 45 56 112l121 187h100l-242 -366l-39 -223h-94l38 223l-127 366h98z" />
    <glyph glyph-name="Z" unicode="Z" horiz-adv-x="517" 
d="M11 55l325 385q21 24 40 42t28 24l9 5v4q-34 -6 -94 -6h-217l15 80h415l-12 -62l-322 -378q-21 -24 -40 -42t-28 -23l-9 -6v-4q34 6 94 6h230l-13 -80h-431z" />
    <glyph glyph-name="bracketleft" unicode="[" horiz-adv-x="331" 
d="M246 601l-130 -736h143l-12 -68h-230l153 872h230l-11 -68h-143z" />
    <glyph glyph-name="backslash" unicode="\" horiz-adv-x="345" 
d="M172 669l121 -872h-75l-122 872h76z" />
    <glyph glyph-name="bracketright" unicode="]" horiz-adv-x="331" 
d="M85 -135l129 736h-143l12 68h230l-153 -872h-230l12 68h143z" />
    <glyph glyph-name="asciicircum" unicode="^" horiz-adv-x="507" 
d="M440 321l-53 160q-12 39 -18.5 70t-6.5 42v11h-4q-9 -35 -69 -122l-113 -161h-90l248 347h74l125 -347h-93z" />
    <glyph glyph-name="underscore" unicode="_" horiz-adv-x="482" 
d="M-3 -93l13 71h381l-13 -71h-381z" />
    <glyph glyph-name="grave" unicode="`" horiz-adv-x="355" 
d="M275 529h-80l-115 146h121z" />
    <glyph glyph-name="a" unicode="a" horiz-adv-x="534" 
d="M346 193l14 78q9 53 -12 92.5t-70 39.5q-65 0 -107 -62t-42 -155q0 -56 24 -90.5t69 -34.5q48 0 80.5 35.5t43.5 96.5zM485 462l-62 -351q-8 -45 26 -45q10 0 30 5l-13 -67q-24 -9 -54 -9q-84 0 -81 82q-38 -89 -138 -89q-70 0 -112.5 50t-42.5 139q0 122 63 209t162 87
q104 0 118 -89l26 78h78z" />
    <glyph glyph-name="b" unicode="b" horiz-adv-x="533" 
d="M175 264l-15 -83q-8 -46 16.5 -84t75.5 -38q68 0 108 63.5t40 156.5q0 57 -24 89.5t-68 32.5q-48 0 -85.5 -37.5t-47.5 -99.5zM137 74l-32 -74h-67l117 668h91l-52 -295q47 100 149 100q72 0 112 -49t40 -142q0 -127 -63 -210.5t-168 -83.5q-50 0 -84.5 24t-42.5 62z" />
    <glyph glyph-name="c" unicode="c" horiz-adv-x="450" 
d="M333 147l85 -17q-49 -142 -199 -142q-82 0 -131.5 51.5t-49.5 143.5q0 119 63.5 204.5t176.5 85.5q78 0 116 -40t38 -111l-86 -15q0 92 -78 92q-64 0 -101.5 -62.5t-37.5 -143.5q0 -66 26.5 -100.5t73.5 -34.5q76 0 104 89z" />
    <glyph glyph-name="d" unicode="d" horiz-adv-x="532" 
d="M347 192l15 79q9 52 -12.5 91.5t-71.5 39.5q-66 0 -108 -62t-42 -155q0 -55 24 -89.5t69 -34.5q49 0 82 34.5t44 96.5zM522 668l-98 -557q-8 -45 27 -45q9 0 29 5l-13 -67q-24 -9 -54 -9q-83 0 -81 82q-32 -89 -139 -89q-70 0 -112.5 50t-42.5 139q0 122 63 209t163 87
q104 0 118 -89l50 284h90z" />
    <glyph glyph-name="e" unicode="e" horiz-adv-x="468" 
d="M229 58q45 0 68.5 18.5t35.5 56.5l84 -21q-24 -68 -71.5 -96t-124.5 -28q-86 0 -134.5 53.5t-48.5 143.5q0 133 69 210.5t162 77.5q85 0 128 -47.5t43 -118.5q0 -49 -20 -95h-293q-7 -63 19 -108.5t83 -45.5zM137 277h209q5 13 5 32q0 41 -21.5 67.5t-64.5 26.5
q-49 0 -81.5 -35.5t-46.5 -90.5z" />
    <glyph glyph-name="f" unicode="f" horiz-adv-x="301" 
d="M33 -94l86 484h-71l14 72h69l11 59q28 154 168 154q57 0 109 -28l-34 -75q-38 27 -73 27t-54 -18t-26 -60l-11 -59h117l-13 -72h-117l-85 -487q-12 -66 -42 -90t-84 -24t-85 25l20 69q27 -23 54 -23q20 0 31 10t16 36z" />
    <glyph glyph-name="g" unicode="g" horiz-adv-x="509" 
d="M348 192l14 79q9 53 -12 92.5t-71 39.5q-67 0 -108.5 -61.5t-41.5 -154.5q0 -57 23.5 -90.5t69.5 -33.5q50 0 82.5 33.5t43.5 95.5zM486 462l-83 -474q-19 -102 -74.5 -150.5t-159.5 -48.5q-163 0 -186 124l77 35q4 -40 34.5 -65.5t78.5 -25.5q61 0 93.5 33.5t45.5 99.5
l17 87q-37 -86 -134 -86q-71 0 -114 50t-43 139q0 121 63.5 207t164.5 86t117 -89l25 78h78z" />
    <glyph glyph-name="h" unicode="h" horiz-adv-x="519" 
d="M456 318l-36 -207q-8 -45 27 -45q9 0 29 5l-13 -67q-24 -9 -54 -9q-100 0 -81 107l37 208q17 87 -60 87q-43 0 -81 -35t-51 -111l-44 -251h-91l116 668h93l-54 -300q49 105 149 105q54 0 86 -29t32 -82q0 -24 -4 -44z" />
    <glyph glyph-name="i" unicode="i" horiz-adv-x="253" 
d="M204 462l-62 -351q-8 -45 27 -45q9 0 29 5l-13 -67q-24 -9 -54 -9q-100 0 -81 107l63 360h91zM121 610q0 26 17.5 43t42.5 17q26 0 44 -17t18 -43q0 -25 -18 -42.5t-44 -17.5q-25 0 -42.5 17.5t-17.5 42.5z" />
    <glyph glyph-name="j" unicode="j" horiz-adv-x="226" 
d="M204 462l-93 -530q-13 -79 -53.5 -111t-106.5 -32q-57 0 -94 26l29 70q31 -25 67 -25q26 0 42.5 17t24.5 60l93 525h91zM121 610q0 26 17.5 43t42.5 17q26 0 44 -17t18 -43q0 -25 -18 -42.5t-44 -17.5q-25 0 -42.5 17.5t-17.5 42.5z" />
    <glyph glyph-name="k" unicode="k" horiz-adv-x="459" 
d="M279 49l-83 172h-28l-39 -221h-91l117 668h92l-67 -380h22l164 174h111l-202 -205l75 -156q14 -27 32.5 -32.5t50.5 4.5l-14 -69q-27 -9 -57 -9q-57 0 -83 54z" />
    <glyph glyph-name="l" unicode="l" horiz-adv-x="250" 
d="M240 668l-98 -557q-8 -45 27 -45q9 0 29 5l-13 -67q-24 -9 -54 -9q-100 0 -81 107l99 566h91z" />
    <glyph glyph-name="m" unicode="m" horiz-adv-x="769" 
d="M390 0h-91l55 310q15 87 -59 87q-38 0 -73.5 -35t-48.5 -111l-44 -251h-91l81 462h79l-5 -94q26 54 57.5 79.5t85.5 25.5q51 0 81.5 -29.5t30.5 -82.5q46 112 149 112q51 0 81.5 -29t30.5 -82q0 -24 -3 -44l-36 -207q-8 -45 26 -45q10 0 30 5l-13 -67q-24 -9 -54 -9
q-100 0 -81 107l37 208q15 87 -59 87q-38 0 -73.5 -35t-48.5 -111z" />
    <glyph glyph-name="n" unicode="n" horiz-adv-x="519" 
d="M456 318l-36 -207q-8 -45 27 -45q9 0 29 5l-13 -67q-24 -9 -54 -9q-100 0 -81 107l37 208q17 87 -60 87q-43 0 -81 -35t-51 -111l-44 -251h-91l81 462h79l-5 -94q49 105 149 105q54 0 86 -29t32 -82q0 -24 -4 -44z" />
    <glyph glyph-name="o" unicode="o" horiz-adv-x="500" 
d="M280 473q86 0 134 -53t48 -146q0 -121 -64.5 -203.5t-176.5 -82.5q-82 0 -132.5 51.5t-50.5 144.5q0 121 64.5 205t177.5 84zM269 399q-63 0 -101.5 -61t-38.5 -147q0 -64 27 -98.5t75 -34.5q63 0 100.5 62.5t37.5 149.5q0 62 -26 95.5t-74 33.5z" />
    <glyph glyph-name="p" unicode="p" horiz-adv-x="534" 
d="M175 264l-15 -83q-10 -46 16 -84t77 -38q67 0 107 63.5t40 156.5q0 57 -24 89t-68 32q-48 0 -85.5 -37.5t-47.5 -98.5zM142 74l-49 -277h-90l117 665h79l-6 -89q47 100 151 100q72 0 112 -49t40 -142q0 -127 -63 -210.5t-168 -83.5q-49 0 -82 24t-41 62z" />
    <glyph glyph-name="q" unicode="q" horiz-adv-x="505" 
d="M347 191l14 80q10 52 -11.5 91.5t-71.5 39.5q-65 0 -107 -62.5t-42 -155.5q0 -55 24 -89.5t69 -34.5q49 0 81.5 34.5t43.5 96.5zM369 -203h-91l49 277q-36 -86 -134 -86q-70 0 -112.5 50t-42.5 139q0 122 63 209t163 87q103 0 119 -89l26 78h77z" />
    <glyph glyph-name="r" unicode="r" horiz-adv-x="346" 
d="M367 471l-23 -107q-54 15 -106.5 -13.5t-63.5 -92.5l-45 -258h-91l81 462h79l-8 -109q25 59 74 93t103 25z" />
    <glyph glyph-name="s" unicode="s" horiz-adv-x="409" 
d="M16 122l80 20q0 -45 23.5 -67.5t63.5 -22.5q80 0 80 65q0 31 -17.5 49.5t-63.5 34.5q-57 20 -84 51.5t-27 81.5q0 67 46.5 103t119.5 36q147 0 147 -123l-82 -13q0 71 -72 71q-34 0 -54.5 -16.5t-20.5 -46.5q0 -25 17 -41.5t69 -36.5q60 -24 84.5 -56.5t24.5 -85.5
q0 -69 -46 -103t-124 -34q-77 0 -120 35t-44 99z" />
    <glyph glyph-name="t" unicode="t" horiz-adv-x="316" 
d="M263 88v-76q-42 -24 -99 -24q-135 0 -108 148l44 254h-64l13 72h65l17 97l92 12l-19 -109h121l-13 -72h-120l-46 -260q-12 -65 39 -65q36 0 78 23z" />
    <glyph glyph-name="u" unicode="u" horiz-adv-x="517" 
d="M318 87q-40 -99 -146 -99q-73 0 -103 45.5t-16 128.5l52 300h91l-54 -311q-8 -46 8 -71t53 -25q43 0 79 34.5t47 94.5l48 278h91l-62 -351q-8 -45 27 -45q9 0 29 5l-13 -67q-24 -9 -54 -9q-46 0 -64 23t-13 69z" />
    <glyph glyph-name="v" unicode="v" horiz-adv-x="425" 
d="M108 0l-70 462h93l30 -254q5 -40 7 -76.5t2 -53.5v-17h4q14 59 59 147l128 254h98l-249 -462h-102z" />
    <glyph glyph-name="w" unicode="w" horiz-adv-x="676" 
d="M419 462l22 -242q4 -41 5 -80t0 -58l-2 -18h4q12 62 52 156l105 242h95l-207 -462h-108l-25 219q-4 39 -4.5 75.5t0.5 53.5l1 17h-4q-15 -57 -54 -146l-95 -219h-108l-48 462h93l20 -242q4 -41 5 -80t0 -58l-1 -18h4q14 65 54 157l108 241h88z" />
    <glyph glyph-name="x" unicode="x" horiz-adv-x="439" 
d="M294 0l-51 107q-12 26 -18.5 45t-6.5 24v6h-4q-2 -15 -51 -75l-88 -107h-101l194 232l-105 230h97l42 -98q11 -27 17.5 -46t7.5 -24l1 -6h4q6 18 49 75l78 99h103l-185 -227l112 -235h-95z" />
    <glyph glyph-name="y" unicode="y" horiz-adv-x="431" 
d="M138 462l29 -259q5 -40 7 -76t2 -52l-1 -16h4q14 59 58 144l132 259h96l-275 -515q-50 -95 -95 -126.5t-104 -31.5q-44 0 -75 18l22 70q27 -17 57 -17q36 0 64 26t59 87l-75 489h95z" />
    <glyph glyph-name="z" unicode="z" horiz-adv-x="425" 
d="M4 49l234 268q21 24 40 42t27 24l8 6v4q-32 -7 -92 -7h-140l13 76h338l-10 -59l-233 -260q-22 -24 -41 -41.5t-28 -23.5l-8 -6v-4q34 6 94 6h152l-12 -74h-352z" />
    <glyph glyph-name="braceleft" unicode="{" horiz-adv-x="390" 
d="M153 233v-4q39 -5 56.5 -27t8.5 -74l-33 -192q-8 -40 1.5 -59t41.5 -19t64 16l4 -66q-47 -18 -101 -18q-67 0 -88 35.5t-9 101.5l33 193q9 46 -7 61.5t-48 15.5h-41l12 69h41q72 0 84 77l32 192q25 137 149 137q52 0 92 -18l-27 -65q-27 15 -59 15t-48 -19t-22 -59
l-34 -192q-10 -54 -34.5 -74.5t-67.5 -26.5z" />
    <glyph glyph-name="bar" unicode="|" horiz-adv-x="232" 
d="M80 -203h-77l153 872h77z" />
    <glyph glyph-name="braceright" unicode="}" horiz-adv-x="390" 
d="M233 229v4q-39 5 -56.5 27t-8.5 74l33 192q8 40 -1.5 59t-41.5 19q-31 0 -64 -15l-4 65q47 18 101 18q67 0 88 -35.5t9 -101.5l-33 -192q-9 -46 7 -61.5t48 -15.5h41l-12 -69h-41q-32 0 -54.5 -16t-29.5 -61l-32 -193q-25 -137 -149 -137q-52 0 -92 18l27 66
q26 -16 59 -16q32 0 48 19t22 59l34 192q10 54 35 75t67 26z" />
    <glyph glyph-name="asciitilde" unicode="~" horiz-adv-x="364" 
d="M194 217l-49 25q-18 10 -32 10q-33 0 -38 -40l-36 16q-4 13 -4 27q0 32 23 53t57 21q26 0 54 -14l46 -26q16 -8 34 -8q33 0 37 43l40 -18q2 -7 2 -21q-2 -35 -24 -59t-57 -24q-23 0 -53 15z" />
    <glyph glyph-name="nbspace" unicode="&#xa0;" horiz-adv-x="153" 
 />
    <glyph glyph-name="exclamdown" unicode="&#xa1;" horiz-adv-x="226" 
d="M105 -127h-117l103 415h61zM202 406q0 -27 -18 -44.5t-45 -17.5t-45.5 17.5t-18.5 44.5q0 26 18.5 44t45.5 18t45 -18t18 -44z" />
    <glyph glyph-name="cent" unicode="&#xa2;" horiz-adv-x="493" 
d="M384 146l69 -47q-35 -57 -83 -83.5t-118 -27.5l-16 -94h-50l17 98q-72 12 -113.5 64.5t-41.5 135.5q0 124 64 208t179 92l15 82h50l-15 -83q116 -11 144 -119l-87 -39q-12 68 -71 82l-62 -354q72 3 119 85zM141 201q0 -107 76 -133l61 349q-62 -10 -99.5 -70t-37.5 -146z
" />
    <glyph glyph-name="sterling" unicode="&#xa3;" horiz-adv-x="490" 
d="M353 206h-130q0 -16 -1 -23q-2 -40 -21 -69t-48 -38h169q61 0 82 49l60 -36q-34 -89 -143 -89h-311l13 78h47q28 0 51 26t23 59q0 23 -5 43h-95l9 55h74q-6 34 -6 71q0 82 54 121.5t126 39.5q74 0 115 -33t41 -101l-85 -17q-2 79 -80 79q-86 0 -86 -91q0 -37 8 -69h148z
" />
    <glyph glyph-name="currency" unicode="&#xa4;" horiz-adv-x="469" 
d="M18 133l84 72q-11 27 -11 59q0 76 41 129l-54 65l38 32l51 -64q43 29 98 29q58 0 93 -33l82 70l29 -35l-85 -72q13 -31 13 -64q0 -73 -40 -125l55 -65l-38 -32l-52 63q-40 -29 -98 -29q-62 0 -96 34l-81 -69zM258 398q-43 0 -69 -37.5t-26 -91.5q0 -40 18 -61t49 -21
q43 0 68.5 39t25.5 93q0 38 -17.5 58.5t-48.5 20.5z" />
    <glyph glyph-name="yen" unicode="&#xa5;" horiz-adv-x="502" 
d="M440 242h-107l-35 -50h137l-4 -50h-157l-24 -142h-92l24 142h-145l4 50h135l-19 50h-111l4 50h88l-70 189h97l52 -153q9 -28 15 -52.5t7 -34.5l1 -10h4q11 34 54 96l104 154h102l-135 -189h75z" />
    <glyph glyph-name="brokenbar" unicode="&#xa6;" horiz-adv-x="232" 
d="M165 278h-77l68 391h77zM80 -203h-77l69 391h77z" />
    <glyph glyph-name="section" unicode="&#xa7;" horiz-adv-x="407" 
d="M25 238q0 53 30 85.5t78 43.5q-40 35 -40 92q0 71 49.5 105t118.5 34q146 0 146 -123l-81 -13q0 34 -20 52t-55 18q-31 0 -52 -16.5t-21 -45.5q0 -24 17 -40.5t73 -43.5q59 -27 84 -58.5t25 -77.5q0 -100 -109 -126q42 -39 42 -94q0 -69 -49.5 -103t-129.5 -34
q-154 0 -156 122l76 16q4 -76 86 -76q37 0 61 16t24 45q0 28 -17 45.5t-69 42.5q-59 27 -85 56.5t-26 77.5zM200 166l14 -6q32 3 54.5 25t22.5 50t-17 45t-70 43q-3 1 -8.5 3t-8.5 4q-37 -7 -57 -28.5t-20 -50.5q0 -25 17 -41.5t73 -43.5z" />
    <glyph glyph-name="dieresis" unicode="&#xa8;" horiz-adv-x="475" 
d="M80 595q0 26 17.5 43t41.5 17q25 0 42.5 -17t17.5 -43q0 -25 -17.5 -42t-42.5 -17q-24 0 -41.5 17t-17.5 42zM276 594q0 26 17.5 43t41.5 17q26 0 43 -17t17 -43q0 -25 -17.5 -42t-42.5 -17q-24 0 -41.5 17t-17.5 42z" />
    <glyph glyph-name="copyright" unicode="&#xa9;" horiz-adv-x="698" 
d="M445 226l57 -39q-52 -87 -162 -87q-69 0 -111 41.5t-42 115.5q0 100 54 166t150 66q111 0 136 -95l-72 -31q-9 64 -73 64q-52 0 -85.5 -47t-33.5 -116q0 -48 23 -76.5t64 -28.5q58 0 95 67zM55 294q0 132 89 219.5t217 87.5t217.5 -87.5t89.5 -219.5t-89.5 -219
t-217.5 -87t-217 87t-89 219zM86 294q0 -120 80 -198.5t196 -78.5t196 78.5t80 198.5t-80 199t-196 79t-196 -79t-80 -199z" />
    <glyph glyph-name="ordfeminine" unicode="&#xaa;" horiz-adv-x="403" 
d="M259 415l10 50q6 34 -8.5 58.5t-49.5 24.5q-47 0 -76.5 -39.5t-29.5 -99.5q0 -35 17 -57t48 -22q34 0 57.5 22t31.5 63zM369 593l-46 -230q-4 -25 16 -25q5 0 25 4l-10 -52q-21 -6 -43 -6q-57 0 -64 46q-35 -51 -99 -51q-53 0 -85.5 33.5t-32.5 93.5q0 81 47.5 138
t123.5 57q67 0 86 -55l18 47h64z" />
    <glyph glyph-name="guillemotleft" unicode="&#xab;" horiz-adv-x="517" 
d="M302 234v-4q11 -4 42 -48l83 -116l-57 -45l-148 213l223 213l43 -47l-119 -117q-16 -16 -33 -28.5t-26 -16.5zM109 234v-4q11 -4 42 -48l84 -116l-58 -45l-148 213l223 213l43 -47l-119 -117q-16 -16 -33 -28.5t-25 -16.5z" />
    <glyph glyph-name="logicalnot" unicode="&#xac;" horiz-adv-x="497" 
d="M384 262h-344l9 53h408l-33 -189h-64z" />
    <glyph glyph-name="uni00AD" unicode="&#xad;" horiz-adv-x="373" 
d="M68 219l13 76h224l-13 -76h-224z" />
    <glyph glyph-name="registered" unicode="&#xae;" horiz-adv-x="698" 
d="M501 119h-79q-9 12 -12 40l-3 47q-2 26 -13.5 37t-40.5 11h-57l-24 -135h-73l64 362h144q116 0 116 -95q0 -51 -30.5 -77.5t-77.5 -28.5v-3q60 -3 64 -55l6 -58q2 -28 16 -45zM325 423l-20 -114h66q79 0 79 69q0 45 -53 45h-72zM55 294q0 132 89 219.5t217 87.5
t217.5 -87.5t89.5 -219.5t-89.5 -219t-217.5 -87t-217 87t-89 219zM86 294q0 -120 80 -198.5t196 -78.5t196 78.5t80 198.5t-80 199t-196 79t-196 -79t-80 -199z" />
    <glyph glyph-name="macron" unicode="&#xaf;" horiz-adv-x="435" 
d="M342 558h-262l13 73h262z" />
    <glyph glyph-name="degree" unicode="&#xb0;" horiz-adv-x="283" 
d="M53 477q0 52 35.5 88t91.5 36q48 0 77 -29.5t29 -74.5q0 -52 -36 -88.5t-90 -36.5q-51 0 -79 29.5t-28 75.5zM175 557q-31 0 -51 -22.5t-20 -53.5q0 -29 16.5 -46t45.5 -17q30 0 49.5 21.5t19.5 52.5q0 30 -16.5 47.5t-43.5 17.5z" />
    <glyph glyph-name="plusminus" unicode="&#xb1;" horiz-adv-x="540" 
d="M86 340h173l25 134h57l-24 -134h177l-9 -54h-177l-27 -148h-57l26 148h-173zM442 43h-408l9 53h408z" />
    <glyph glyph-name="twosuperior" unicode="&#xb2;" horiz-adv-x="321" 
d="M275 293l-11 -57h-265l10 52q105 60 158 105t53 88q0 56 -55 56q-59 0 -71 -70l-56 26q9 47 44.5 75.5t92.5 28.5q55 0 86.5 -27t31.5 -78q0 -112 -198 -195v-4h180z" />
    <glyph glyph-name="threesuperior" unicode="&#xb3;" horiz-adv-x="310" 
d="M186 420v-3q81 -9 81 -83q0 -51 -40.5 -78t-100.5 -27q-59 0 -89 26t-33 68l63 17q6 -59 59 -59q30 0 49 14t19 40q0 27 -20 41.5t-75 15.5l9 47q105 4 105 61q0 40 -48 40q-46 0 -61 -51l-56 23q27 85 125 85q50 0 81.5 -22t31.5 -65q0 -38 -26 -61.5t-74 -28.5z" />
    <glyph glyph-name="acute" unicode="&#xb4;" horiz-adv-x="355" 
d="M159 529h-79l74 146h121z" />
    <glyph glyph-name="mu" unicode="&#xb5;" horiz-adv-x="517" 
d="M318 84q-20 -52 -52.5 -74t-82.5 -22q-25 0 -44 9.5t-22 22.5l-39 -223h-88l115 665h91l-54 -311q-8 -46 8 -71t53 -25q43 0 79 34.5t47 94.5l48 278h91l-62 -351q-8 -45 27 -45q9 0 29 5l-13 -67q-24 -9 -54 -9q-46 0 -63.5 22t-13.5 67z" />
    <glyph glyph-name="mu" unicode="&#x3bc;" horiz-adv-x="517" 
d="M318 84q-20 -52 -52.5 -74t-82.5 -22q-25 0 -44 9.5t-22 22.5l-39 -223h-88l115 665h91l-54 -311q-8 -46 8 -71t53 -25q43 0 79 34.5t47 94.5l48 278h91l-62 -351q-8 -45 27 -45q9 0 29 5l-13 -67q-24 -9 -54 -9q-46 0 -63.5 22t-13.5 67z" />
    <glyph glyph-name="paragraph" unicode="&#xb6;" horiz-adv-x="523" 
d="M491 517l-95 -538q-24 -142 -167 -142q-56 0 -100 27l38 82q29 -30 72 -30q55 0 65 59l35 199h-48q-110 0 -160.5 50t-32.5 151q37 214 305 214h180l-13 -72h-79z" />
    <glyph glyph-name="periodcentered" unicode="&#xb7;" horiz-adv-x="286" 
d="M74 266q0 28 20 48t48 20t48 -20t20 -48t-20 -48t-48 -20t-48 20t-20 48z" />
    <glyph glyph-name="cedilla" unicode="&#xb8;" horiz-adv-x="357" 
d="M277 -124q0 -42 -30.5 -64.5t-76.5 -22.5q-62 0 -90 38l24 51q26 -36 62 -36q39 0 39 34q0 41 -64 42l35 90h44l-21 -49q40 -8 59 -27.5t19 -55.5z" />
    <glyph glyph-name="onesuperior" unicode="&#xb9;" horiz-adv-x="294" 
d="M260 236h-251l10 56h90l40 228l-107 -10l10 57l182 23l-52 -298h88z" />
    <glyph glyph-name="ordmasculine" unicode="&#xba;" horiz-adv-x="366" 
d="M205 601q61 0 96 -36t35 -98q0 -79 -46.5 -133.5t-125.5 -54.5q-60 0 -97 34.5t-37 96.5q0 80 46.5 135.5t128.5 55.5zM197 544q-43 0 -69 -37.5t-26 -91.5q0 -40 18 -61t49 -21q43 0 68.5 39t25.5 93q0 79 -66 79z" />
    <glyph glyph-name="guillemotright" unicode="&#xbb;" horiz-adv-x="517" 
d="M214 234v4q-11 4 -42 47l-83 117l58 45l148 -213l-223 -213l-43 47l119 116q16 16 32.5 28.5t25.5 17.5zM407 234v4q-11 4 -42 47l-83 117l57 45l149 -213l-224 -213l-42 47l119 116q16 16 32.5 28.5t24.5 17.5z" />
    <glyph glyph-name="onequarter" unicode="&#xbc;" horiz-adv-x="859" 
d="M285 236h-251l10 56h90l40 228l-107 -10l10 57l182 23l-52 -298h88zM192 0l410 590h65l-409 -590h-66zM672 0l15 86h-179l10 54l213 213h75l-37 -213h57l-10 -54h-57l-15 -86h-72zM699 139l14 84l17 71h-4q-15 -26 -46 -59l-50 -50q-13 -13 -27 -24.5t-21 -16.5l-8 -5
l-1 -4q16 4 57 4h69z" />
    <glyph glyph-name="onehalf" unicode="&#xbd;" horiz-adv-x="859" 
d="M285 236h-251l10 56h90l40 228l-107 -10l10 57l182 23l-52 -298h88zM192 0l410 590h65l-409 -590h-66zM774 57l-11 -57h-265l10 52q105 60 158 105t53 88q0 56 -55 56q-59 0 -71 -70l-56 26q9 47 44.5 75.5t92.5 28.5q55 0 86.5 -27t31.5 -78q0 -112 -198 -195v-4h180z
" />
    <glyph glyph-name="threequarters" unicode="&#xbe;" horiz-adv-x="859" 
d="M211 420v-3q81 -9 81 -83q0 -51 -40.5 -78t-100.5 -27q-59 0 -89 26t-33 68l63 17q6 -59 59 -59q30 0 49 14t19 40q0 27 -20 41.5t-75 15.5l9 47q105 4 105 61q0 40 -48 40q-46 0 -61 -51l-56 23q27 85 125 85q50 0 81.5 -22t31.5 -65q0 -38 -26 -61.5t-74 -28.5zM192 0
l410 590h65l-409 -590h-66zM672 0l15 86h-179l10 54l213 213h75l-37 -213h57l-10 -54h-57l-15 -86h-72zM699 139l14 84l17 71h-4q-15 -26 -46 -59l-50 -50q-13 -13 -27 -24.5t-21 -16.5l-8 -5l-1 -4q16 4 57 4h69z" />
    <glyph glyph-name="questiondown" unicode="&#xbf;" horiz-adv-x="421" 
d="M306 32l76 -30q-43 -141 -193 -141q-84 0 -129 42.5t-45 119.5q0 92 62 142t141 50l15 82h81l-24 -135h-28q-68 0 -110.5 -31.5t-42.5 -98.5q0 -45 23.5 -69.5t68.5 -24.5q81 0 105 94zM352 406q0 -27 -18 -44.5t-45 -17.5t-45.5 17.5t-18.5 44.5q0 26 18.5 44t45.5 18
q26 0 44.5 -18t18.5 -44z" />
    <glyph glyph-name="Agrave" unicode="&#xc0;" horiz-adv-x="591" 
d="M432 0l-28 161h-241l-84 -161h-100l318 589h121l110 -589h-96zM408 653h-83l-100 123h120zM272 370l-70 -133h188q-14 69 -24.5 141t-15 110t-3.5 38h-4q-22 -64 -71 -156z" />
    <glyph glyph-name="Aacute" unicode="&#xc1;" horiz-adv-x="591" 
d="M432 0l-28 161h-241l-84 -161h-100l318 589h121l110 -589h-96zM399 653h-83l63 123h120zM272 370l-70 -133h188q-14 69 -24.5 141t-15 110t-3.5 38h-4q-22 -64 -71 -156z" />
    <glyph glyph-name="Acircumflex" unicode="&#xc2;" horiz-adv-x="591" 
d="M432 0l-28 161h-241l-84 -161h-100l318 589h121l110 -589h-96zM272 370l-70 -133h188q-14 69 -24.5 141t-15 110t-3.5 38h-4q-22 -64 -71 -156zM349 782h56l101 -129h-94l-26 33q-6 9 -10.5 17.5t-5.5 12.5l-1 4h-2q1 -2 -8.5 -12.5t-26 -26.5t-32.5 -28h-98z" />
    <glyph glyph-name="Atilde" unicode="&#xc3;" horiz-adv-x="591" 
d="M432 0l-28 161h-241l-84 -161h-100l318 589h121l110 -589h-96zM425 653q-36 0 -75.5 25.5t-53.5 25.5q-36 0 -39 -49h-55q-10 51 18 87t76 36q34 0 63 -19q3 -2 9.5 -6.5t8.5 -6t7 -4.5t7 -4t5.5 -3.5t5.5 -3t5.5 -2t5.5 -1.5t5 -0.5t6 -0.5q32 0 36 51h58q9 -55 -17 -90
t-76 -35zM272 370l-70 -133h188q-14 69 -24.5 141t-15 110t-3.5 38h-4q-22 -64 -71 -156z" />
    <glyph glyph-name="Adieresis" unicode="&#xc4;" horiz-adv-x="591" 
d="M432 0l-28 161h-241l-84 -161h-100l318 589h121l110 -589h-96zM407 712q0 26 17.5 43t41.5 17q26 0 43 -17t17 -43q0 -25 -17.5 -42t-42.5 -17q-24 0 -41.5 17t-17.5 42zM211 713q0 26 17.5 43t41.5 17q25 0 42.5 -17t17.5 -43q0 -25 -17.5 -42t-42.5 -17q-24 0 -41.5 17
t-17.5 42zM272 370l-70 -133h188q-14 69 -24.5 141t-15 110t-3.5 38h-4q-22 -64 -71 -156z" />
    <glyph glyph-name="Aring" unicode="&#xc5;" horiz-adv-x="591" 
d="M432 0l-28 161h-241l-84 -161h-100l318 589h121l110 -589h-96zM279 725q0 45 30 75.5t78 30.5q41 0 66 -25t25 -63q0 -45 -30 -76t-77 -31q-44 0 -68 25t-24 64zM272 370l-70 -133h188q-14 69 -24.5 141t-15 110t-3.5 38h-4q-22 -64 -71 -156zM383 788q-24 0 -39.5 -17
t-15.5 -41q0 -23 13 -37t35 -14q23 0 38.5 17.5t15.5 41.5q0 23 -12.5 36.5t-34.5 13.5z" />
    <glyph glyph-name="AE" unicode="&#xc6;" horiz-adv-x="850" 
d="M398 0l28 161h-220l-126 -161h-105l460 589h429l-14 -80h-268l-31 -174h237l-14 -80h-237l-31 -175h268l-13 -80h-363zM491 526l-226 -289h174l31 176l25 113h-4z" />
    <glyph glyph-name="Ccedilla" unicode="&#xc7;" horiz-adv-x="560" 
d="M330 -124q0 -42 -30.5 -64.5t-76.5 -22.5q-61 0 -90 38l23 51q27 -36 63 -36q39 0 39 34q0 41 -64 42l29 76q-81 17 -125 79t-44 155q0 171 87 272t215 101q168 0 200 -147l-94 -36q-8 51 -38 77.5t-76 26.5q-91 0 -144.5 -84t-53.5 -204q0 -78 37 -123t106 -45
q49 0 83 19t63 71l75 -41q-70 -127 -230 -127q-13 0 -20 1l-12 -30q40 -8 59 -27.5t19 -55.5z" />
    <glyph glyph-name="Egrave" unicode="&#xc8;" horiz-adv-x="490" 
d="M414 80l-13 -80h-363l103 589h363l-14 -80h-269l-30 -174h237l-14 -80h-237l-31 -175h268zM366 653h-83l-100 123h120z" />
    <glyph glyph-name="Eacute" unicode="&#xc9;" horiz-adv-x="490" 
d="M414 80l-13 -80h-363l103 589h363l-14 -80h-269l-30 -174h237l-14 -80h-237l-31 -175h268zM356 653h-82l63 123h120z" />
    <glyph glyph-name="Ecircumflex" unicode="&#xca;" horiz-adv-x="490" 
d="M414 80l-13 -80h-363l103 589h363l-14 -80h-269l-30 -174h237l-14 -80h-237l-31 -175h268zM307 782h55l102 -129h-94l-26 33q-7 9 -11 17.5t-5 12.5l-1 4h-3q-6 -14 -29 -34l-37 -33h-99z" />
    <glyph glyph-name="Edieresis" unicode="&#xcb;" horiz-adv-x="490" 
d="M414 80l-13 -80h-363l103 589h363l-14 -80h-269l-30 -174h237l-14 -80h-237l-31 -175h268zM169 713q0 26 17.5 43t41.5 17q25 0 42 -17t17 -43q0 -25 -17 -42t-42 -17q-24 0 -41.5 17t-17.5 42zM365 712q0 26 17.5 43t41.5 17q25 0 42.5 -17t17.5 -43q0 -25 -17.5 -42
t-42.5 -17q-24 0 -41.5 17t-17.5 42z" />
    <glyph glyph-name="Igrave" unicode="&#xcc;" horiz-adv-x="249" 
d="M141 589h94l-103 -589h-94zM244 653h-83l-100 123h120z" />
    <glyph glyph-name="Iacute" unicode="&#xcd;" horiz-adv-x="249" 
d="M141 589h94l-103 -589h-94zM234 653h-82l63 123h120z" />
    <glyph glyph-name="Icircumflex" unicode="&#xce;" horiz-adv-x="249" 
d="M141 589h94l-103 -589h-94zM186 782h55l102 -129h-94l-26 33q-7 9 -11 17.5t-5 12.5l-1 4h-3q-6 -14 -29 -34l-37 -33h-99z" />
    <glyph glyph-name="Idieresis" unicode="&#xcf;" horiz-adv-x="249" 
d="M141 589h94l-103 -589h-94zM47 713q0 26 17.5 43t41.5 17q25 0 42 -17t17 -43q0 -25 -17 -42t-42 -17q-24 0 -41.5 17t-17.5 42zM243 712q0 26 17.5 43t41.5 17q25 0 42.5 -17t17.5 -43q0 -25 -17.5 -42t-42.5 -17q-24 0 -41.5 17t-17.5 42z" />
    <glyph glyph-name="Eth" unicode="&#xd0;" horiz-adv-x="597" 
d="M232 0h-194l44 256h-65l14 78h65l45 255h169q124 0 186 -58t62 -167q0 -77 -18.5 -139.5t-49.5 -103.5t-73.5 -69t-88.5 -40t-96 -12zM146 77h86q100 0 163.5 69.5t63.5 209.5q0 156 -164 156h-73l-32 -178h123l-14 -78h-122z" />
    <glyph glyph-name="Ntilde" unicode="&#xd1;" 
d="M235 589l154 -331q13 -29 24.5 -60t16.5 -48l5 -16h4q7 68 20 142l55 313h94l-103 -589h-91l-158 328q-13 28 -25 59.5t-17 48.5l-6 17h-4q-4 -65 -17 -141l-55 -312h-94l103 589h94zM436 653q-10 0 -18.5 1t-17 4.5t-12 5t-14 8t-11.5 7.5q-37 25 -55 25
q-17 0 -27.5 -12.5t-11.5 -36.5h-55q-10 50 18 86.5t76 36.5q17 0 32 -5t21 -8.5t23 -14.5q36 -23 52 -23q32 0 36 51h58q9 -55 -17 -90t-77 -35z" />
    <glyph glyph-name="Ograve" unicode="&#xd2;" 
d="M284 -12q-108 0 -169 65.5t-61 174.5q0 171 87 272t215 101q109 0 170 -66t61 -175q0 -171 -87.5 -271.5t-215.5 -100.5zM348 521q-91 0 -144.5 -83.5t-53.5 -202.5q0 -79 37 -124t106 -45q90 0 143.5 84t53.5 203q0 75 -35.5 121.5t-106.5 46.5zM418 653h-83l-100 123
h120z" />
    <glyph glyph-name="Oacute" unicode="&#xd3;" 
d="M284 -12q-108 0 -169 65.5t-61 174.5q0 171 87 272t215 101q109 0 170 -66t61 -175q0 -171 -87.5 -271.5t-215.5 -100.5zM348 521q-91 0 -144.5 -83.5t-53.5 -202.5q0 -79 37 -124t106 -45q90 0 143.5 84t53.5 203q0 75 -35.5 121.5t-106.5 46.5zM408 653h-82l63 123h120
z" />
    <glyph glyph-name="Ocircumflex" unicode="&#xd4;" 
d="M284 -12q-108 0 -169 65.5t-61 174.5q0 171 87 272t215 101q109 0 170 -66t61 -175q0 -171 -87.5 -271.5t-215.5 -100.5zM348 521q-91 0 -144.5 -83.5t-53.5 -202.5q0 -79 37 -124t106 -45q90 0 143.5 84t53.5 203q0 75 -35.5 121.5t-106.5 46.5zM360 782h55l102 -129
h-94l-26 33q-7 9 -11 17.5t-5 12.5l-1 4h-3q-6 -14 -29 -34l-37 -33h-99z" />
    <glyph glyph-name="Otilde" unicode="&#xd5;" 
d="M284 -12q-108 0 -169 65.5t-61 174.5q0 171 87 272t215 101q109 0 170 -66t61 -175q0 -171 -87.5 -271.5t-215.5 -100.5zM348 521q-91 0 -144.5 -83.5t-53.5 -202.5q0 -79 37 -124t106 -45q90 0 143.5 84t53.5 203q0 75 -35.5 121.5t-106.5 46.5zM435 653q-10 0 -18.5 1
t-17 4.5t-12 5t-14 8t-11.5 7.5q-39 25 -56 25q-36 0 -39 -49h-54q-10 51 18 87t76 36q17 0 32 -5t21 -8.5t23 -14.5q36 -23 52 -23q32 0 36 51h58q8 -55 -18 -90t-76 -35z" />
    <glyph glyph-name="Odieresis" unicode="&#xd6;" 
d="M284 -12q-108 0 -169 65.5t-61 174.5q0 171 87 272t215 101q109 0 170 -66t61 -175q0 -171 -87.5 -271.5t-215.5 -100.5zM348 521q-91 0 -144.5 -83.5t-53.5 -202.5q0 -79 37 -124t106 -45q90 0 143.5 84t53.5 203q0 75 -35.5 121.5t-106.5 46.5zM221 713q0 26 17.5 43
t41.5 17q25 0 42 -17t17 -43q0 -25 -17 -42t-42 -17q-24 0 -41.5 17t-17.5 42zM417 712q0 26 17.5 43t41.5 17q25 0 42.5 -17t17.5 -43q0 -25 -17.5 -42t-42.5 -17q-24 0 -41.5 17t-17.5 42z" />
    <glyph glyph-name="multiply" unicode="&#xd7;" horiz-adv-x="479" 
d="M37 114l160 136l-106 132l44 38l107 -132l164 139l36 -43l-164 -139l116 -139l-44 -37l-116 138l-161 -137z" />
    <glyph glyph-name="Oslash" unicode="&#xd8;" 
d="M62 -14l-43 40l66 68q-31 55 -31 134q0 171 87 272t215 101q100 0 162 -59l57 59l46 -41l-65 -67q31 -59 31 -133q0 -171 -87.5 -271.5t-215.5 -100.5q-101 0 -163 59zM490 353q0 34 -9 64l-296 -305q40 -46 108 -46q90 0 143.5 84t53.5 203zM348 521q-91 0 -144.5 -83.5
t-53.5 -202.5q0 -40 8 -65l296 305q-38 46 -106 46z" />
    <glyph glyph-name="Ugrave" unicode="&#xd9;" horiz-adv-x="589" 
d="M491 589h94l-70 -399q-19 -110 -84.5 -156t-169.5 -46t-160.5 57t-34.5 178l63 366h95l-66 -372q-13 -77 18 -114.5t97 -37.5q64 0 101 34t50 110zM408 653h-82l-100 123h120z" />
    <glyph glyph-name="Uacute" unicode="&#xda;" horiz-adv-x="589" 
d="M491 589h94l-70 -399q-19 -110 -84.5 -156t-169.5 -46t-160.5 57t-34.5 178l63 366h95l-66 -372q-13 -77 18 -114.5t97 -37.5q64 0 101 34t50 110zM400 653h-83l63 123h120z" />
    <glyph glyph-name="Ucircumflex" unicode="&#xdb;" horiz-adv-x="589" 
d="M491 589h94l-70 -399q-19 -110 -84.5 -156t-169.5 -46t-160.5 57t-34.5 178l63 366h95l-66 -372q-13 -77 18 -114.5t97 -37.5q64 0 101 34t50 110zM350 782h56l101 -129h-94l-25 33q-7 9 -11.5 17.5t-5.5 12.5l-1 4h-2q-7 -14 -29 -34l-38 -33h-98z" />
    <glyph glyph-name="Udieresis" unicode="&#xdc;" horiz-adv-x="589" 
d="M491 589h94l-70 -399q-19 -110 -84.5 -156t-169.5 -46t-160.5 57t-34.5 178l63 366h95l-66 -372q-13 -77 18 -114.5t97 -37.5q64 0 101 34t50 110zM211 713q0 26 17.5 43t41.5 17q26 0 43 -17t17 -43q0 -25 -17 -42t-43 -17q-24 0 -41.5 17t-17.5 42zM408 712
q0 26 17.5 43t41.5 17q25 0 42 -17t17 -43q0 -25 -17 -42t-42 -17q-24 0 -41.5 17t-17.5 42z" />
    <glyph glyph-name="Yacute" unicode="&#xdd;" horiz-adv-x="506" 
d="M179 589l62 -187q9 -30 15 -58t7 -41l1 -13h4q14 45 56 112l121 187h100l-242 -366l-39 -223h-94l38 223l-127 366h98zM362 653h-82l63 123h120z" />
    <glyph glyph-name="Thorn" unicode="&#xde;" horiz-adv-x="497" 
d="M203 406l-36 -209h79q137 0 137 127q0 42 -24.5 62t-76.5 20h-79zM132 0h-94l103 589h94l-19 -105h80q182 0 182 -153q0 -105 -63.5 -157.5t-168.5 -52.5h-92z" />
    <glyph glyph-name="germandbls" unicode="&#xdf;" horiz-adv-x="537" 
d="M20 -94l97 550q20 114 83 166.5t155 52.5q81 0 121.5 -39t40.5 -100q0 -71 -40.5 -110t-101.5 -47v-4q61 -8 92.5 -49.5t31.5 -107.5q0 -110 -57.5 -170t-146.5 -60q-98 0 -125 68l52 60q17 -58 76 -58q46 0 77.5 38.5t31.5 117.5q0 126 -121 126h-43l13 72h41
q60 0 95.5 28t35.5 82q0 82 -84 82q-52 0 -87 -33.5t-50 -117.5l-96 -550q-11 -65 -41.5 -89.5t-85.5 -24.5q-54 0 -85 25l20 69q27 -23 54 -23q20 0 31 10t16 36z" />
    <glyph glyph-name="agrave" unicode="&#xe0;" horiz-adv-x="534" 
d="M346 193l14 78q9 53 -12 92.5t-70 39.5q-65 0 -107 -62t-42 -155q0 -56 24 -90.5t69 -34.5q48 0 80.5 35.5t43.5 96.5zM485 462l-62 -351q-8 -45 26 -45q10 0 30 5l-13 -67q-24 -9 -54 -9q-84 0 -81 82q-38 -89 -138 -89q-70 0 -112.5 50t-42.5 139q0 122 63 209t162 87
q104 0 118 -89l26 78h78zM347 529h-79l-116 146h121z" />
    <glyph glyph-name="aacute" unicode="&#xe1;" horiz-adv-x="534" 
d="M346 193l14 78q9 53 -12 92.5t-70 39.5q-65 0 -107 -62t-42 -155q0 -56 24 -90.5t69 -34.5q48 0 80.5 35.5t43.5 96.5zM485 462l-62 -351q-8 -45 26 -45q10 0 30 5l-13 -67q-24 -9 -54 -9q-84 0 -81 82q-38 -89 -138 -89q-70 0 -112.5 50t-42.5 139q0 122 63 209t162 87
q104 0 118 -89l26 78h78zM332 529h-79l74 146h120z" />
    <glyph glyph-name="acircumflex" unicode="&#xe2;" horiz-adv-x="534" 
d="M346 193l14 78q9 53 -12 92.5t-70 39.5q-65 0 -107 -62t-42 -155q0 -56 24 -90.5t69 -34.5q48 0 80.5 35.5t43.5 96.5zM485 462l-62 -351q-8 -45 26 -45q10 0 30 5l-13 -67q-24 -9 -54 -9q-84 0 -81 82q-38 -89 -138 -89q-70 0 -112.5 50t-42.5 139q0 122 63 209t162 87
q104 0 118 -89l26 78h78zM291 675h53l99 -147h-89l-28 42q-7 10 -11 19.5t-5 14.5v4h-4q-7 -15 -30 -38l-42 -42h-94z" />
    <glyph glyph-name="atilde" unicode="&#xe3;" horiz-adv-x="534" 
d="M346 193l14 78q9 53 -12 92.5t-70 39.5q-65 0 -107 -62t-42 -155q0 -56 24 -90.5t69 -34.5q48 0 80.5 35.5t43.5 96.5zM485 462l-62 -351q-8 -45 26 -45q10 0 30 5l-13 -67q-24 -9 -54 -9q-84 0 -81 82q-38 -89 -138 -89q-70 0 -112.5 50t-42.5 139q0 122 63 209t162 87
q104 0 118 -89l26 78h78zM371 529q-9 0 -17 1t-12.5 2t-12.5 5t-10 4.5t-11 6.5t-10 6q-39 25 -56 25q-36 0 -39 -49h-54q-10 51 18 87.5t76 36.5q7 0 13 -0.5t10.5 -1.5t10.5 -3.5t9 -3.5t8.5 -4.5t7.5 -4.5t8.5 -5.5t8.5 -5.5q34 -23 51 -23q31 0 37 51h57q9 -54 -17 -89
t-76 -35z" />
    <glyph glyph-name="adieresis" unicode="&#xe4;" horiz-adv-x="534" 
d="M346 193l14 78q9 53 -12 92.5t-70 39.5q-65 0 -107 -62t-42 -155q0 -56 24 -90.5t69 -34.5q48 0 80.5 35.5t43.5 96.5zM485 462l-62 -351q-8 -45 26 -45q10 0 30 5l-13 -67q-24 -9 -54 -9q-84 0 -81 82q-38 -89 -138 -89q-70 0 -112.5 50t-42.5 139q0 122 63 209t162 87
q104 0 118 -89l26 78h78zM151 595q0 26 17.5 43t41.5 17q25 0 42 -17t17 -43q0 -25 -17 -42t-42 -17q-24 0 -41.5 17t-17.5 42zM347 594q0 26 17.5 43t41.5 17q25 0 42.5 -17t17.5 -43q0 -25 -17.5 -42t-42.5 -17q-24 0 -41.5 17t-17.5 42z" />
    <glyph glyph-name="aring" unicode="&#xe5;" horiz-adv-x="534" 
d="M346 193l14 78q9 53 -12 92.5t-70 39.5q-65 0 -107 -62t-42 -155q0 -56 24 -90.5t69 -34.5q48 0 80.5 35.5t43.5 96.5zM485 462l-62 -351q-8 -45 26 -45q10 0 30 5l-13 -67q-24 -9 -54 -9q-84 0 -81 82q-38 -89 -138 -89q-70 0 -112.5 50t-42.5 139q0 122 63 209t162 87
q104 0 118 -89l26 78h78zM214 610q0 44 30.5 75t78.5 31q41 0 65.5 -25t24.5 -63q0 -45 -30 -76t-77 -31q-44 0 -68 25t-24 64zM318 674q-23 0 -39 -17.5t-16 -41.5q0 -23 13 -36.5t36 -13.5t38.5 17t15.5 41q0 23 -13 37t-35 14z" />
    <glyph glyph-name="ae" unicode="&#xe6;" horiz-adv-x="739" 
d="M500 58q45 0 68.5 18.5t35.5 56.5l84 -21q-24 -68 -71.5 -96t-124.5 -28q-103 0 -152 76q-52 -76 -166 -76q-70 0 -106 31.5t-36 89.5q0 162 286 164q9 30 16 48q5 41 -14.5 61t-57.5 20q-79 0 -96 -75l-85 13q16 69 69.5 101t123.5 32q100 0 130 -54q58 54 136 54
q86 0 128.5 -47.5t42.5 -118.5q0 -57 -20 -98h-293q-7 -63 19 -107t83 -44zM316 122q-7 25 -7 63q0 16 1 23q-187 -2 -187 -93q0 -60 67 -60q83 0 126 67zM408 273h210q4 13 4 36q0 41 -21.5 67.5t-64.5 26.5q-49 0 -81.5 -37t-46.5 -93z" />
    <glyph glyph-name="ccedilla" unicode="&#xe7;" horiz-adv-x="450" 
d="M272 -124q0 -42 -30.5 -64.5t-76.5 -22.5q-61 0 -90 38l23 51q27 -36 63 -36q39 0 39 34q0 41 -64 42l29 77q-59 14 -93 63t-34 125q0 119 63.5 204.5t176.5 85.5q78 0 116 -40t38 -111l-86 -15q0 92 -78 92q-64 0 -101.5 -62.5t-37.5 -143.5q0 -66 26.5 -100.5
t73.5 -34.5q76 0 104 89l85 -17q-49 -142 -199 -142q-3 0 -7 0.5t-6 0.5l-12 -30q40 -8 59 -27.5t19 -55.5z" />
    <glyph glyph-name="egrave" unicode="&#xe8;" horiz-adv-x="468" 
d="M229 58q45 0 68.5 18.5t35.5 56.5l84 -21q-24 -68 -71.5 -96t-124.5 -28q-86 0 -134.5 53.5t-48.5 143.5q0 133 69 210.5t162 77.5q85 0 128 -47.5t43 -118.5q0 -49 -20 -95h-293q-7 -63 19 -108.5t83 -45.5zM137 277h209q5 13 5 32q0 41 -21.5 67.5t-64.5 26.5
q-49 0 -81.5 -35.5t-46.5 -90.5zM319 529h-79l-115 146h121z" />
    <glyph glyph-name="eacute" unicode="&#xe9;" horiz-adv-x="468" 
d="M229 58q45 0 68.5 18.5t35.5 56.5l84 -21q-24 -68 -71.5 -96t-124.5 -28q-86 0 -134.5 53.5t-48.5 143.5q0 133 69 210.5t162 77.5q85 0 128 -47.5t43 -118.5q0 -49 -20 -95h-293q-7 -63 19 -108.5t83 -45.5zM137 277h209q5 13 5 32q0 41 -21.5 67.5t-64.5 26.5
q-49 0 -81.5 -35.5t-46.5 -90.5zM304 529h-79l74 146h121z" />
    <glyph glyph-name="ecircumflex" unicode="&#xea;" horiz-adv-x="468" 
d="M229 58q45 0 68.5 18.5t35.5 56.5l84 -21q-24 -68 -71.5 -96t-124.5 -28q-86 0 -134.5 53.5t-48.5 143.5q0 133 69 210.5t162 77.5q85 0 128 -47.5t43 -118.5q0 -49 -20 -95h-293q-7 -63 19 -108.5t83 -45.5zM137 277h209q5 13 5 32q0 41 -21.5 67.5t-64.5 26.5
q-49 0 -81.5 -35.5t-46.5 -90.5zM263 675h53l100 -147h-90l-27 42q-7 10 -11 19.5t-4 14.5l-1 4h-5q-6 -15 -29 -38l-43 -42h-93z" />
    <glyph glyph-name="edieresis" unicode="&#xeb;" horiz-adv-x="468" 
d="M229 58q45 0 68.5 18.5t35.5 56.5l84 -21q-24 -68 -71.5 -96t-124.5 -28q-86 0 -134.5 53.5t-48.5 143.5q0 133 69 210.5t162 77.5q85 0 128 -47.5t43 -118.5q0 -49 -20 -95h-293q-7 -63 19 -108.5t83 -45.5zM137 277h209q5 13 5 32q0 41 -21.5 67.5t-64.5 26.5
q-49 0 -81.5 -35.5t-46.5 -90.5zM123 595q0 26 17.5 43t41.5 17q26 0 43 -17t17 -43q0 -25 -17 -42t-43 -17q-24 0 -41.5 17t-17.5 42zM319 594q0 26 17.5 43t41.5 17q26 0 43 -17t17 -43q0 -25 -17.5 -42t-42.5 -17q-24 0 -41.5 17.5t-17.5 41.5z" />
    <glyph glyph-name="igrave" unicode="&#xec;" horiz-adv-x="253" 
d="M220 529h-79l-115 146h121zM204 462l-62 -351q-8 -45 27 -45q9 0 29 5l-13 -67q-24 -9 -54 -9q-100 0 -81 107l63 360h91z" />
    <glyph glyph-name="iacute" unicode="&#xed;" horiz-adv-x="253" 
d="M205 529h-80l74 146h121zM204 462l-62 -351q-8 -45 27 -45q9 0 29 5l-13 -67q-24 -9 -54 -9q-100 0 -81 107l63 360h91z" />
    <glyph glyph-name="icircumflex" unicode="&#xee;" horiz-adv-x="253" 
d="M204 462l-62 -351q-8 -45 27 -45q9 0 29 5l-13 -67q-24 -9 -54 -9q-100 0 -81 107l63 360h91zM164 675h53l100 -147h-90l-27 42q-7 10 -11 19.5t-5 14.5v4h-5q-6 -15 -29 -38l-43 -42h-93z" />
    <glyph glyph-name="idieresis" unicode="&#xef;" horiz-adv-x="253" 
d="M24 595q0 26 17.5 43t41.5 17q26 0 43 -17t17 -43q0 -25 -17 -42t-43 -17q-24 0 -41.5 17t-17.5 42zM220 594q0 26 17.5 43t41.5 17q26 0 43 -17t17 -43q0 -25 -17.5 -42t-42.5 -17q-24 0 -41.5 17.5t-17.5 41.5zM204 462l-62 -351q-8 -45 27 -45q9 0 29 5l-13 -67
q-24 -9 -54 -9q-100 0 -81 107l63 360h91z" />
    <glyph glyph-name="eth" unicode="&#xf0;" horiz-adv-x="497" 
d="M132 489l-12 42l132 35q-61 42 -145 60l72 47q102 -26 164 -81l90 26l12 -44l-67 -18q81 -100 81 -268q0 -134 -62.5 -217t-175.5 -83q-83 0 -133 50.5t-50 143.5q0 117 62 198.5t162 81.5q81 0 106 -63h4q-21 80 -77 133zM268 390q-62 0 -100.5 -59.5t-38.5 -143.5
q0 -63 27 -96.5t74 -33.5q63 0 100.5 61t37.5 147q0 125 -100 125z" />
    <glyph glyph-name="ntilde" unicode="&#xf1;" horiz-adv-x="519" 
d="M456 318l-36 -207q-8 -45 27 -45q9 0 29 5l-13 -67q-24 -9 -54 -9q-100 0 -81 107l37 208q17 87 -60 87q-43 0 -81 -35t-51 -111l-44 -251h-91l81 462h79l-5 -94q49 105 149 105q54 0 86 -29t32 -82q0 -24 -4 -44zM375 529q-9 0 -17 1t-13 2.5t-12 4.5t-10 4.5t-11.5 6.5
t-10.5 6q-2 2 -8 6t-8 5t-6.5 4t-6.5 3.5t-6 2.5t-6.5 2.5t-6 1t-7.5 0.5q-36 0 -39 -49h-55q-10 51 18 87.5t76 36.5q17 0 32.5 -5t21 -8.5t22.5 -15.5q36 -23 52 -23q31 0 37 51h57q9 -54 -17 -89t-76 -35z" />
    <glyph glyph-name="ograve" unicode="&#xf2;" horiz-adv-x="500" 
d="M280 473q86 0 134 -53t48 -146q0 -121 -64.5 -203.5t-176.5 -82.5q-82 0 -132.5 51.5t-50.5 144.5q0 121 64.5 205t177.5 84zM269 399q-63 0 -101.5 -61t-38.5 -147q0 -64 27 -98.5t75 -34.5q63 0 100.5 62.5t37.5 149.5q0 62 -26 95.5t-74 33.5zM335 529h-80l-115 146
h121z" />
    <glyph glyph-name="oacute" unicode="&#xf3;" horiz-adv-x="500" 
d="M280 473q86 0 134 -53t48 -146q0 -121 -64.5 -203.5t-176.5 -82.5q-82 0 -132.5 51.5t-50.5 144.5q0 121 64.5 205t177.5 84zM269 399q-63 0 -101.5 -61t-38.5 -147q0 -64 27 -98.5t75 -34.5q63 0 100.5 62.5t37.5 149.5q0 62 -26 95.5t-74 33.5zM320 529h-80l74 146h121
z" />
    <glyph glyph-name="ocircumflex" unicode="&#xf4;" horiz-adv-x="500" 
d="M280 473q86 0 134 -53t48 -146q0 -121 -64.5 -203.5t-176.5 -82.5q-82 0 -132.5 51.5t-50.5 144.5q0 121 64.5 205t177.5 84zM269 399q-63 0 -101.5 -61t-38.5 -147q0 -64 27 -98.5t75 -34.5q63 0 100.5 62.5t37.5 149.5q0 62 -26 95.5t-74 33.5zM279 675h52l100 -147
h-90l-27 42q-7 10 -11 19.5t-5 14.5v4h-4q-7 -15 -30 -38l-42 -42h-94z" />
    <glyph glyph-name="otilde" unicode="&#xf5;" horiz-adv-x="500" 
d="M280 473q86 0 134 -53t48 -146q0 -121 -64.5 -203.5t-176.5 -82.5q-82 0 -132.5 51.5t-50.5 144.5q0 121 64.5 205t177.5 84zM269 399q-63 0 -101.5 -61t-38.5 -147q0 -64 27 -98.5t75 -34.5q63 0 100.5 62.5t37.5 149.5q0 62 -26 95.5t-74 33.5zM359 529q-9 0 -17 1
t-13 2.5t-12 4.5t-10 4.5t-11.5 6.5t-10.5 6q-37 25 -55 25q-36 0 -39 -49h-55q-10 51 18 87.5t76 36.5q17 0 32.5 -5t21 -8.5t22.5 -15.5q36 -23 52 -23q31 0 37 51h57q9 -54 -17 -89t-76 -35z" />
    <glyph glyph-name="odieresis" unicode="&#xf6;" horiz-adv-x="500" 
d="M280 473q86 0 134 -53t48 -146q0 -121 -64.5 -203.5t-176.5 -82.5q-82 0 -132.5 51.5t-50.5 144.5q0 121 64.5 205t177.5 84zM269 399q-63 0 -101.5 -61t-38.5 -147q0 -64 27 -98.5t75 -34.5q63 0 100.5 62.5t37.5 149.5q0 62 -26 95.5t-74 33.5zM138 595q0 26 17.5 43
t41.5 17q26 0 43 -17t17 -43q0 -25 -17 -42t-43 -17q-24 0 -41.5 17t-17.5 42zM335 594q0 26 17.5 43t41.5 17q25 0 42 -17t17 -43q0 -25 -17 -42t-42 -17q-24 0 -41.5 17t-17.5 42z" />
    <glyph glyph-name="divide" unicode="&#xf7;" horiz-adv-x="497" 
d="M448 221h-408l9 54h408zM160 74q0 19 13.5 32.5t32.5 13.5t33 -13.5t14 -32.5t-14 -32t-33 -13t-32.5 13t-13.5 32zM236 415q0 20 13.5 34t32.5 14t33 -14.5t14 -33.5q0 -18 -14 -31.5t-33 -13.5t-32.5 13.5t-13.5 31.5z" />
    <glyph glyph-name="oslash" unicode="&#xf8;" horiz-adv-x="500" 
d="M280 473q86 0 133 -53l55 52l41 -43l-64 -61q17 -42 17 -94q0 -121 -64.5 -203.5t-176.5 -82.5q-76 0 -124 43l-48 -45l-42 40l53 52q-22 46 -22 106q0 121 64.5 205t177.5 84zM269 399q-61 0 -99 -57.5t-40 -139.5q0 -32 4 -53l214 209q-27 41 -79 41zM231 58
q61 0 98 59t39 142v35l-210 -204q25 -32 73 -32z" />
    <glyph glyph-name="ugrave" unicode="&#xf9;" horiz-adv-x="517" 
d="M318 87q-40 -99 -146 -99q-73 0 -103 45.5t-16 128.5l52 300h91l-54 -311q-8 -46 8 -71t53 -25q43 0 79 34.5t47 94.5l48 278h91l-62 -351q-8 -45 27 -45q9 0 29 5l-13 -67q-24 -9 -54 -9q-46 0 -64 23t-13 69zM342 529h-79l-115 146h120z" />
    <glyph glyph-name="uacute" unicode="&#xfa;" horiz-adv-x="517" 
d="M318 87q-40 -99 -146 -99q-73 0 -103 45.5t-16 128.5l52 300h91l-54 -311q-8 -46 8 -71t53 -25q43 0 79 34.5t47 94.5l48 278h91l-62 -351q-8 -45 27 -45q9 0 29 5l-13 -67q-24 -9 -54 -9q-46 0 -64 23t-13 69zM327 529h-79l74 146h121z" />
    <glyph glyph-name="ucircumflex" unicode="&#xfb;" horiz-adv-x="517" 
d="M318 87q-40 -99 -146 -99q-73 0 -103 45.5t-16 128.5l52 300h91l-54 -311q-8 -46 8 -71t53 -25q43 0 79 34.5t47 94.5l48 278h91l-62 -351q-8 -45 27 -45q9 0 29 5l-13 -67q-24 -9 -54 -9q-46 0 -64 23t-13 69zM286 675h53l99 -147h-89l-27 42q-7 10 -11 19.5t-5 14.5
l-1 4h-4q-7 -15 -30 -38l-42 -42h-94z" />
    <glyph glyph-name="udieresis" unicode="&#xfc;" horiz-adv-x="517" 
d="M318 87q-40 -99 -146 -99q-73 0 -103 45.5t-16 128.5l52 300h91l-54 -311q-8 -46 8 -71t53 -25q43 0 79 34.5t47 94.5l48 278h91l-62 -351q-8 -45 27 -45q9 0 29 5l-13 -67q-24 -9 -54 -9q-46 0 -64 23t-13 69zM146 595q0 26 17.5 43t41.5 17q25 0 42 -17t17 -43
q0 -25 -17 -42t-42 -17q-24 0 -41.5 17t-17.5 42zM342 594q0 26 17.5 43t41.5 17q25 0 42.5 -17t17.5 -43q0 -25 -17.5 -42t-42.5 -17q-24 0 -41.5 17t-17.5 42z" />
    <glyph glyph-name="yacute" unicode="&#xfd;" horiz-adv-x="431" 
d="M138 462l29 -259q5 -40 7 -76t2 -52l-1 -16h4q14 59 58 144l132 259h96l-275 -515q-50 -95 -95 -126.5t-104 -31.5q-44 0 -75 18l22 70q27 -17 57 -17q36 0 64 26t59 87l-75 489h95zM283 529h-79l74 146h121z" />
    <glyph glyph-name="thorn" unicode="&#xfe;" horiz-adv-x="534" 
d="M175 261l-15 -84q-10 -47 16 -86t77 -39q67 0 107 65t40 160q0 58 -24 91t-68 33q-48 0 -85.5 -38.5t-47.5 -101.5zM142 74l-49 -277h-90l152 871h90l-52 -295q47 100 151 100q72 0 112 -49t40 -142q0 -127 -63 -210.5t-168 -83.5q-49 0 -82 24t-41 62z" />
    <glyph glyph-name="ydieresis" unicode="&#xff;" horiz-adv-x="431" 
d="M138 462l29 -259q5 -40 7 -76t2 -52l-1 -16h4q14 59 58 144l132 259h96l-275 -515q-50 -95 -95 -126.5t-104 -31.5q-44 0 -75 18l22 70q27 -17 57 -17q36 0 64 26t59 87l-75 489h95zM102 595q0 26 17.5 43t41.5 17q25 0 42.5 -17t17.5 -43q0 -25 -17.5 -42t-42.5 -17
q-24 0 -41.5 17t-17.5 42zM298 594q0 26 17.5 43t41.5 17q26 0 43 -17t17 -43q0 -25 -17.5 -42t-42.5 -17q-24 0 -41.5 17t-17.5 42z" />
    <glyph glyph-name="Amacron" unicode="&#x100;" horiz-adv-x="591" 
d="M432 0l-28 161h-241l-84 -161h-100l318 589h121l110 -589h-96zM499 674h-263l12 71h263zM272 370l-70 -133h188q-14 69 -24.5 141t-15 110t-3.5 38h-4q-22 -64 -71 -156z" />
    <glyph glyph-name="amacron" unicode="&#x101;" horiz-adv-x="534" 
d="M346 193l14 78q9 53 -12 92.5t-70 39.5q-65 0 -107 -62t-42 -155q0 -56 24 -90.5t69 -34.5q48 0 80.5 35.5t43.5 96.5zM485 462l-62 -351q-8 -45 26 -45q10 0 30 5l-13 -67q-24 -9 -54 -9q-84 0 -81 82q-38 -89 -138 -89q-70 0 -112.5 50t-42.5 139q0 122 63 209t162 87
q104 0 118 -89l26 78h78zM433 558h-262l13 73h262z" />
    <glyph glyph-name="Abreve" unicode="&#x102;" horiz-adv-x="591" 
d="M432 0l-28 161h-241l-84 -161h-100l318 589h121l110 -589h-96zM360 650q-64 0 -93 35t-18 96h71q-8 -65 53 -65q60 0 76 65h71q-11 -61 -53 -96t-107 -35zM272 370l-70 -133h188q-14 69 -24.5 141t-15 110t-3.5 38h-4q-22 -64 -71 -156z" />
    <glyph glyph-name="abreve" unicode="&#x103;" horiz-adv-x="534" 
d="M346 193l14 78q9 53 -12 92.5t-70 39.5q-65 0 -107 -62t-42 -155q0 -56 24 -90.5t69 -34.5q48 0 80.5 35.5t43.5 96.5zM485 462l-62 -351q-8 -45 26 -45q10 0 30 5l-13 -67q-24 -9 -54 -9q-84 0 -81 82q-38 -89 -138 -89q-70 0 -112.5 50t-42.5 139q0 122 63 209t162 87
q104 0 118 -89l26 78h78zM290 527q-65 0 -93.5 38.5t-17.5 102.5h71q-4 -37 6 -55.5t46 -18.5q35 0 52 18.5t26 55.5h71q-11 -64 -53.5 -102.5t-107.5 -38.5z" />
    <glyph glyph-name="Aogonek" unicode="&#x104;" horiz-adv-x="591" 
d="M257 -116q0 66 53 110t114 52l-20 115h-241l-84 -161h-100l318 589h121l110 -589h-45q-63 0 -106.5 -27.5t-43.5 -76.5q0 -21 12.5 -33.5t32.5 -12.5q40 0 64 39l29 -43q-35 -57 -109 -57q-50 0 -77.5 25t-27.5 70zM272 370l-70 -133h188q-14 69 -24.5 141t-15 110
t-3.5 38h-4q-22 -64 -71 -156z" />
    <glyph glyph-name="aogonek" unicode="&#x105;" horiz-adv-x="534" 
d="M244 -116q0 47 31 82t73 52q-19 27 -17 59q-19 -43 -56 -66t-82 -23q-70 0 -112.5 50t-42.5 139q0 122 63 209t162 87q104 0 118 -89l26 78h78l-62 -351q-8 -45 26 -45q10 0 30 5l-13 -67q-146 -21 -146 -108q0 -21 12.5 -33.5t32.5 -12.5q39 0 63 39l29 -43
q-34 -57 -109 -57q-49 0 -76.5 25t-27.5 70zM346 193l14 78q9 53 -12 92.5t-70 39.5q-65 0 -107 -62t-42 -155q0 -56 24 -90.5t69 -34.5q48 0 80.5 35.5t43.5 96.5z" />
    <glyph glyph-name="Cacute" unicode="&#x106;" horiz-adv-x="560" 
d="M439 156l75 -41q-70 -127 -230 -127q-108 0 -169 65.5t-61 174.5q0 171 87 272t215 101q168 0 200 -147l-94 -36q-8 51 -38 77.5t-76 26.5q-91 0 -144.5 -84t-53.5 -204q0 -78 37 -123t106 -45q49 0 83 19t63 71zM401 653h-82l62 123h120z" />
    <glyph glyph-name="cacute" unicode="&#x107;" horiz-adv-x="450" 
d="M333 147l85 -17q-49 -142 -199 -142q-82 0 -131.5 51.5t-49.5 143.5q0 119 63.5 204.5t176.5 85.5q78 0 116 -40t38 -111l-86 -15q0 92 -78 92q-64 0 -101.5 -62.5t-37.5 -143.5q0 -66 26.5 -100.5t73.5 -34.5q76 0 104 89zM321 529h-79l74 146h121z" />
    <glyph glyph-name="Ccircumflex" unicode="&#x108;" horiz-adv-x="560" 
d="M439 156l75 -41q-70 -127 -230 -127q-108 0 -169 65.5t-61 174.5q0 171 87 272t215 101q168 0 200 -147l-94 -36q-8 51 -38 77.5t-76 26.5q-91 0 -144.5 -84t-53.5 -204q0 -78 37 -123t106 -45q49 0 83 19t63 71zM352 782h56l102 -129h-95l-25 33q-7 9 -11 17.5t-5 12.5
l-1 4h-3q-6 -14 -29 -34l-37 -33h-99z" />
    <glyph glyph-name="ccircumflex" unicode="&#x109;" horiz-adv-x="450" 
d="M333 147l85 -17q-49 -142 -199 -142q-82 0 -131.5 51.5t-49.5 143.5q0 119 63.5 204.5t176.5 85.5q78 0 116 -40t38 -111l-86 -15q0 92 -78 92q-64 0 -101.5 -62.5t-37.5 -143.5q0 -66 26.5 -100.5t73.5 -34.5q76 0 104 89zM280 675h53l100 -147h-90l-27 42
q-7 10 -11 19.5t-5 14.5v4h-5q-6 -15 -29 -38l-43 -42h-93z" />
    <glyph glyph-name="Cdotaccent" unicode="&#x10a;" horiz-adv-x="560" 
d="M439 156l75 -41q-70 -127 -230 -127q-108 0 -169 65.5t-61 174.5q0 171 87 272t215 101q168 0 200 -147l-94 -36q-8 51 -38 77.5t-76 26.5q-91 0 -144.5 -84t-53.5 -204q0 -78 37 -123t106 -45q49 0 83 19t63 71zM313 727q0 26 17.5 43t42.5 17q27 0 45 -16.5t18 -43.5
q0 -26 -18 -43t-45 -17q-25 0 -42.5 17.5t-17.5 42.5z" />
    <glyph glyph-name="cdotaccent" unicode="&#x10b;" horiz-adv-x="450" 
d="M333 147l85 -17q-49 -142 -199 -142q-82 0 -131.5 51.5t-49.5 143.5q0 119 63.5 204.5t176.5 85.5q78 0 116 -40t38 -111l-86 -15q0 92 -78 92q-64 0 -101.5 -62.5t-37.5 -143.5q0 -66 26.5 -100.5t73.5 -34.5q76 0 104 89zM234 609q0 26 17.5 43t42.5 17q27 0 45 -17
t18 -43t-18 -43t-45 -17q-24 0 -42 17.5t-18 42.5z" />
    <glyph glyph-name="Ccaron" unicode="&#x10c;" horiz-adv-x="560" 
d="M439 156l75 -41q-70 -127 -230 -127q-108 0 -169 65.5t-61 174.5q0 171 87 272t215 101q168 0 200 -147l-94 -36q-8 51 -38 77.5t-76 26.5q-91 0 -144.5 -84t-53.5 -204q0 -78 37 -123t106 -45q49 0 83 19t63 71zM389 653h-55l-102 129h94l26 -33q7 -9 11 -17.5t5 -12.5
l1 -4h3q6 14 29 34l37 33h99z" />
    <glyph glyph-name="ccaron" unicode="&#x10d;" horiz-adv-x="450" 
d="M333 147l85 -17q-49 -142 -199 -142q-82 0 -131.5 51.5t-49.5 143.5q0 119 63.5 204.5t176.5 85.5q78 0 116 -40t38 -111l-86 -15q0 92 -78 92q-64 0 -101.5 -62.5t-37.5 -143.5q0 -66 26.5 -100.5t73.5 -34.5q76 0 104 89zM311 528h-53l-99 147h89l28 -41
q7 -10 11 -19.5t5 -14.5v-4h4q7 15 30 38l42 41h94z" />
    <glyph glyph-name="Dcaron" unicode="&#x10e;" horiz-adv-x="597" 
d="M146 77h86q100 0 163.5 69.5t63.5 209.5q0 156 -164 156h-73zM232 0h-194l103 589h169q124 0 186 -58t62 -167q0 -77 -18.5 -139.5t-49.5 -103.5t-73.5 -69t-88.5 -40t-96 -12zM350 653h-56l-102 129h95l25 -33q7 -9 11 -17.5t5 -12.5l1 -4h3q6 14 29 34l37 33h99z" />
    <glyph glyph-name="dcaron" unicode="&#x10f;" horiz-adv-x="532" 
d="M681 674l-53 -176h-65l16 176h102zM347 192l15 79q9 52 -12.5 91.5t-71.5 39.5q-66 0 -108 -62t-42 -155q0 -55 24 -89.5t69 -34.5q49 0 82 34.5t44 96.5zM522 668l-98 -557q-8 -45 27 -45q9 0 29 5l-13 -67q-24 -9 -54 -9q-83 0 -81 82q-32 -89 -139 -89
q-70 0 -112.5 50t-42.5 139q0 122 63 209t163 87q104 0 118 -89l50 284h90z" />
    <glyph glyph-name="Dcroat" unicode="&#x110;" horiz-adv-x="597" 
d="M232 0h-194l44 256h-65l14 78h65l45 255h169q124 0 186 -58t62 -167q0 -77 -18.5 -139.5t-49.5 -103.5t-73.5 -69t-88.5 -40t-96 -12zM146 77h86q100 0 163.5 69.5t63.5 209.5q0 156 -164 156h-73l-32 -178h123l-14 -78h-122z" />
    <glyph glyph-name="dcroat" unicode="&#x111;" horiz-adv-x="532" 
d="M522 668l-14 -74h75l-12 -65h-74l-73 -418q-8 -45 27 -45q9 0 29 5l-13 -67q-24 -9 -54 -9q-83 0 -81 82q-32 -89 -139 -89q-70 0 -112.5 50t-42.5 139q0 122 63 209t163 87q104 0 118 -89l25 145h-139l12 65h138l14 74h90zM347 192l15 79q9 52 -12.5 91.5t-71.5 39.5
q-66 0 -108 -62t-42 -155q0 -55 24 -89.5t69 -34.5q49 0 82 34.5t44 96.5z" />
    <glyph glyph-name="Emacron" unicode="&#x112;" horiz-adv-x="490" 
d="M414 80l-13 -80h-363l103 589h363l-14 -80h-269l-30 -174h237l-14 -80h-237l-31 -175h268zM457 674h-264l13 71h263z" />
    <glyph glyph-name="emacron" unicode="&#x113;" horiz-adv-x="468" 
d="M229 58q45 0 68.5 18.5t35.5 56.5l84 -21q-24 -68 -71.5 -96t-124.5 -28q-86 0 -134.5 53.5t-48.5 143.5q0 133 69 210.5t162 77.5q85 0 128 -47.5t43 -118.5q0 -49 -20 -95h-293q-7 -63 19 -108.5t83 -45.5zM137 277h209q5 13 5 32q0 41 -21.5 67.5t-64.5 26.5
q-49 0 -81.5 -35.5t-46.5 -90.5zM405 558h-262l14 73h261z" />
    <glyph glyph-name="Ebreve" unicode="&#x114;" horiz-adv-x="490" 
d="M414 80l-13 -80h-363l103 589h363l-14 -80h-269l-30 -174h237l-14 -80h-237l-31 -175h268zM318 650q-64 0 -93 35t-18 96h70q-3 -32 9 -48.5t44 -16.5q34 0 51 16t26 49h71q-11 -61 -53 -96t-107 -35z" />
    <glyph glyph-name="ebreve" unicode="&#x115;" horiz-adv-x="468" 
d="M229 58q45 0 68.5 18.5t35.5 56.5l84 -21q-24 -68 -71.5 -96t-124.5 -28q-86 0 -134.5 53.5t-48.5 143.5q0 133 69 210.5t162 77.5q85 0 128 -47.5t43 -118.5q0 -49 -20 -95h-293q-7 -63 19 -108.5t83 -45.5zM137 277h209q5 13 5 32q0 41 -21.5 67.5t-64.5 26.5
q-49 0 -81.5 -35.5t-46.5 -90.5zM262 527q-64 0 -93 38.5t-17 102.5h70q-3 -37 7 -55.5t45 -18.5t52.5 18.5t26.5 55.5h70q-11 -64 -53.5 -102.5t-107.5 -38.5z" />
    <glyph glyph-name="Edotaccent" unicode="&#x116;" horiz-adv-x="490" 
d="M414 80l-13 -80h-363l103 589h363l-14 -80h-269l-30 -174h237l-14 -80h-237l-31 -175h268zM268 727q0 26 17.5 43t42.5 17q27 0 44.5 -16.5t17.5 -43.5q0 -25 -18 -42.5t-44 -17.5q-25 0 -42.5 17.5t-17.5 42.5z" />
    <glyph glyph-name="edotaccent" unicode="&#x117;" horiz-adv-x="468" 
d="M229 58q45 0 68.5 18.5t35.5 56.5l84 -21q-24 -68 -71.5 -96t-124.5 -28q-86 0 -134.5 53.5t-48.5 143.5q0 133 69 210.5t162 77.5q85 0 128 -47.5t43 -118.5q0 -49 -20 -95h-293q-7 -63 19 -108.5t83 -45.5zM137 277h209q5 13 5 32q0 41 -21.5 67.5t-64.5 26.5
q-49 0 -81.5 -35.5t-46.5 -90.5zM217 609q0 26 17.5 43t42.5 17q27 0 45 -17t18 -43t-18 -43t-45 -17q-24 0 -42 17.5t-18 42.5z" />
    <glyph glyph-name="Eogonek" unicode="&#x118;" horiz-adv-x="490" 
d="M168 -116q0 36 21 68t54 48h-205l103 589h363l-14 -80h-269l-30 -174h237l-14 -80h-237l-31 -175h268l-13 -80h-26q-55 0 -93 -29t-38 -75q0 -21 12.5 -33.5t32.5 -12.5q40 0 63 39l29 -43q-34 -57 -108 -57q-50 0 -77.5 25t-27.5 70z" />
    <glyph glyph-name="eogonek" unicode="&#x119;" horiz-adv-x="468" 
d="M144 -116q0 62 51 106q-74 8 -115.5 60t-41.5 135q0 133 69 210.5t162 77.5q85 0 128 -47.5t43 -118.5q0 -49 -20 -95h-293q-7 -63 19 -108.5t83 -45.5q45 0 68.5 18.5t35.5 56.5l84 -21q-17 -49 -47.5 -73.5t-81.5 -43.5q-32 -13 -50 -39t-18 -59q0 -22 12.5 -34.5
t32.5 -12.5q40 0 63 39l29 -43q-34 -57 -108 -57q-50 0 -77.5 25t-27.5 70zM137 277h209q5 13 5 32q0 41 -21.5 67.5t-64.5 26.5q-49 0 -81.5 -35.5t-46.5 -90.5z" />
    <glyph glyph-name="Ecaron" unicode="&#x11a;" horiz-adv-x="490" 
d="M414 80l-13 -80h-363l103 589h363l-14 -80h-269l-30 -174h237l-14 -80h-237l-31 -175h268zM344 653h-56l-102 129h95l25 -33q7 -9 11 -17.5t5 -12.5l1 -4h3q6 14 29 34l37 33h99z" />
    <glyph glyph-name="ecaron" unicode="&#x11b;" horiz-adv-x="468" 
d="M229 58q45 0 68.5 18.5t35.5 56.5l84 -21q-24 -68 -71.5 -96t-124.5 -28q-86 0 -134.5 53.5t-48.5 143.5q0 133 69 210.5t162 77.5q85 0 128 -47.5t43 -118.5q0 -49 -20 -95h-293q-7 -63 19 -108.5t83 -45.5zM137 277h209q5 13 5 32q0 41 -21.5 67.5t-64.5 26.5
q-49 0 -81.5 -35.5t-46.5 -90.5zM294 528h-53l-99 147h89l28 -41q7 -10 11 -19.5t4 -14.5l1 -4h4q7 15 30 38l42 41h94z" />
    <glyph glyph-name="Gcircumflex" unicode="&#x11c;" horiz-adv-x="603" 
d="M322 304h234l-53 -304h-67l-4 74q-40 -86 -151 -86q-106 0 -166.5 65.5t-60.5 174.5q0 171 87.5 272t215.5 101q166 0 200 -147l-94 -36q-8 51 -38.5 77.5t-75.5 26.5q-91 0 -145 -84t-54 -203q0 -79 37 -124.5t109 -45.5q127 0 149 126l6 33h-143zM355 782h56l101 -129
h-94l-25 33q-7 9 -11.5 17.5t-5.5 12.5l-1 4h-2q-7 -14 -29 -34l-38 -33h-98z" />
    <glyph glyph-name="gcircumflex" unicode="&#x11d;" horiz-adv-x="509" 
d="M348 192l14 79q9 53 -12 92.5t-71 39.5q-67 0 -108.5 -61.5t-41.5 -154.5q0 -57 23.5 -90.5t69.5 -33.5q50 0 82.5 33.5t43.5 95.5zM486 462l-83 -474q-19 -102 -74.5 -150.5t-159.5 -48.5q-163 0 -186 124l77 35q4 -40 34.5 -65.5t78.5 -25.5q61 0 93.5 33.5t45.5 99.5
l17 87q-37 -86 -134 -86q-71 0 -114 50t-43 139q0 121 63.5 207t164.5 86t117 -89l25 78h78zM287 675h52l100 -147h-89l-28 42q-7 10 -11 19.5t-5 14.5v4h-4q-7 -15 -30 -38l-42 -42h-94z" />
    <glyph glyph-name="Gbreve" unicode="&#x11e;" horiz-adv-x="603" 
d="M322 304h234l-53 -304h-67l-4 74q-40 -86 -151 -86q-106 0 -166.5 65.5t-60.5 174.5q0 171 87.5 272t215.5 101q166 0 200 -147l-94 -36q-8 51 -38.5 77.5t-75.5 26.5q-91 0 -145 -84t-54 -203q0 -79 37 -124.5t109 -45.5q127 0 149 126l6 33h-143zM366 650q-64 0 -93 35
t-18 96h70q-3 -32 9 -48.5t44 -16.5q34 0 51 16t26 49h70q-11 -61 -52.5 -96t-106.5 -35z" />
    <glyph glyph-name="gbreve" unicode="&#x11f;" horiz-adv-x="509" 
d="M348 192l14 79q9 53 -12 92.5t-71 39.5q-67 0 -108.5 -61.5t-41.5 -154.5q0 -57 23.5 -90.5t69.5 -33.5q50 0 82.5 33.5t43.5 95.5zM486 462l-83 -474q-19 -102 -74.5 -150.5t-159.5 -48.5q-163 0 -186 124l77 35q4 -40 34.5 -65.5t78.5 -25.5q61 0 93.5 33.5t45.5 99.5
l17 87q-37 -86 -134 -86q-71 0 -114 50t-43 139q0 121 63.5 207t164.5 86t117 -89l25 78h78zM286 527q-65 0 -93.5 38.5t-17.5 102.5h71q-4 -37 6 -55.5t46 -18.5q35 0 52 18.5t26 55.5h71q-11 -64 -53.5 -102.5t-107.5 -38.5z" />
    <glyph glyph-name="Gdotaccent" unicode="&#x120;" horiz-adv-x="603" 
d="M322 304h234l-53 -304h-67l-4 74q-40 -86 -151 -86q-106 0 -166.5 65.5t-60.5 174.5q0 171 87.5 272t215.5 101q166 0 200 -147l-94 -36q-8 51 -38.5 77.5t-75.5 26.5q-91 0 -145 -84t-54 -203q0 -79 37 -124.5t109 -45.5q127 0 149 126l6 33h-143zM316 727q0 26 17.5 43
t42.5 17q27 0 44.5 -16.5t17.5 -43.5q0 -25 -18 -42.5t-44 -17.5q-25 0 -42.5 17.5t-17.5 42.5z" />
    <glyph glyph-name="gdotaccent" unicode="&#x121;" horiz-adv-x="509" 
d="M348 192l14 79q9 53 -12 92.5t-71 39.5q-67 0 -108.5 -61.5t-41.5 -154.5q0 -57 23.5 -90.5t69.5 -33.5q50 0 82.5 33.5t43.5 95.5zM486 462l-83 -474q-19 -102 -74.5 -150.5t-159.5 -48.5q-163 0 -186 124l77 35q4 -40 34.5 -65.5t78.5 -25.5q61 0 93.5 33.5t45.5 99.5
l17 87q-37 -86 -134 -86q-71 0 -114 50t-43 139q0 121 63.5 207t164.5 86t117 -89l25 78h78zM241 609q0 26 17.5 43t42.5 17q26 0 44 -17t18 -43q0 -25 -18 -42.5t-44 -17.5q-25 0 -42.5 17.5t-17.5 42.5z" />
    <glyph glyph-name="Gcommaaccent" unicode="&#x122;" horiz-adv-x="603" 
d="M322 304h234l-53 -304h-67l-4 74q-40 -86 -151 -86q-106 0 -166.5 65.5t-60.5 174.5q0 171 87.5 272t215.5 101q166 0 200 -147l-94 -36q-8 51 -38.5 77.5t-75.5 26.5q-91 0 -145 -84t-54 -203q0 -79 37 -124.5t109 -45.5q127 0 149 126l6 33h-143zM300 -139
q0 -53 -37 -81t-98 -28v37q73 4 73 43q-26 -5 -43 8t-17 39q0 25 16 39t41 14q28 0 46.5 -18.5t18.5 -52.5z" />
    <glyph glyph-name="gcommaaccent" unicode="&#x123;" horiz-adv-x="509" 
d="M348 192l14 79q9 53 -12 92.5t-71 39.5q-67 0 -108.5 -61.5t-41.5 -154.5q0 -57 23.5 -90.5t69.5 -33.5q50 0 82.5 33.5t43.5 95.5zM486 462l-83 -474q-19 -102 -74.5 -150.5t-159.5 -48.5q-163 0 -186 124l77 35q4 -40 34.5 -65.5t78.5 -25.5q61 0 93.5 33.5t45.5 99.5
l17 87q-37 -86 -134 -86q-71 0 -114 50t-43 139q0 121 63.5 207t164.5 86t117 -89l25 78h78zM251 603q0 53 37 80.5t98 27.5v-37q-73 -2 -73 -42q26 5 43 -8.5t17 -38.5t-16 -39t-41 -14q-28 0 -46.5 18.5t-18.5 52.5z" />
    <glyph glyph-name="Hcircumflex" unicode="&#x124;" 
d="M132 0h-94l103 589h94l-43 -250h278l44 250h94l-103 -589h-94l45 259h-279zM372 782h56l101 -129h-94l-26 33q-6 9 -10.5 17.5t-5.5 12.5l-1 4h-2q-7 -14 -29 -34l-38 -33h-98z" />
    <glyph glyph-name="hcircumflex" unicode="&#x125;" horiz-adv-x="519" 
d="M456 318l-36 -207q-8 -45 27 -45q9 0 29 5l-13 -67q-24 -9 -54 -9q-100 0 -81 107l37 208q17 87 -60 87q-43 0 -81 -35t-51 -111l-44 -251h-91l116 668h93l-54 -300q49 105 149 105q54 0 86 -29t32 -82q0 -24 -4 -44zM202 826h56l102 -129h-95l-25 33q-7 9 -11 17.5
t-5 12.5l-1 4h-3q-6 -14 -29 -34l-37 -33h-99z" />
    <glyph glyph-name="Hbar" unicode="&#x126;" horiz-adv-x="646" 
d="M141 0h-94l72 419h-85l14 75h85l17 95h94l-17 -95h279l16 95h95l-17 -95h92l-14 -75h-92l-72 -419h-95l45 257h-278zM200 335h278l14 84h-278z" />
    <glyph glyph-name="hbar" unicode="&#x127;" horiz-adv-x="519" 
d="M54 529l12 65h75l13 74h93l-14 -74h136l-12 -65h-135l-29 -161q49 105 149 105q54 0 86 -29t32 -82q0 -24 -4 -44l-36 -207q-8 -45 27 -45q9 0 29 5l-13 -67q-24 -9 -54 -9q-100 0 -81 107l37 208q17 87 -60 87q-43 0 -81 -35t-51 -111l-44 -251h-91l92 529h-76z" />
    <glyph glyph-name="Itilde" unicode="&#x128;" horiz-adv-x="249" 
d="M141 589h94l-103 -589h-94zM261 653q-10 0 -18.5 1t-17 4.5t-12 5t-14 8t-11.5 7.5q-39 25 -56 25q-36 0 -39 -49h-54q-10 51 18 87t76 36q17 0 32 -5t21 -8.5t23 -14.5q36 -23 52 -23q32 0 36 51h58q8 -55 -18 -90t-76 -35z" />
    <glyph glyph-name="itilde" unicode="&#x129;" horiz-adv-x="253" 
d="M244 529q-9 0 -17 1t-13 2.5t-12 4.5t-10 4.5t-11.5 6.5t-10.5 6q-37 25 -55 25q-36 0 -39 -49h-55q-10 51 18 87.5t76 36.5q17 0 32.5 -5t21 -8.5t22.5 -15.5q36 -23 52 -23q31 0 37 51h57q9 -54 -17 -89t-76 -35zM204 462l-62 -351q-8 -45 27 -45q9 0 29 5l-13 -67
q-24 -9 -54 -9q-100 0 -81 107l63 360h91z" />
    <glyph glyph-name="Imacron" unicode="&#x12a;" horiz-adv-x="249" 
d="M141 589h94l-103 -589h-94zM336 674h-264l12 71h264z" />
    <glyph glyph-name="imacron" unicode="&#x12b;" horiz-adv-x="253" 
d="M306 558h-262l14 73h261zM204 462l-62 -351q-8 -45 27 -45q9 0 29 5l-13 -67q-24 -9 -54 -9q-100 0 -81 107l63 360h91z" />
    <glyph glyph-name="Ibreve" unicode="&#x12c;" horiz-adv-x="249" 
d="M141 589h94l-103 -589h-94zM196 650q-64 0 -93 35t-18 96h71q-8 -65 53 -65q33 0 50 16t26 49h71q-11 -61 -53 -96t-107 -35z" />
    <glyph glyph-name="ibreve" unicode="&#x12d;" horiz-adv-x="253" 
d="M163 527q-65 0 -93.5 38.5t-17.5 102.5h70q-3 -37 7 -55.5t45 -18.5q36 0 53 18.5t26 55.5h70q-11 -64 -53.5 -102.5t-106.5 -38.5zM204 462l-62 -351q-8 -45 27 -45q9 0 29 5l-13 -67q-24 -9 -54 -9q-100 0 -81 107l63 360h91z" />
    <glyph glyph-name="Iogonek" unicode="&#x12e;" horiz-adv-x="249" 
d="M-81 -116q0 54 37 93.5t88 57.5l97 554h94l-103 -589q-56 0 -96.5 -29t-40.5 -75q0 -21 12.5 -33.5t32.5 -12.5q40 0 63 39l29 -43q-34 -57 -108 -57q-50 0 -77.5 25t-27.5 70z" />
    <glyph glyph-name="iogonek" unicode="&#x12f;" horiz-adv-x="253" 
d="M-23 -112q0 43 24 78t63 52q-25 28 -14 84l63 360h91l-62 -351q-8 -45 27 -45q9 0 29 5l-13 -67q-131 -11 -131 -108q0 -21 12 -33.5t32 -12.5q40 0 64 39l29 -43q-34 -57 -109 -57q-50 0 -77.5 25.5t-27.5 73.5zM121 610q0 26 17.5 43t42.5 17q26 0 44 -17t18 -43
q0 -25 -18 -42.5t-44 -17.5q-25 0 -42.5 17.5t-17.5 42.5z" />
    <glyph glyph-name="Idotaccent" unicode="&#x130;" horiz-adv-x="249" 
d="M141 589h94l-103 -589h-94zM147 727q0 26 17.5 43t42.5 17q27 0 44.5 -16.5t17.5 -43.5q0 -25 -18 -42.5t-44 -17.5q-25 0 -42.5 17.5t-17.5 42.5z" />
    <glyph glyph-name="dotlessi" unicode="&#x131;" horiz-adv-x="253" 
d="M204 462l-62 -351q-8 -45 27 -45q9 0 29 5l-13 -67q-24 -9 -54 -9q-100 0 -81 107l63 360h91z" />
    <glyph glyph-name="IJ" unicode="&#x132;" horiz-adv-x="691" 
d="M141 589h94l-103 -589h-94zM587 589h95l-77 -431q-16 -92 -62 -131t-133 -39q-69 0 -111 32.5t-56 88.5l76 50q21 -96 96 -96q48 0 68 24.5t30 85.5z" />
    <glyph glyph-name="ij" unicode="&#x133;" horiz-adv-x="479" 
d="M204 462l-62 -351q-8 -45 27 -45q9 0 29 5l-13 -67q-24 -9 -54 -9q-100 0 -81 107l63 360h91zM121 610q0 26 17.5 43t42.5 17q26 0 44 -17t18 -43q0 -25 -18 -42.5t-44 -17.5q-25 0 -42.5 17.5t-17.5 42.5zM457 462l-93 -530q-13 -79 -53.5 -111t-106.5 -32q-57 0 -94 26
l29 70q31 -25 67 -25q26 0 42.5 17t24.5 60l93 525h91zM374 610q0 26 17.5 43t42.5 17q26 0 44 -17t18 -43q0 -25 -18 -42.5t-44 -17.5q-25 0 -42.5 17.5t-17.5 42.5z" />
    <glyph glyph-name="Jcircumflex" unicode="&#x134;" horiz-adv-x="430" 
d="M327 589h94l-76 -431q-16 -92 -62 -131t-134 -39q-68 0 -110 32.5t-56 88.5l76 50q21 -96 96 -96q48 0 68 24.5t30 85.5zM371 782h56l102 -129h-95l-25 33q-7 9 -11 17.5t-5 12.5l-1 4h-3q-6 -14 -29 -34l-37 -33h-99z" />
    <glyph glyph-name="jcircumflex" unicode="&#x135;" horiz-adv-x="226" 
d="M204 462l-93 -530q-13 -79 -53.5 -111t-106.5 -32q-57 0 -94 26l29 70q31 -25 67 -25q26 0 42.5 17t24.5 60l93 525h91zM164 675h52l100 -147h-89l-28 42q-7 10 -11 19.5t-4 14.5l-1 4h-4q-7 -15 -30 -38l-42 -42h-94z" />
    <glyph glyph-name="Kcommaaccent" unicode="&#x136;" horiz-adv-x="525" 
d="M476 0h-106l-140 259h-53l-45 -259h-94l103 589h94l-43 -251h43l216 251h112l-254 -287zM257 -139q0 -54 -37 -81.5t-98 -27.5v37q74 4 74 43q-27 -5 -43.5 8t-16.5 39q0 25 15.5 39t41.5 14q28 0 46 -18.5t18 -52.5z" />
    <glyph glyph-name="kcommaaccent" unicode="&#x137;" horiz-adv-x="459" 
d="M279 49l-83 172h-28l-39 -221h-91l117 668h92l-67 -380h22l164 174h111l-202 -205l75 -156q14 -27 32.5 -32.5t50.5 4.5l-14 -69q-27 -9 -57 -9q-57 0 -83 54zM245 -139q0 -54 -37 -81.5t-98 -27.5v37q74 4 74 43q-27 -5 -43.5 8t-16.5 39q0 25 15.5 39t41.5 14
q28 0 46 -18.5t18 -52.5z" />
    <glyph glyph-name="kgreenlandic" unicode="&#x138;" horiz-adv-x="459" 
d="M280 49l-84 172h-28l-39 -221h-91l81 462h92l-31 -174h22l164 174h111l-202 -205l75 -156q14 -27 32.5 -32.5t50.5 4.5l-14 -69q-27 -9 -57 -9q-57 0 -82 54z" />
    <glyph glyph-name="Lacute" unicode="&#x139;" horiz-adv-x="461" 
d="M141 589h94l-89 -509h261l-13 -80h-356zM237 653h-82l62 123h120z" />
    <glyph glyph-name="lacute" unicode="&#x13a;" horiz-adv-x="250" 
d="M240 668l-98 -557q-8 -45 27 -45q9 0 29 5l-13 -67q-24 -9 -54 -9q-100 0 -81 107l99 566h91zM240 697h-82l62 122h120z" />
    <glyph glyph-name="Lcommaaccent" unicode="&#x13b;" horiz-adv-x="461" 
d="M141 589h94l-89 -509h261l-13 -80h-356zM267 -139q0 -53 -37 -81t-98 -28v37q73 4 73 43q-26 -5 -43 8t-17 39q0 25 16 39t41 14q28 0 46.5 -18.5t18.5 -52.5z" />
    <glyph glyph-name="lcommaaccent" unicode="&#x13c;" horiz-adv-x="250" 
d="M240 668l-98 -557q-8 -45 27 -45q9 0 29 5l-13 -67q-24 -9 -54 -9q-100 0 -81 107l99 566h91zM146 -139q0 -54 -37 -81.5t-98 -27.5v37q74 4 74 43q-26 -5 -43 8t-17 39q0 25 16 39t41 14q28 0 46 -18.5t18 -52.5z" />
    <glyph glyph-name="Lcaron" unicode="&#x13d;" horiz-adv-x="461" 
d="M141 589h94l-89 -509h261l-13 -80h-356zM406 668l-52 -180h-66l16 180h102z" />
    <glyph glyph-name="lcaron" unicode="&#x13e;" horiz-adv-x="250" 
d="M399 674l-53 -176h-65l16 176h102zM240 668l-98 -557q-8 -45 27 -45q9 0 29 5l-13 -67q-24 -9 -54 -9q-100 0 -81 107l99 566h91z" />
    <glyph glyph-name="Ldot" unicode="&#x13f;" horiz-adv-x="461" 
d="M141 589h94l-89 -509h261l-13 -80h-356zM318 307q0 29 19.5 49t48.5 20t48.5 -20t19.5 -49q0 -28 -19.5 -47.5t-48.5 -19.5t-48.5 19.5t-19.5 47.5z" />
    <glyph glyph-name="ldot" unicode="&#x140;" horiz-adv-x="339" 
d="M240 668l-98 -557q-8 -45 27 -45q9 0 29 5l-13 -67q-24 -9 -54 -9q-100 0 -81 107l99 566h91zM235 317q0 29 19 48.5t48 19.5t49 -19.5t20 -48.5t-20 -48.5t-49 -19.5q-28 0 -47.5 19.5t-19.5 48.5z" />
    <glyph glyph-name="Lslash" unicode="&#x141;" horiz-adv-x="467" 
d="M147 589h94l-42 -242l145 51l-13 -75l-145 -50l-35 -193h262l-14 -80h-355l42 240l-68 -23l13 72l68 23z" />
    <glyph glyph-name="lslash" unicode="&#x142;" horiz-adv-x="258" 
d="M243 668l-43 -246l80 38l-14 -78l-80 -37l-41 -234q-8 -45 26 -45q10 0 30 5l-13 -67q-24 -9 -54 -9q-100 0 -81 107l34 197l-64 -30l13 75l64 31l52 293h91z" />
    <glyph glyph-name="Nacute" unicode="&#x143;" 
d="M235 589l154 -331q13 -29 24.5 -60t16.5 -48l5 -16h4q7 68 20 142l55 313h94l-103 -589h-91l-158 328q-13 28 -25 59.5t-17 48.5l-6 17h-4q-4 -65 -17 -141l-55 -312h-94l103 589h94zM410 653h-83l63 123h120z" />
    <glyph glyph-name="nacute" unicode="&#x144;" horiz-adv-x="519" 
d="M456 318l-36 -207q-8 -45 27 -45q9 0 29 5l-13 -67q-24 -9 -54 -9q-100 0 -81 107l37 208q17 87 -60 87q-43 0 -81 -35t-51 -111l-44 -251h-91l81 462h79l-5 -94q49 105 149 105q54 0 86 -29t32 -82q0 -24 -4 -44zM336 529h-80l74 146h121z" />
    <glyph glyph-name="Ncommaaccent" unicode="&#x145;" 
d="M235 589l154 -331q13 -29 24.5 -60t16.5 -48l5 -16h4q7 68 20 142l55 313h94l-103 -589h-91l-158 328q-13 28 -25 59.5t-17 48.5l-6 17h-4q-4 -65 -17 -141l-55 -312h-94l103 589h94zM305 -139q0 -54 -37 -81.5t-98 -27.5v37q74 4 74 43q-27 -5 -43.5 8t-16.5 39
q0 25 15.5 39t41.5 14q28 0 46 -18.5t18 -52.5z" />
    <glyph glyph-name="ncommaaccent" unicode="&#x146;" horiz-adv-x="519" 
d="M456 318l-36 -207q-8 -45 27 -45q9 0 29 5l-13 -67q-24 -9 -54 -9q-100 0 -81 107l37 208q17 87 -60 87q-43 0 -81 -35t-51 -111l-44 -251h-91l81 462h79l-5 -94q49 105 149 105q54 0 86 -29t32 -82q0 -24 -4 -44zM254 -139q0 -54 -37 -81.5t-98 -27.5v37q74 4 74 43
q-27 -5 -43.5 8t-16.5 39q0 25 15.5 39t41.5 14q27 0 45.5 -18.5t18.5 -52.5z" />
    <glyph glyph-name="Ncaron" unicode="&#x147;" 
d="M235 589l154 -331q13 -29 24.5 -60t16.5 -48l5 -16h4q7 68 20 142l55 313h94l-103 -589h-91l-158 328q-13 28 -25 59.5t-17 48.5l-6 17h-4q-4 -65 -17 -141l-55 -312h-94l103 589h94zM398 653h-56l-101 129h94l25 -33q7 -9 11.5 -17.5t5.5 -12.5l1 -4h2q7 14 29 34l38 33
h98z" />
    <glyph glyph-name="ncaron" unicode="&#x148;" horiz-adv-x="519" 
d="M456 318l-36 -207q-8 -45 27 -45q9 0 29 5l-13 -67q-24 -9 -54 -9q-100 0 -81 107l37 208q17 87 -60 87q-43 0 -81 -35t-51 -111l-44 -251h-91l81 462h79l-5 -94q49 105 149 105q54 0 86 -29t32 -82q0 -24 -4 -44zM326 528h-53l-99 147h89l28 -41q7 -10 11 -19.5t4 -14.5
l1 -4h4q7 15 30 38l42 41h94z" />
    <glyph glyph-name="Eng" unicode="&#x14a;" 
d="M608 589l-110 -630q-16 -91 -63.5 -130.5t-135.5 -39.5q-108 0 -157 78l65 67q33 -68 97 -68q49 0 70.5 26.5t32.5 87.5l4 25l-155 323q-13 28 -25 59.5t-17 48.5l-6 17h-4q-4 -65 -17 -141l-55 -312h-94l103 589h94l154 -331q13 -29 24.5 -60t16.5 -48l5 -16h4
q7 68 20 142l55 313h94z" />
    <glyph glyph-name="eng" unicode="&#x14b;" horiz-adv-x="504" 
d="M456 318l-67 -386q-14 -79 -53.5 -111t-105.5 -32q-57 0 -94 26l28 70q33 -25 68 -25q26 0 42.5 17t24.5 60l66 373q17 87 -60 87q-43 0 -81 -35t-51 -111l-44 -251h-91l81 462h79l-5 -94q49 105 149 105q54 0 86 -29t32 -82q0 -24 -4 -44z" />
    <glyph glyph-name="Omacron" unicode="&#x14c;" 
d="M284 -12q-108 0 -169 65.5t-61 174.5q0 171 87 272t215 101q109 0 170 -66t61 -175q0 -171 -87.5 -271.5t-215.5 -100.5zM348 521q-91 0 -144.5 -83.5t-53.5 -202.5q0 -79 37 -124t106 -45q90 0 143.5 84t53.5 203q0 75 -35.5 121.5t-106.5 46.5zM510 674h-264l12 71h264
z" />
    <glyph glyph-name="omacron" unicode="&#x14d;" horiz-adv-x="500" 
d="M280 473q86 0 134 -53t48 -146q0 -121 -64.5 -203.5t-176.5 -82.5q-82 0 -132.5 51.5t-50.5 144.5q0 121 64.5 205t177.5 84zM269 399q-63 0 -101.5 -61t-38.5 -147q0 -64 27 -98.5t75 -34.5q63 0 100.5 62.5t37.5 149.5q0 62 -26 95.5t-74 33.5zM420 558h-261l13 73h262
z" />
    <glyph glyph-name="Obreve" unicode="&#x14e;" 
d="M284 -12q-108 0 -169 65.5t-61 174.5q0 171 87 272t215 101q109 0 170 -66t61 -175q0 -171 -87.5 -271.5t-215.5 -100.5zM348 521q-91 0 -144.5 -83.5t-53.5 -202.5q0 -79 37 -124t106 -45q90 0 143.5 84t53.5 203q0 75 -35.5 121.5t-106.5 46.5zM370 650q-64 0 -93 35
t-18 96h71q-8 -65 53 -65q33 0 50 16t26 49h71q-11 -61 -53 -96t-107 -35z" />
    <glyph glyph-name="obreve" unicode="&#x14f;" horiz-adv-x="500" 
d="M280 473q86 0 134 -53t48 -146q0 -121 -64.5 -203.5t-176.5 -82.5q-82 0 -132.5 51.5t-50.5 144.5q0 121 64.5 205t177.5 84zM269 399q-63 0 -101.5 -61t-38.5 -147q0 -64 27 -98.5t75 -34.5q63 0 100.5 62.5t37.5 149.5q0 62 -26 95.5t-74 33.5zM278 527
q-65 0 -93.5 38.5t-17.5 102.5h70q-3 -37 7 -55.5t45 -18.5q36 0 53 18.5t26 55.5h70q-11 -64 -53.5 -102.5t-106.5 -38.5z" />
    <glyph glyph-name="Ohungarumlaut" unicode="&#x150;" 
d="M284 -12q-108 0 -169 65.5t-61 174.5q0 171 87 272t215 101q109 0 170 -66t61 -175q0 -171 -87.5 -271.5t-215.5 -100.5zM348 521q-91 0 -144.5 -83.5t-53.5 -202.5q0 -79 37 -124t106 -45q90 0 143.5 84t53.5 203q0 75 -35.5 121.5t-106.5 46.5zM327 653h-67l62 123h109
zM477 653h-71l74 123h113z" />
    <glyph glyph-name="ohungarumlaut" unicode="&#x151;" horiz-adv-x="500" 
d="M280 473q86 0 134 -53t48 -146q0 -121 -64.5 -203.5t-176.5 -82.5q-82 0 -132.5 51.5t-50.5 144.5q0 121 64.5 205t177.5 84zM269 399q-63 0 -101.5 -61t-38.5 -147q0 -64 27 -98.5t75 -34.5q63 0 100.5 62.5t37.5 149.5q0 62 -26 95.5t-74 33.5zM250 529h-67l62 146h109
zM400 529h-71l74 146h113z" />
    <glyph glyph-name="OE" unicode="&#x152;" horiz-adv-x="841" 
d="M284 -12q-108 0 -169 65.5t-61 174.5q0 171 87 272t215 101q45 0 83 -12h416l-15 -80h-296q40 -55 42 -138v-36h193l-14 -80h-189q-21 -108 -86 -175h275l-13 -80h-386q-39 -12 -82 -12zM348 521q-91 0 -144.5 -83.5t-53.5 -202.5q0 -79 37 -124t106 -45q90 0 143.5 84
t53.5 203q0 75 -35.5 121.5t-106.5 46.5z" />
    <glyph glyph-name="oe" unicode="&#x153;" horiz-adv-x="798" 
d="M556 58q44 0 68 18.5t37 56.5l83 -21q-23 -67 -71.5 -95.5t-123.5 -28.5q-53 0 -95 25.5t-59 65.5q-61 -91 -174 -91q-82 0 -132.5 51.5t-50.5 144.5q0 121 64.5 205t177.5 84q53 0 92 -24.5t58 -66.5q28 43 72.5 67t94.5 24q85 0 127.5 -47.5t42.5 -118.5q0 -52 -20 -95
h-290q-6 -63 18.5 -108.5t80.5 -45.5zM269 399q-63 0 -101.5 -61t-38.5 -147q0 -64 27 -98.5t75 -34.5q63 0 100.5 62.5t37.5 149.5q0 62 -26 95.5t-74 33.5zM467 277h207q4 13 4 32q0 41 -21.5 67.5t-64.5 26.5q-46 0 -77.5 -34.5t-47.5 -91.5z" />
    <glyph glyph-name="Racute" unicode="&#x154;" horiz-adv-x="547" 
d="M489 0h-101q-15 17 -22 55l-17 102q-8 49 -29 65.5t-69 16.5h-77l-42 -239h-94l103 589h202q93 0 133 -35.5t40 -107.5q0 -80 -49 -124t-112 -47v-4q41 -6 60.5 -26.5t27.5 -66.5l21 -116q6 -36 25 -62zM222 512l-34 -196h106q125 0 125 116q0 41 -21.5 60.5t-70.5 19.5
h-105zM366 653h-83l63 123h120z" />
    <glyph glyph-name="racute" unicode="&#x155;" horiz-adv-x="346" 
d="M367 471l-23 -107q-54 15 -106.5 -13.5t-63.5 -92.5l-45 -258h-91l81 462h79l-8 -109q25 59 74 93t103 25zM283 529h-79l74 146h121z" />
    <glyph glyph-name="Rcommaaccent" unicode="&#x156;" horiz-adv-x="547" 
d="M489 0h-101q-15 17 -22 55l-17 102q-8 49 -29 65.5t-69 16.5h-77l-42 -239h-94l103 589h202q93 0 133 -35.5t40 -107.5q0 -80 -49 -124t-112 -47v-4q41 -6 60.5 -26.5t27.5 -66.5l21 -116q6 -36 25 -62zM222 512l-34 -196h106q125 0 125 116q0 41 -21.5 60.5t-70.5 19.5
h-105zM285 -139q0 -54 -37 -81.5t-98 -27.5v37q74 4 74 43q-27 -5 -43.5 8t-16.5 39q0 25 15.5 39t41.5 14q28 0 46 -18.5t18 -52.5z" />
    <glyph glyph-name="rcommaaccent" unicode="&#x157;" horiz-adv-x="346" 
d="M367 471l-23 -107q-54 15 -106.5 -13.5t-63.5 -92.5l-45 -258h-91l81 462h79l-8 -109q25 59 74 93t103 25zM131 -139q0 -54 -37 -81.5t-98 -27.5v37q74 4 74 43q-27 -5 -43.5 8t-16.5 39q0 25 15.5 39t41.5 14q27 0 45.5 -18.5t18.5 -52.5z" />
    <glyph glyph-name="Rcaron" unicode="&#x158;" horiz-adv-x="547" 
d="M489 0h-101q-15 17 -22 55l-17 102q-8 49 -29 65.5t-69 16.5h-77l-42 -239h-94l103 589h202q93 0 133 -35.5t40 -107.5q0 -80 -49 -124t-112 -47v-4q41 -6 60.5 -26.5t27.5 -66.5l21 -116q6 -36 25 -62zM222 512l-34 -196h106q125 0 125 116q0 41 -21.5 60.5t-70.5 19.5
h-105zM354 653h-56l-101 129h94l25 -33q7 -9 11.5 -17.5t5.5 -12.5l1 -4h2q7 14 29 34l38 33h98z" />
    <glyph glyph-name="rcaron" unicode="&#x159;" horiz-adv-x="346" 
d="M367 471l-23 -107q-54 15 -106.5 -13.5t-63.5 -92.5l-45 -258h-91l81 462h79l-8 -109q25 59 74 93t103 25zM273 528h-53l-99 147h89l27 -41q7 -10 11 -19.5t5 -14.5l1 -4h4q7 15 30 38l42 41h94z" />
    <glyph glyph-name="Sacute" unicode="&#x15a;" horiz-adv-x="489" 
d="M18 143l85 21q-1 -53 28.5 -79.5t83.5 -26.5t84 24t30 72q0 41 -22 64.5t-80 45.5q-69 24 -103.5 59.5t-34.5 102.5q0 62 33.5 103.5t76.5 56.5t92 15q90 0 136.5 -37t47.5 -120l-90 -15q1 48 -25 73.5t-76 25.5q-48 0 -77.5 -24t-29.5 -66q0 -39 22 -56.5t83 -41.5
q73 -29 106.5 -67t33.5 -106q0 -91 -61 -135t-156 -44q-184 0 -187 155zM345 653h-83l63 123h120z" />
    <glyph glyph-name="sacute" unicode="&#x15b;" horiz-adv-x="409" 
d="M16 122l80 20q0 -45 23.5 -67.5t63.5 -22.5q80 0 80 65q0 31 -17.5 49.5t-63.5 34.5q-57 20 -84 51.5t-27 81.5q0 67 46.5 103t119.5 36q147 0 147 -123l-82 -13q0 71 -72 71q-34 0 -54.5 -16.5t-20.5 -46.5q0 -25 17 -41.5t69 -36.5q60 -24 84.5 -56.5t24.5 -85.5
q0 -69 -46 -103t-124 -34q-77 0 -120 35t-44 99zM288 529h-79l73 146h121z" />
    <glyph glyph-name="Scircumflex" unicode="&#x15c;" horiz-adv-x="489" 
d="M18 143l85 21q-1 -53 28.5 -79.5t83.5 -26.5t84 24t30 72q0 41 -22 64.5t-80 45.5q-69 24 -103.5 59.5t-34.5 102.5q0 62 33.5 103.5t76.5 56.5t92 15q90 0 136.5 -37t47.5 -120l-90 -15q1 48 -25 73.5t-76 25.5q-48 0 -77.5 -24t-29.5 -66q0 -39 22 -56.5t83 -41.5
q73 -29 106.5 -67t33.5 -106q0 -91 -61 -135t-156 -44q-184 0 -187 155zM296 782h56l101 -129h-94l-26 33q-7 9 -11 17.5t-5 12.5l-1 4h-3q-6 -14 -28 -34l-38 -33h-99z" />
    <glyph glyph-name="scircumflex" unicode="&#x15d;" horiz-adv-x="409" 
d="M16 122l80 20q0 -45 23.5 -67.5t63.5 -22.5q80 0 80 65q0 31 -17.5 49.5t-63.5 34.5q-57 20 -84 51.5t-27 81.5q0 67 46.5 103t119.5 36q147 0 147 -123l-82 -13q0 71 -72 71q-34 0 -54.5 -16.5t-20.5 -46.5q0 -25 17 -41.5t69 -36.5q60 -24 84.5 -56.5t24.5 -85.5
q0 -69 -46 -103t-124 -34q-77 0 -120 35t-44 99zM247 675h52l100 -147h-89l-28 42q-7 10 -11 19.5t-5 14.5v4h-4q-7 -15 -30 -38l-42 -42h-94z" />
    <glyph glyph-name="Scedilla" unicode="&#x15e;" horiz-adv-x="489" 
d="M273 -124q0 -42 -30.5 -64.5t-76.5 -22.5q-62 0 -90 38l24 51q26 -36 62 -36q39 0 39 34q0 41 -64 42l28 72q-144 16 -147 153l85 21q-1 -53 28.5 -79.5t83.5 -26.5t84 24t30 72q0 41 -22 64.5t-80 45.5q-69 24 -103.5 59.5t-34.5 102.5q0 62 33.5 103.5t76.5 56.5t92 15
q90 0 136.5 -37t47.5 -120l-90 -15q1 48 -25 73.5t-76 25.5q-48 0 -77.5 -24t-29.5 -66q0 -39 22 -56.5t83 -41.5q73 -29 106.5 -67t33.5 -106q0 -90 -60.5 -134t-154.5 -45l-12 -29q40 -8 59 -27.5t19 -55.5z" />
    <glyph glyph-name="scedilla" unicode="&#x15f;" horiz-adv-x="409" 
d="M238 -124q0 -42 -30.5 -64.5t-76.5 -22.5q-61 0 -90 38l24 51q25 -36 62 -36q39 0 39 34q0 41 -64 42l28 74q-111 22 -114 130l80 20q0 -45 23.5 -67.5t63.5 -22.5q80 0 80 65q0 31 -17.5 49.5t-63.5 34.5q-57 20 -84 51.5t-27 81.5q0 67 46.5 103t119.5 36
q147 0 147 -123l-82 -13q0 71 -72 71q-33 0 -54 -16.5t-21 -46.5q0 -25 17 -41.5t69 -36.5q60 -24 84.5 -56.5t24.5 -85.5q0 -66 -42.5 -100t-116.5 -36h-19l-12 -30q40 -8 59 -27.5t19 -55.5z" />
    <glyph glyph-name="Scaron" unicode="&#x160;" horiz-adv-x="489" 
d="M18 143l85 21q-1 -53 28.5 -79.5t83.5 -26.5t84 24t30 72q0 41 -22 64.5t-80 45.5q-69 24 -103.5 59.5t-34.5 102.5q0 62 33.5 103.5t76.5 56.5t92 15q90 0 136.5 -37t47.5 -120l-90 -15q1 48 -25 73.5t-76 25.5q-48 0 -77.5 -24t-29.5 -66q0 -39 22 -56.5t83 -41.5
q73 -29 106.5 -67t33.5 -106q0 -91 -61 -135t-156 -44q-184 0 -187 155zM333 653h-56l-101 129h94l25 -33q7 -9 11.5 -17.5t5.5 -12.5l1 -4h2q7 14 29 34l38 33h98z" />
    <glyph glyph-name="scaron" unicode="&#x161;" horiz-adv-x="409" 
d="M16 122l80 20q0 -45 23.5 -67.5t63.5 -22.5q80 0 80 65q0 31 -17.5 49.5t-63.5 34.5q-57 20 -84 51.5t-27 81.5q0 67 46.5 103t119.5 36q147 0 147 -123l-82 -13q0 71 -72 71q-34 0 -54.5 -16.5t-20.5 -46.5q0 -25 17 -41.5t69 -36.5q60 -24 84.5 -56.5t24.5 -85.5
q0 -69 -46 -103t-124 -34q-77 0 -120 35t-44 99zM277 528h-52l-100 147h90l27 -41q7 -10 11 -19.5t5 -14.5v-4h4q7 15 30 38l42 41h94z" />
    <glyph glyph-name="Tcommaaccent" unicode="&#x162;" horiz-adv-x="481" 
d="M245 0h-94l88 509h-171l14 80h439l-15 -80h-172zM244 -139q0 -54 -37 -81.5t-98 -27.5v37q74 4 74 43q-27 -5 -43.5 8t-16.5 39q0 25 15.5 39t41.5 14q28 0 46 -18.5t18 -52.5z" />
    <glyph glyph-name="tcommaaccent" unicode="&#x163;" horiz-adv-x="316" 
d="M263 88v-76q-42 -24 -99 -24q-135 0 -108 148l44 254h-64l13 72h65l17 97l92 12l-19 -109h121l-13 -72h-120l-46 -260q-12 -65 39 -65q36 0 78 23zM183 -139q0 -54 -37 -81.5t-98 -27.5v37q74 4 74 43q-27 -5 -43.5 8t-16.5 39q0 25 15.5 39t41.5 14q27 0 45.5 -18.5
t18.5 -52.5z" />
    <glyph glyph-name="Tcaron" unicode="&#x164;" horiz-adv-x="481" 
d="M245 0h-94l88 509h-171l14 80h439l-15 -80h-172zM336 653h-56l-101 129h94l25 -33q7 -9 11.5 -17.5t5.5 -12.5l1 -4h2q7 14 29 34l38 33h98z" />
    <glyph glyph-name="tcaron" unicode="&#x165;" horiz-adv-x="316" 
d="M263 88v-76q-42 -24 -99 -24q-135 0 -108 148l44 254h-64l13 72h65l17 97l92 12l-19 -109h121l-13 -72h-120l-46 -260q-12 -65 39 -65q36 0 78 23zM374 676l-52 -179h-65l15 179h102z" />
    <glyph glyph-name="Tbar" unicode="&#x166;" horiz-adv-x="481" 
d="M245 0h-94l44 253h-108l13 76h108l31 180h-171l14 80h439l-15 -80h-172l-32 -180h116l-13 -76h-116z" />
    <glyph glyph-name="tbar" unicode="&#x167;" horiz-adv-x="342" 
d="M27 236l13 69h61l16 85h-65l13 72h66l17 97l92 12l-19 -109h121l-13 -72h-120l-16 -85h123l-13 -69h-122l-19 -106q-11 -65 39 -65q36 0 79 23v-76q-42 -24 -99 -24q-136 0 -109 148l18 100h-63z" />
    <glyph glyph-name="Utilde" unicode="&#x168;" horiz-adv-x="589" 
d="M491 589h94l-70 -399q-19 -110 -84.5 -156t-169.5 -46t-160.5 57t-34.5 178l63 366h95l-66 -372q-13 -77 18 -114.5t97 -37.5q64 0 101 34t50 110zM426 653q-9 0 -17 1t-13.5 2.5t-12.5 5l-10 5t-10.5 6t-10.5 6.5q-2 2 -8 6t-8 5t-6.5 4t-6.5 3.5t-6 2.5t-6.5 2.5t-6 1
t-7.5 0.5q-36 0 -39 -49h-55q-10 51 18 87t76 36q35 0 76 -28q36 -23 52 -23q32 0 36 51h58q9 -55 -17 -90t-76 -35z" />
    <glyph glyph-name="utilde" unicode="&#x169;" horiz-adv-x="517" 
d="M318 87q-40 -99 -146 -99q-73 0 -103 45.5t-16 128.5l52 300h91l-54 -311q-8 -46 8 -71t53 -25q43 0 79 34.5t47 94.5l48 278h91l-62 -351q-8 -45 27 -45q9 0 29 5l-13 -67q-24 -9 -54 -9q-46 0 -64 23t-13 69zM366 529q-9 0 -17 1t-12.5 2t-12.5 5t-10 4.5t-11 6.5
t-10 6q-39 25 -56 25q-36 0 -39 -49h-54q-10 51 18 87.5t76 36.5q7 0 13 -0.5t10.5 -1.5t10.5 -3.5t9 -3.5t8.5 -4.5t7.5 -4.5t8.5 -5.5t8.5 -5.5q36 -23 52 -23q32 0 36 51h58q8 -54 -18 -89t-76 -35z" />
    <glyph glyph-name="Umacron" unicode="&#x16a;" horiz-adv-x="589" 
d="M491 589h94l-70 -399q-19 -110 -84.5 -156t-169.5 -46t-160.5 57t-34.5 178l63 366h95l-66 -372q-13 -77 18 -114.5t97 -37.5q64 0 101 34t50 110zM500 674h-263l12 71h264z" />
    <glyph glyph-name="umacron" unicode="&#x16b;" horiz-adv-x="517" 
d="M318 87q-40 -99 -146 -99q-73 0 -103 45.5t-16 128.5l52 300h91l-54 -311q-8 -46 8 -71t53 -25q43 0 79 34.5t47 94.5l48 278h91l-62 -351q-8 -45 27 -45q9 0 29 5l-13 -67q-24 -9 -54 -9q-46 0 -64 23t-13 69zM428 558h-262l13 73h262z" />
    <glyph glyph-name="Ubreve" unicode="&#x16c;" horiz-adv-x="589" 
d="M491 589h94l-70 -399q-19 -110 -84.5 -156t-169.5 -46t-160.5 57t-34.5 178l63 366h95l-66 -372q-13 -77 18 -114.5t97 -37.5q64 0 101 34t50 110zM360 650q-64 0 -93 35t-18 96h71q-3 -33 8.5 -49t44.5 -16q60 0 77 65h70q-11 -61 -53 -96t-107 -35z" />
    <glyph glyph-name="ubreve" unicode="&#x16d;" horiz-adv-x="517" 
d="M318 87q-40 -99 -146 -99q-73 0 -103 45.5t-16 128.5l52 300h91l-54 -311q-8 -46 8 -71t53 -25q43 0 79 34.5t47 94.5l48 278h91l-62 -351q-8 -45 27 -45q9 0 29 5l-13 -67q-24 -9 -54 -9q-46 0 -64 23t-13 69zM285 527q-65 0 -93.5 38.5t-17.5 102.5h71q-4 -37 6 -55.5
t46 -18.5q35 0 52 18.5t26 55.5h71q-11 -64 -53.5 -102.5t-107.5 -38.5z" />
    <glyph glyph-name="Uring" unicode="&#x16e;" horiz-adv-x="589" 
d="M491 589h94l-70 -399q-19 -110 -84.5 -156t-169.5 -46t-160.5 57t-34.5 178l63 366h95l-66 -372q-13 -77 18 -114.5t97 -37.5q64 0 101 34t50 110zM279 725q0 44 30.5 75t78.5 31q41 0 65.5 -25t24.5 -63q0 -45 -30 -76t-77 -31q-44 0 -68 25t-24 64zM383 788
q-23 0 -39 -17t-16 -41q0 -23 13 -37t36 -14t38.5 17.5t15.5 41.5q0 23 -13 36.5t-35 13.5z" />
    <glyph glyph-name="uring" unicode="&#x16f;" horiz-adv-x="517" 
d="M318 87q-40 -99 -146 -99q-73 0 -103 45.5t-16 128.5l52 300h91l-54 -311q-8 -46 8 -71t53 -25q43 0 79 34.5t47 94.5l48 278h91l-62 -351q-8 -45 27 -45q9 0 29 5l-13 -67q-24 -9 -54 -9q-46 0 -64 23t-13 69zM209 610q0 45 30 75.5t78 30.5q41 0 66 -25t25 -63
q0 -45 -30 -76t-77 -31q-44 0 -68 25t-24 64zM313 674q-23 0 -39 -17.5t-16 -41.5q0 -23 13 -36.5t35 -13.5q23 0 38.5 17t15.5 41q0 23 -12.5 37t-34.5 14z" />
    <glyph glyph-name="Uhungarumlaut" unicode="&#x170;" horiz-adv-x="589" 
d="M491 589h94l-70 -399q-19 -110 -84.5 -156t-169.5 -46t-160.5 57t-34.5 178l63 366h95l-66 -372q-13 -77 18 -114.5t97 -37.5q64 0 101 34t50 110zM318 653h-67l61 123h109zM468 653h-71l74 123h112z" />
    <glyph glyph-name="uhungarumlaut" unicode="&#x171;" horiz-adv-x="517" 
d="M318 87q-40 -99 -146 -99q-73 0 -103 45.5t-16 128.5l52 300h91l-54 -311q-8 -46 8 -71t53 -25q43 0 79 34.5t47 94.5l48 278h91l-62 -351q-8 -45 27 -45q9 0 29 5l-13 -67q-24 -9 -54 -9q-46 0 -64 23t-13 69zM258 529h-67l61 146h109zM408 529h-71l74 146h112z" />
    <glyph glyph-name="Uogonek" unicode="&#x172;" horiz-adv-x="590" 
d="M152 -116q0 63 51 109q-78 15 -116.5 71t-20.5 159l64 366h94l-65 -372q-14 -77 17 -114.5t97 -37.5q65 0 102 33.5t50 110.5l66 380h95l-71 -399q-17 -101 -73.5 -147.5t-146.5 -53.5q-67 -31 -67 -93q0 -21 12.5 -33.5t32.5 -12.5q39 0 63 39l29 -43q-34 -57 -109 -57
q-49 0 -76.5 25t-27.5 70z" />
    <glyph glyph-name="uogonek" unicode="&#x173;" horiz-adv-x="517" 
d="M468 462l-62 -351q-8 -45 27 -45q9 0 29 5l-13 -67q-146 -21 -146 -108q0 -21 12.5 -33.5t32.5 -12.5q40 0 64 39l29 -43q-35 -57 -109 -57q-50 0 -77.5 25t-27.5 70q0 46 31.5 81.5t74.5 52.5q-22 20 -15 69q-40 -99 -146 -99q-73 0 -103 45.5t-16 128.5l52 300h91
l-54 -311q-8 -46 8 -71t53 -25q43 0 79 34.5t47 94.5l48 278h91z" />
    <glyph glyph-name="Wcircumflex" unicode="&#x174;" horiz-adv-x="833" 
d="M527 589l31 -369q4 -41 5 -80.5t1 -59.5l-1 -19h4q17 67 53 158l148 370h98l-246 -589h-131l-30 347q-3 46 -3 81t2 55l2 20h-4q-14 -65 -53 -156l-149 -347h-129l-29 589h93l15 -367l1 -161h4q14 69 54 160l158 368h106zM467 782h56l102 -129h-95l-25 33q-7 9 -11 17.5
t-5 12.5l-1 4h-3q-6 -14 -29 -34l-37 -33h-99z" />
    <glyph glyph-name="wcircumflex" unicode="&#x175;" horiz-adv-x="676" 
d="M419 462l22 -242q4 -41 5 -80t0 -58l-2 -18h4q12 62 52 156l105 242h95l-207 -462h-108l-25 219q-4 39 -4.5 75.5t0.5 53.5l1 17h-4q-15 -57 -54 -146l-95 -219h-108l-48 462h93l20 -242q4 -41 5 -80t0 -58l-1 -18h4q14 65 54 157l108 241h88zM371 675h53l99 -147h-89
l-27 42q-7 10 -11 19.5t-5 14.5l-1 4h-4q-7 -15 -30 -38l-42 -42h-94z" />
    <glyph glyph-name="Ycircumflex" unicode="&#x176;" horiz-adv-x="506" 
d="M179 589l62 -187q9 -30 15 -58t7 -41l1 -13h4q14 45 56 112l121 187h100l-242 -366l-39 -223h-94l38 223l-127 366h98zM313 782h56l101 -129h-94l-26 33q-7 9 -11 17.5t-5 12.5l-1 4h-3q-6 -14 -28 -34l-38 -33h-99z" />
    <glyph glyph-name="ycircumflex" unicode="&#x177;" horiz-adv-x="431" 
d="M138 462l29 -259q5 -40 7 -76t2 -52l-1 -16h4q14 59 58 144l132 259h96l-275 -515q-50 -95 -95 -126.5t-104 -31.5q-44 0 -75 18l22 70q27 -17 57 -17q36 0 64 26t59 87l-75 489h95zM242 675h53l99 -147h-89l-27 42q-7 10 -11 19.5t-5 14.5l-1 4h-4q-7 -15 -30 -38
l-42 -42h-94z" />
    <glyph glyph-name="Ydieresis" unicode="&#x178;" horiz-adv-x="506" 
d="M179 589l62 -187q9 -30 15 -58t7 -41l1 -13h4q14 45 56 112l121 187h100l-242 -366l-39 -223h-94l38 223l-127 366h98zM175 713q0 26 17.5 43t41.5 17q25 0 42 -17t17 -43q0 -25 -17 -42t-42 -17q-24 0 -41.5 17t-17.5 42zM371 712q0 26 17.5 43t41.5 17q25 0 42.5 -17
t17.5 -43q0 -25 -17.5 -42t-42.5 -17q-24 0 -41.5 17t-17.5 42z" />
    <glyph glyph-name="Zacute" unicode="&#x179;" horiz-adv-x="517" 
d="M11 55l325 385q21 24 40 42t28 24l9 5v4q-34 -6 -94 -6h-217l15 80h415l-12 -62l-322 -378q-21 -24 -40 -42t-28 -23l-9 -6v-4q34 6 94 6h230l-13 -80h-431zM365 653h-82l62 123h120z" />
    <glyph glyph-name="zacute" unicode="&#x17a;" horiz-adv-x="425" 
d="M4 49l234 268q21 24 40 42t27 24l8 6v4q-32 -7 -92 -7h-140l13 76h338l-10 -59l-233 -260q-22 -24 -41 -41.5t-28 -23.5l-8 -6v-4q34 6 94 6h152l-12 -74h-352zM289 529h-80l74 146h121z" />
    <glyph glyph-name="Zdotaccent" unicode="&#x17b;" horiz-adv-x="517" 
d="M11 55l325 385q21 24 40 42t28 24l9 5v4q-34 -6 -94 -6h-217l15 80h415l-12 -62l-322 -378q-21 -24 -40 -42t-28 -23l-9 -6v-4q34 6 94 6h230l-13 -80h-431zM276 727q0 26 17.5 43t42.5 17q27 0 45 -16.5t18 -43.5q0 -26 -18 -43t-45 -17q-25 0 -42.5 17.5t-17.5 42.5z
" />
    <glyph glyph-name="zdotaccent" unicode="&#x17c;" horiz-adv-x="425" 
d="M4 49l234 268q21 24 40 42t27 24l8 6v4q-32 -7 -92 -7h-140l13 76h338l-10 -59l-233 -260q-22 -24 -41 -41.5t-28 -23.5l-8 -6v-4q34 6 94 6h152l-12 -74h-352zM202 609q0 26 17.5 43t42.5 17q26 0 44 -17t18 -43q0 -25 -18 -42.5t-44 -17.5q-25 0 -42.5 17.5t-17.5 42.5
z" />
    <glyph glyph-name="Zcaron" unicode="&#x17d;" horiz-adv-x="517" 
d="M11 55l325 385q21 24 40 42t28 24l9 5v4q-34 -6 -94 -6h-217l15 80h415l-12 -62l-322 -378q-21 -24 -40 -42t-28 -23l-9 -6v-4q34 6 94 6h230l-13 -80h-431zM352 653h-56l-101 129h94l26 -33q7 -9 11 -17.5t5 -12.5l1 -4h3q6 14 28 34l38 33h99z" />
    <glyph glyph-name="zcaron" unicode="&#x17e;" horiz-adv-x="425" 
d="M4 49l234 268q21 24 40 42t27 24l8 6v4q-32 -7 -92 -7h-140l13 76h338l-10 -59l-233 -260q-22 -24 -41 -41.5t-28 -23.5l-8 -6v-4q34 6 94 6h152l-12 -74h-352zM278 528h-52l-100 147h89l28 -41q7 -10 11 -19.5t4 -14.5l1 -4h4q7 15 30 38l42 41h94z" />
    <glyph glyph-name="Schwa" unicode="&#x18f;" horiz-adv-x="589" 
d="M310 521q-104 0 -145 -100l-80 23q56 157 236 157q110 0 171.5 -67.5t61.5 -181.5q0 -168 -85.5 -266t-202.5 -98q-107 0 -159.5 60t-52.5 150q0 65 25 119h380q7 86 -31.5 145t-117.5 59zM447 245h-296q-8 -19 -8 -53q0 -55 31 -92t90 -37q66 0 115 50t68 132z" />
    <glyph glyph-name="florin" unicode="&#x192;" horiz-adv-x="412" 
d="M18 -121l79 288h-68l20 76h68l28 97q40 153 180 153q39 0 71 -14t47 -39l-58 -68q-26 44 -70 44q-31 0 -49.5 -19t-30.5 -59l-28 -95h118l-20 -76h-118l-79 -288h-90z" />
    <glyph glyph-name="Khook" unicode="&#x198;" horiz-adv-x="525" 
d="M309 302l167 -302h-106l-140 259h-53l-45 -259h-94l103 589h94l-43 -251h43l90 147q35 60 68 88t82 28q68 0 90 -62l-56 -59q-13 32 -40 32q-17 0 -30.5 -13.5t-35.5 -48.5z" />
    <glyph glyph-name="khook" unicode="&#x199;" horiz-adv-x="459" 
d="M221 521l-41 -233h22l164 174h111l-202 -205l75 -156q14 -27 32.5 -32.5t50.5 4.5l-14 -69q-27 -9 -57 -9q-57 0 -82 54l-84 172h-28l-39 -221h-91l91 521q27 154 168 154q57 0 109 -28l-34 -75q-38 27 -73 27t-53 -17.5t-25 -60.5z" />
    <glyph glyph-name="Ezh" unicode="&#x1b7;" horiz-adv-x="499" 
d="M285 509h-198l14 80h400l-11 -62l-244 -265l-1 -5q87 -2 131.5 -53.5t44.5 -129.5q0 -119 -74 -186.5t-178 -67.5q-96 0 -148.5 47.5t-52.5 134.5l77 27q0 -70 33.5 -104.5t91.5 -34.5q70 0 115.5 46.5t45.5 133.5q0 62 -46.5 98.5t-142.5 35.5l12 66l148 170
q21 24 40 41.5t28 23.5l9 6v4q-34 -6 -94 -6z" />
    <glyph glyph-name="Acaron" unicode="&#x1cd;" horiz-adv-x="591" 
d="M432 0l-28 161h-241l-84 -161h-100l318 589h121l110 -589h-96zM386 653h-56l-101 129h94l26 -33q6 -9 10.5 -17.5t5.5 -12.5l1 -4h2q-7 -1 28 33q21 20 39 34h98zM272 370l-70 -133h188q-14 69 -24.5 141t-15 110t-3.5 38h-4q-22 -64 -71 -156z" />
    <glyph glyph-name="acaron" unicode="&#x1ce;" horiz-adv-x="534" 
d="M346 193l14 78q9 53 -12 92.5t-70 39.5q-65 0 -107 -62t-42 -155q0 -56 24 -90.5t69 -34.5q48 0 80.5 35.5t43.5 96.5zM485 462l-62 -351q-8 -45 26 -45q10 0 30 5l-13 -67q-24 -9 -54 -9q-84 0 -81 82q-38 -89 -138 -89q-70 0 -112.5 50t-42.5 139q0 122 63 209t162 87
q104 0 118 -89l26 78h78zM322 528h-53l-100 147h90l27 -41q7 -10 11 -19.5t5 -14.5v-4h5q6 15 29 38l43 41h93z" />
    <glyph glyph-name="Icaron" unicode="&#x1cf;" horiz-adv-x="249" 
d="M141 589h94l-103 -589h-94zM223 653h-56l-102 129h95l25 -33q7 -9 11 -17.5t5 -12.5l1 -4h3q6 14 29 34l37 33h99z" />
    <glyph glyph-name="icaron" unicode="&#x1d0;" horiz-adv-x="253" 
d="M195 528h-53l-99 147h89l28 -41q7 -10 11 -19.5t5 -14.5v-4h4q7 15 30 38l42 41h94zM204 462l-62 -351q-8 -45 27 -45q9 0 29 5l-13 -67q-24 -9 -54 -9q-100 0 -81 107l63 360h91z" />
    <glyph glyph-name="Ocaron" unicode="&#x1d1;" 
d="M284 -12q-108 0 -169 65.5t-61 174.5q0 171 87 272t215 101q109 0 170 -66t61 -175q0 -171 -87.5 -271.5t-215.5 -100.5zM348 521q-91 0 -144.5 -83.5t-53.5 -202.5q0 -79 37 -124t106 -45q90 0 143.5 84t53.5 203q0 75 -35.5 121.5t-106.5 46.5zM397 653h-56l-102 129
h95l25 -33q7 -9 11 -17.5t5 -12.5l1 -4h3q6 14 29 34l37 33h99z" />
    <glyph glyph-name="ocaron" unicode="&#x1d2;" horiz-adv-x="500" 
d="M280 473q86 0 134 -53t48 -146q0 -121 -64.5 -203.5t-176.5 -82.5q-82 0 -132.5 51.5t-50.5 144.5q0 121 64.5 205t177.5 84zM269 399q-63 0 -101.5 -61t-38.5 -147q0 -64 27 -98.5t75 -34.5q63 0 100.5 62.5t37.5 149.5q0 62 -26 95.5t-74 33.5zM309 528h-52l-100 147
h89l28 -41q7 -10 11 -19.5t5 -14.5v-4h4q7 15 30 38l42 41h94z" />
    <glyph glyph-name="Ucaron" unicode="&#x1d3;" horiz-adv-x="589" 
d="M491 589h94l-70 -399q-19 -110 -84.5 -156t-169.5 -46t-160.5 57t-34.5 178l63 366h95l-66 -372q-13 -77 18 -114.5t97 -37.5q64 0 101 34t50 110zM387 653h-56l-101 129h94l26 -33q7 -9 11 -17.5t5 -12.5l1 -4h3q6 14 28 34l38 33h99z" />
    <glyph glyph-name="ucaron" unicode="&#x1d4;" horiz-adv-x="517" 
d="M318 87q-40 -99 -146 -99q-73 0 -103 45.5t-16 128.5l52 300h91l-54 -311q-8 -46 8 -71t53 -25q43 0 79 34.5t47 94.5l48 278h91l-62 -351q-8 -45 27 -45q9 0 29 5l-13 -67q-24 -9 -54 -9q-46 0 -64 23t-13 69zM317 528h-53l-99 147h89l27 -41q7 -10 11 -19.5t5 -14.5
l1 -4h4q7 15 30 38l42 41h94z" />
    <glyph glyph-name="uni01D9" unicode="&#x1d9;" horiz-adv-x="589" 
d="M491 589h94l-70 -399q-19 -110 -84.5 -156t-169.5 -46t-160.5 57t-34.5 178l63 366h95l-66 -372q-13 -77 18 -114.5t97 -37.5q64 0 101 34t50 110zM211 683q0 26 17.5 43t41.5 17q26 0 43 -17t17 -43q0 -25 -17 -42t-43 -17q-24 0 -41.5 17t-17.5 42zM408 682
q0 26 17.5 43t41.5 17q25 0 42 -17t17 -43q0 -25 -17 -42t-42 -17q-24 0 -41.5 17t-17.5 42zM407 756h-55l-102 129h94l26 -33q7 -9 11 -17.5t5 -12.5l1 -4h3q6 14 29 34l37 33h99z" />
    <glyph glyph-name="uni01DA" unicode="&#x1da;" horiz-adv-x="517" 
d="M318 87q-40 -99 -146 -99q-73 0 -103 45.5t-16 128.5l52 300h91l-54 -311q-8 -46 8 -71t53 -25q43 0 79 34.5t47 94.5l48 278h91l-62 -351q-8 -45 27 -45q9 0 29 5l-13 -67q-24 -9 -54 -9q-46 0 -64 23t-13 69zM143 559q0 26 17.5 42.5t41.5 16.5q26 0 43 -16.5t17 -42.5
q0 -25 -17 -42t-43 -17q-24 0 -41.5 17t-17.5 42zM340 558q0 26 17.5 43t41.5 17q25 0 42 -17t17 -43q0 -25 -17 -42t-42 -17q-24 0 -41.5 17t-17.5 42zM339 632h-55l-102 129h94l26 -33q7 -9 11 -17.5t5 -12.5l1 -4h3q6 14 29 34l37 33h99z" />
    <glyph glyph-name="uni004100A800AF" unicode="&#x1de;" horiz-adv-x="591" 
d="M432 0l-28 161h-241l-84 -161h-100l318 589h121l110 -589h-96zM515 776h-264l12 71h264zM208 683q0 26 17 42.5t42 16.5q26 0 43 -16.5t17 -42.5q0 -25 -17 -42t-43 -17q-24 0 -41.5 17t-17.5 42zM404 682q0 26 17.5 42.5t41.5 16.5q26 0 43 -16.5t17 -42.5
q0 -25 -17 -42t-43 -17q-24 0 -41.5 17t-17.5 42zM272 370l-70 -133h188q-14 69 -24.5 141t-15 110t-3.5 38h-4q-22 -64 -71 -156z" />
    <glyph glyph-name="adieresismacron" unicode="&#x1df;" horiz-adv-x="534" 
d="M346 193l14 78q9 53 -12 92.5t-70 39.5q-65 0 -107 -62t-42 -155q0 -56 24 -90.5t69 -34.5q48 0 80.5 35.5t43.5 96.5zM485 462l-62 -351q-8 -45 26 -45q10 0 30 5l-13 -67q-24 -9 -54 -9q-84 0 -81 82q-38 -89 -138 -89q-70 0 -112.5 50t-42.5 139q0 122 63 209t162 87
q104 0 118 -89l26 78h78zM456 673h-262l13 73h262zM148 569q0 26 17.5 42.5t41.5 16.5q26 0 43 -16.5t17 -42.5q0 -25 -17 -42t-43 -17q-24 0 -41.5 17t-17.5 42zM345 568q0 26 17 42.5t42 16.5t42 -16.5t17 -42.5q0 -25 -17 -42t-42 -17q-24 0 -41.5 17t-17.5 42z" />
    <glyph glyph-name="AEmacron" unicode="&#x1e2;" horiz-adv-x="854" 
d="M402 0l28 161h-220l-126 -161h-105l460 589h429l-14 -80h-268l-31 -174h237l-14 -80h-237l-31 -175h268l-13 -80h-363zM766 674h-263l12 71h264zM495 526l-226 -289h174l31 176l25 113h-4z" />
    <glyph glyph-name="aemacron" unicode="&#x1e3;" horiz-adv-x="729" 
d="M490 58q44 0 68 18.5t36 56.5l84 -21q-24 -68 -71 -96t-122 -28q-106 0 -156 77q-45 -77 -161 -77q-65 0 -100.5 32t-35.5 88q0 80 72 121t204 42q8 33 19 58q2 36 -18 54.5t-56 18.5q-79 0 -94 -75l-85 13q17 69 69.5 101t121.5 32q94 0 125 -57q60 57 140 57
q86 0 128.5 -47.5t42.5 -118.5q0 -50 -20 -95h-290q-6 -63 18.5 -108.5t80.5 -45.5zM555 558h-262l13 73h262zM400 271h207q5 14 5 38q0 41 -21.5 67.5t-64.5 26.5q-47 0 -80 -35t-46 -97zM299 184q0 18 1 27q-179 -5 -179 -96q0 -60 65 -60q37 0 71.5 19.5t48.5 50.5
q-7 25 -7 59z" />
    <glyph glyph-name="Gstroke" unicode="&#x1e4;" horiz-adv-x="617" 
d="M324 317h235l-21 -114h59l-11 -63h-58l-25 -140h-67l-4 74q-40 -86 -151 -86q-106 0 -166.5 65.5t-60.5 174.5q0 171 87.5 272t215.5 101q166 0 200 -147l-94 -36q-8 51 -38.5 77.5t-75.5 26.5q-91 0 -145 -84t-54 -203q0 -80 37.5 -125.5t109.5 -45.5q101 0 136 76h-141
l11 63h144l9 46h-143z" />
    <glyph glyph-name="gstroke" unicode="&#x1e5;" horiz-adv-x="509" 
d="M486 462l-83 -474l-9 -36h69l-6 -35h-74q-52 -128 -214 -128q-163 0 -186 124l77 35q4 -40 34.5 -65.5t78.5 -25.5q77 0 113 60h-146l6 35h156q4 12 10 38l17 87q-37 -86 -134 -86q-71 0 -114 50t-43 139q0 121 63.5 207t164.5 86t117 -89l25 78h78zM348 192l14 79
q9 53 -12 92.5t-71 39.5q-67 0 -108.5 -61.5t-41.5 -154.5q0 -57 23.5 -90.5t69.5 -33.5q50 0 82.5 33.5t43.5 95.5z" />
    <glyph glyph-name="Gcaron" unicode="&#x1e6;" horiz-adv-x="603" 
d="M322 304h234l-53 -304h-67l-4 74q-40 -86 -151 -86q-106 0 -166.5 65.5t-60.5 174.5q0 171 87.5 272t215.5 101q166 0 200 -147l-94 -36q-8 51 -38.5 77.5t-75.5 26.5q-91 0 -145 -84t-54 -203q0 -79 37 -124.5t109 -45.5q127 0 149 126l6 33h-143zM392 653h-56l-101 129
h94l26 -33q7 -9 11 -17.5t5 -12.5l1 -4h3q6 14 28 34l38 33h99z" />
    <glyph glyph-name="gcaron" unicode="&#x1e7;" horiz-adv-x="509" 
d="M348 192l14 79q9 53 -12 92.5t-71 39.5q-67 0 -108.5 -61.5t-41.5 -154.5q0 -57 23.5 -90.5t69.5 -33.5q50 0 82.5 33.5t43.5 95.5zM486 462l-83 -474q-19 -102 -74.5 -150.5t-159.5 -48.5q-163 0 -186 124l77 35q4 -40 34.5 -65.5t78.5 -25.5q61 0 93.5 33.5t45.5 99.5
l17 87q-37 -86 -134 -86q-71 0 -114 50t-43 139q0 121 63.5 207t164.5 86t117 -89l25 78h78zM317 528h-52l-100 147h90l27 -41q7 -10 11 -19.5t5 -14.5v-4h4q7 15 30 38l42 41h94z" />
    <glyph glyph-name="Kcaron" unicode="&#x1e8;" horiz-adv-x="525" 
d="M476 0h-106l-140 259h-53l-45 -259h-94l103 589h94l-43 -251h43l216 251h112l-254 -287zM349 653h-55l-102 129h94l26 -33q7 -9 11 -17.5t5 -12.5l1 -4h3q6 14 29 34l37 33h99z" />
    <glyph glyph-name="kcaron" unicode="&#x1e9;" horiz-adv-x="459" 
d="M279 49l-83 172h-28l-39 -221h-91l117 668h92l-67 -380h22l164 174h111l-202 -205l75 -156q14 -27 32.5 -32.5t50.5 4.5l-14 -69q-27 -9 -57 -9q-57 0 -83 54zM231 698h-55l-102 129h94l26 -33q7 -9 11 -17.5t5 -12.5l1 -4h3q6 14 29 34l37 33h99z" />
    <glyph glyph-name="Oogonek" unicode="&#x1ea;" 
d="M157 -116q0 67 55 113q-75 20 -116.5 81.5t-41.5 149.5q0 171 87 272t215 101q109 0 170 -66t61 -175q0 -165 -82 -265t-205 -106q-31 -14 -49 -38.5t-18 -54.5q0 -21 12.5 -33.5t32.5 -12.5q40 0 64 39l29 -43q-35 -57 -109 -57q-50 0 -77.5 25t-27.5 70zM348 521
q-91 0 -144.5 -83.5t-53.5 -202.5q0 -79 37 -124t106 -45q90 0 143.5 84t53.5 203q0 75 -35.5 121.5t-106.5 46.5z" />
    <glyph glyph-name="oogonek" unicode="&#x1eb;" horiz-adv-x="499" 
d="M103 -116q0 64 56 113q-56 16 -88.5 64.5t-32.5 122.5q0 121 64.5 205t177.5 84q86 0 134 -53t48 -146q0 -113 -56.5 -193.5t-157.5 -90.5q-69 -33 -69 -94q0 -21 12.5 -33.5t32.5 -12.5q40 0 64 39l29 -43q-35 -57 -109 -57q-50 0 -77.5 25t-27.5 70zM269 399
q-63 0 -101.5 -61t-38.5 -147q0 -64 27 -98.5t75 -34.5q63 0 100.5 62.5t37.5 149.5q0 62 -26 95.5t-74 33.5z" />
    <glyph glyph-name="uni004F02DB00AF" unicode="&#x1ec;" 
d="M510 674h-264l12 71h264zM157 -116q0 67 55 113q-75 20 -116.5 81.5t-41.5 149.5q0 171 87 272t215 101q109 0 170 -66t61 -175q0 -165 -82 -265t-205 -106q-31 -14 -49 -38.5t-18 -54.5q0 -21 12.5 -33.5t32.5 -12.5q40 0 64 39l29 -43q-35 -57 -109 -57q-50 0 -77.5 25
t-27.5 70zM348 521q-91 0 -144.5 -83.5t-53.5 -202.5q0 -79 37 -124t106 -45q90 0 143.5 84t53.5 203q0 75 -35.5 121.5t-106.5 46.5z" />
    <glyph glyph-name="oogonekmacron" unicode="&#x1ed;" horiz-adv-x="499" 
d="M420 558h-261l13 73h262zM103 -116q0 64 56 113q-56 16 -88.5 64.5t-32.5 122.5q0 121 64.5 205t177.5 84q86 0 134 -53t48 -146q0 -113 -56.5 -193.5t-157.5 -90.5q-69 -33 -69 -94q0 -21 12.5 -33.5t32.5 -12.5q40 0 64 39l29 -43q-35 -57 -109 -57q-50 0 -77.5 25
t-27.5 70zM269 399q-63 0 -101.5 -61t-38.5 -147q0 -64 27 -98.5t75 -34.5q63 0 100.5 62.5t37.5 149.5q0 62 -26 95.5t-74 33.5z" />
    <glyph glyph-name="Ezhcaron" unicode="&#x1ee;" horiz-adv-x="499" 
d="M285 509h-198l14 80h400l-11 -62l-244 -265l-1 -5q87 -2 131.5 -53.5t44.5 -129.5q0 -119 -74 -186.5t-178 -67.5q-96 0 -148.5 47.5t-52.5 134.5l77 27q0 -70 33.5 -104.5t91.5 -34.5q70 0 115.5 46.5t45.5 133.5q0 62 -46.5 98.5t-142.5 35.5l12 66l148 170
q21 24 40 41.5t28 23.5l9 6v4q-34 -6 -94 -6zM335 653h-55l-102 129h94l26 -33q7 -9 11 -17.5t5 -12.5l1 -4h3q6 14 29 34l37 33h99z" />
    <glyph glyph-name="ezhcaron" unicode="&#x1ef;" horiz-adv-x="418" 
d="M117 213l92 99q20 21 39.5 39t28.5 26l9 8l1 4q-34 -3 -94 -3h-127l14 76h330l-11 -60l-202 -202v-3q73 -4 109.5 -48.5t36.5 -110.5q0 -91 -64.5 -141.5t-149.5 -50.5q-81 0 -121 37.5t-42 102.5l77 23q-1 -46 24.5 -71t66.5 -25q54 0 88 32t34 89q0 53 -33.5 83.5
t-116.5 37.5zM278 528h-52l-100 147h90l27 -41q7 -10 11 -19.5t4 -14.5l1 -4h4q7 15 30 38l42 41h94z" />
    <glyph glyph-name="jcaron" unicode="&#x1f0;" horiz-adv-x="226" 
d="M194 528h-52l-100 147h90l27 -41q7 -10 11 -19.5t4 -14.5l1 -4h4q7 15 30 38l42 41h94zM204 462l-93 -530q-13 -79 -53.5 -111t-106.5 -32q-57 0 -94 26l29 70q31 -25 67 -25q26 0 42.5 17t24.5 60l93 525h91z" />
    <glyph glyph-name="jcaron" unicode="&#xe10c;" horiz-adv-x="226" 
d="M194 528h-52l-100 147h90l27 -41q7 -10 11 -19.5t4 -14.5l1 -4h4q7 15 30 38l42 41h94zM204 462l-93 -530q-13 -79 -53.5 -111t-106.5 -32q-57 0 -94 26l29 70q31 -25 67 -25q26 0 42.5 17t24.5 60l93 525h91z" />
    <glyph glyph-name="Gacute" unicode="&#x1f4;" horiz-adv-x="603" 
d="M322 304h234l-53 -304h-67l-4 74q-40 -86 -151 -86q-106 0 -166.5 65.5t-60.5 174.5q0 171 87.5 272t215.5 101q166 0 200 -147l-94 -36q-8 51 -38.5 77.5t-75.5 26.5q-91 0 -145 -84t-54 -203q0 -79 37 -124.5t109 -45.5q127 0 149 126l6 33h-143zM404 653h-82l62 123
h120z" />
    <glyph glyph-name="gacute" unicode="&#x1f5;" horiz-adv-x="509" 
d="M348 192l14 79q9 53 -12 92.5t-71 39.5q-67 0 -108.5 -61.5t-41.5 -154.5q0 -57 23.5 -90.5t69.5 -33.5q50 0 82.5 33.5t43.5 95.5zM486 462l-83 -474q-19 -102 -74.5 -150.5t-159.5 -48.5q-163 0 -186 124l77 35q4 -40 34.5 -65.5t78.5 -25.5q61 0 93.5 33.5t45.5 99.5
l17 87q-37 -86 -134 -86q-71 0 -114 50t-43 139q0 121 63.5 207t164.5 86t117 -89l25 78h78zM328 529h-79l73 146h121z" />
    <glyph glyph-name="Ngrave" unicode="&#x1f8;" 
d="M235 589l154 -331q13 -29 24.5 -60t16.5 -48l5 -16h4q7 68 20 142l55 313h94l-103 -589h-91l-158 328q-13 28 -25 59.5t-17 48.5l-6 17h-4q-4 -65 -17 -141l-55 -312h-94l103 589h94zM419 653h-83l-100 123h120z" />
    <glyph glyph-name="ngrave" unicode="&#x1f9;" horiz-adv-x="519" 
d="M456 318l-36 -207q-8 -45 27 -45q9 0 29 5l-13 -67q-24 -9 -54 -9q-100 0 -81 107l37 208q17 87 -60 87q-43 0 -81 -35t-51 -111l-44 -251h-91l81 462h79l-5 -94q49 105 149 105q54 0 86 -29t32 -82q0 -24 -4 -44zM351 529h-79l-115 146h121z" />
    <glyph glyph-name="uni004102DA00B4" unicode="&#x1fa;" horiz-adv-x="591" 
d="M432 0l-28 161h-241l-84 -161h-100l318 589h121l110 -589h-96zM276 694q0 45 30 75.5t78 30.5q41 0 66 -25t25 -63q0 -45 -30 -76t-77 -31q-44 0 -68 25t-24 64zM437 821h-82l63 123h120zM272 370l-70 -133h188q-14 69 -24.5 141t-15 110t-3.5 38h-4q-22 -64 -71 -156z
M380 758q-23 0 -39 -17.5t-16 -41.5q0 -23 13 -36.5t36 -13.5t38 17t15 41q0 23 -12.5 37t-34.5 14z" />
    <glyph glyph-name="aringacute" unicode="&#x1fb;" horiz-adv-x="534" 
d="M346 193l14 78q9 53 -12 92.5t-70 39.5q-65 0 -107 -62t-42 -155q0 -56 24 -90.5t69 -34.5q48 0 80.5 35.5t43.5 96.5zM485 462l-62 -351q-8 -45 26 -45q10 0 30 5l-13 -67q-24 -9 -54 -9q-84 0 -81 82q-38 -89 -138 -89q-70 0 -112.5 50t-42.5 139q0 122 63 209t162 87
q104 0 118 -89l26 78h78zM209 589q0 45 30 75.5t78 30.5q41 0 66 -25t25 -63q0 -45 -30 -76t-77 -31q-44 0 -68 25t-24 64zM313 652q-24 0 -39.5 -17t-15.5 -41q0 -23 13 -37t35 -14q23 0 38.5 17.5t15.5 41.5q0 23 -12.5 36.5t-34.5 13.5zM369 724h-83l63 123h120z" />
    <glyph glyph-name="AEacute" unicode="&#x1fc;" horiz-adv-x="854" 
d="M402 0l28 161h-220l-126 -161h-105l460 589h429l-14 -80h-268l-31 -174h237l-14 -80h-237l-31 -175h268l-13 -80h-363zM666 653h-83l63 123h120zM495 526l-226 -289h174l31 176l25 113h-4z" />
    <glyph glyph-name="aeacute" unicode="&#x1fd;" horiz-adv-x="729" 
d="M490 58q44 0 68 18.5t36 56.5l84 -21q-24 -68 -71 -96t-122 -28q-106 0 -156 77q-45 -77 -161 -77q-65 0 -100.5 32t-35.5 88q0 80 72 121t204 42q8 33 19 58q2 36 -18 54.5t-56 18.5q-79 0 -94 -75l-85 13q17 69 69.5 101t121.5 32q94 0 125 -57q60 57 140 57
q86 0 128.5 -47.5t42.5 -118.5q0 -50 -20 -95h-290q-6 -63 18.5 -108.5t80.5 -45.5zM454 529h-79l74 146h120zM400 271h207q5 14 5 38q0 41 -21.5 67.5t-64.5 26.5q-47 0 -80 -35t-46 -97zM299 184q0 18 1 27q-179 -5 -179 -96q0 -60 65 -60q37 0 71.5 19.5t48.5 50.5
q-7 25 -7 59z" />
    <glyph glyph-name="Oslashacute" unicode="&#x1fe;" 
d="M62 -14l-43 40l66 68q-31 55 -31 134q0 171 87 272t215 101q100 0 162 -59l57 59l46 -41l-65 -67q31 -59 31 -133q0 -171 -87.5 -271.5t-215.5 -100.5q-101 0 -163 59zM490 353q0 34 -9 64l-296 -305q40 -46 108 -46q90 0 143.5 84t53.5 203zM419 653h-83l63 123h120z
M348 521q-91 0 -144.5 -83.5t-53.5 -202.5q0 -40 8 -65l296 305q-38 46 -106 46z" />
    <glyph glyph-name="oslashacute" unicode="&#x1ff;" horiz-adv-x="500" 
d="M280 473q86 0 133 -53l55 52l41 -43l-64 -61q17 -42 17 -94q0 -121 -64.5 -203.5t-176.5 -82.5q-76 0 -124 43l-48 -45l-42 40l53 52q-22 46 -22 106q0 121 64.5 205t177.5 84zM326 529h-79l73 146h121zM269 399q-61 0 -99 -57.5t-40 -139.5q0 -32 4 -53l214 209
q-27 41 -79 41zM231 58q61 0 98 59t39 142v35l-210 -204q25 -32 73 -32z" />
    <glyph glyph-name="Adoublegrave" unicode="&#x200;" horiz-adv-x="591" 
d="M432 0l-28 161h-241l-84 -161h-100l318 589h121l110 -589h-96zM327 653h-71l-115 123h112zM474 653h-68l-103 123h109zM272 370l-70 -133h188q-14 69 -24.5 141t-15 110t-3.5 38h-4q-22 -64 -71 -156z" />
    <glyph glyph-name="edoublegrave" unicode="&#x201;" horiz-adv-x="468" 
d="M229 58q45 0 68.5 18.5t35.5 56.5l84 -21q-24 -68 -71.5 -96t-124.5 -28q-86 0 -134.5 53.5t-48.5 143.5q0 133 69 210.5t162 77.5q85 0 128 -47.5t43 -118.5q0 -49 -20 -95h-293q-7 -63 19 -108.5t83 -45.5zM137 277h209q5 13 5 32q0 41 -21.5 67.5t-64.5 26.5
q-49 0 -81.5 -35.5t-46.5 -90.5zM382 529h-68l-103 146h109zM235 529h-71l-115 146h112z" />
    <glyph glyph-name="edoublegrave" unicode="&#x205;" horiz-adv-x="468" 
d="M229 58q45 0 68.5 18.5t35.5 56.5l84 -21q-24 -68 -71.5 -96t-124.5 -28q-86 0 -134.5 53.5t-48.5 143.5q0 133 69 210.5t162 77.5q85 0 128 -47.5t43 -118.5q0 -49 -20 -95h-293q-7 -63 19 -108.5t83 -45.5zM137 277h209q5 13 5 32q0 41 -21.5 67.5t-64.5 26.5
q-49 0 -81.5 -35.5t-46.5 -90.5zM382 529h-68l-103 146h109zM235 529h-71l-115 146h112z" />
    <glyph glyph-name="Ainvertedbreve" unicode="&#x202;" horiz-adv-x="591" 
d="M432 0l-28 161h-241l-84 -161h-100l318 589h121l110 -589h-96zM389 787q64 0 93 -35.5t18 -96.5h-70q6 66 -53 66q-33 0 -50.5 -16.5t-26.5 -49.5h-71q11 61 53 96.5t107 35.5zM272 370l-70 -133h188q-14 69 -24.5 141t-15 110t-3.5 38h-4q-22 -64 -71 -156z" />
    <glyph glyph-name="ainvertedbreve" unicode="&#x203;" horiz-adv-x="534" 
d="M346 193l14 78q9 53 -12 92.5t-70 39.5q-65 0 -107 -62t-42 -155q0 -56 24 -90.5t69 -34.5q48 0 80.5 35.5t43.5 96.5zM485 462l-62 -351q-8 -45 26 -45q10 0 30 5l-13 -67q-24 -9 -54 -9q-84 0 -81 82q-38 -89 -138 -89q-70 0 -112.5 50t-42.5 139q0 122 63 209t162 87
q104 0 118 -89l26 78h78zM318 672q65 0 93.5 -38.5t17.5 -102.5h-71q4 37 -6 55.5t-46 18.5q-35 0 -52 -18.5t-26 -55.5h-71q11 64 53.5 102.5t107.5 38.5z" />
    <glyph glyph-name="Edoublegrave" unicode="&#x204;" horiz-adv-x="490" 
d="M414 80l-13 -80h-363l103 589h363l-14 -80h-269l-30 -174h237l-14 -80h-237l-31 -175h268zM432 653h-67l-104 123h109zM286 653h-71l-116 123h113z" />
    <glyph glyph-name="Einvertedbreve" unicode="&#x206;" horiz-adv-x="490" 
d="M414 80l-13 -80h-363l103 589h363l-14 -80h-269l-30 -174h237l-14 -80h-237l-31 -175h268zM347 787q64 0 93 -35.5t18 -96.5h-71q8 66 -53 66q-60 0 -76 -66h-71q11 61 53 96.5t107 35.5z" />
    <glyph glyph-name="einvertedbreve" unicode="&#x207;" horiz-adv-x="468" 
d="M229 58q45 0 68.5 18.5t35.5 56.5l84 -21q-24 -68 -71.5 -96t-124.5 -28q-86 0 -134.5 53.5t-48.5 143.5q0 133 69 210.5t162 77.5q85 0 128 -47.5t43 -118.5q0 -49 -20 -95h-293q-7 -63 19 -108.5t83 -45.5zM137 277h209q5 13 5 32q0 41 -21.5 67.5t-64.5 26.5
q-49 0 -81.5 -35.5t-46.5 -90.5zM290 672q65 0 93.5 -38.5t17.5 -102.5h-70q3 37 -7 55.5t-45 18.5q-36 0 -53 -18.5t-26 -55.5h-70q11 64 53.5 102.5t106.5 38.5z" />
    <glyph glyph-name="Idoublegrave" unicode="&#x208;" horiz-adv-x="249" 
d="M141 589h94l-103 -589h-94zM310 653h-67l-103 123h108zM164 653h-71l-116 123h113z" />
    <glyph glyph-name="idoublegrave" unicode="&#x209;" horiz-adv-x="253" 
d="M204 462l-62 -351q-8 -45 27 -45q9 0 29 5l-13 -67q-24 -9 -54 -9q-100 0 -81 107l63 360h91zM282 529h-67l-104 146h109zM135 529h-71l-115 146h113z" />
    <glyph glyph-name="Iinvertedbreve" unicode="&#x20a;" horiz-adv-x="249" 
d="M141 589h94l-103 -589h-94zM225 787q64 0 93 -35.5t18 -96.5h-71q8 66 -53 66q-33 0 -50 -16.5t-26 -49.5h-71q11 61 53 96.5t107 35.5z" />
    <glyph glyph-name="iinvertedbreve" unicode="&#x20b;" horiz-adv-x="253" 
d="M204 462l-62 -351q-8 -45 27 -45q9 0 29 5l-13 -67q-24 -9 -54 -9q-100 0 -81 107l63 360h91zM191 672q65 0 93.5 -38.5t17.5 -102.5h-70q3 37 -7 55.5t-45 18.5q-36 0 -53 -18.5t-26 -55.5h-70q11 64 53.5 102.5t106.5 38.5z" />
    <glyph glyph-name="Odoublegrave" unicode="&#x20c;" 
d="M284 -12q-108 0 -169 65.5t-61 174.5q0 171 87 272t215 101q109 0 170 -66t61 -175q0 -171 -87.5 -271.5t-215.5 -100.5zM348 521q-91 0 -144.5 -83.5t-53.5 -202.5q0 -79 37 -124t106 -45q90 0 143.5 84t53.5 203q0 75 -35.5 121.5t-106.5 46.5zM484 653h-67l-103 123
h108zM338 653h-71l-116 123h113z" />
    <glyph glyph-name="odoublegrave" unicode="&#x20d;" horiz-adv-x="500" 
d="M280 473q86 0 134 -53t48 -146q0 -121 -64.5 -203.5t-176.5 -82.5q-82 0 -132.5 51.5t-50.5 144.5q0 121 64.5 205t177.5 84zM269 399q-63 0 -101.5 -61t-38.5 -147q0 -64 27 -98.5t75 -34.5q63 0 100.5 62.5t37.5 149.5q0 62 -26 95.5t-74 33.5zM397 529h-67l-104 146
h109zM250 529h-71l-115 146h113z" />
    <glyph glyph-name="Oinvertedbreve" unicode="&#x20e;" 
d="M284 -12q-108 0 -169 65.5t-61 174.5q0 171 87 272t215 101q109 0 170 -66t61 -175q0 -171 -87.5 -271.5t-215.5 -100.5zM348 521q-91 0 -144.5 -83.5t-53.5 -202.5q0 -79 37 -124t106 -45q90 0 143.5 84t53.5 203q0 75 -35.5 121.5t-106.5 46.5zM399 787q64 0 93 -35.5
t18 -96.5h-71q8 66 -53 66q-33 0 -50 -16.5t-26 -49.5h-71q11 61 53 96.5t107 35.5z" />
    <glyph glyph-name="oinvertedbreve" unicode="&#x20f;" horiz-adv-x="500" 
d="M280 473q86 0 134 -53t48 -146q0 -121 -64.5 -203.5t-176.5 -82.5q-82 0 -132.5 51.5t-50.5 144.5q0 121 64.5 205t177.5 84zM269 399q-63 0 -101.5 -61t-38.5 -147q0 -64 27 -98.5t75 -34.5q63 0 100.5 62.5t37.5 149.5q0 62 -26 95.5t-74 33.5zM306 672q64 0 93 -38.5
t17 -102.5h-70q3 37 -7 55.5t-45 18.5t-52.5 -18.5t-26.5 -55.5h-70q11 64 53.5 102.5t107.5 38.5z" />
    <glyph glyph-name="Rinvertedbreve" unicode="&#x212;" horiz-adv-x="547" 
d="M489 0h-101q-15 17 -22 55l-17 102q-8 49 -29 65.5t-69 16.5h-77l-42 -239h-94l103 589h202q93 0 133 -35.5t40 -107.5q0 -80 -49 -124t-112 -47v-4q41 -6 60.5 -26.5t27.5 -66.5l21 -116q6 -36 25 -62zM222 512l-34 -196h106q125 0 125 116q0 41 -21.5 60.5t-70.5 19.5
h-105zM356 787q64 0 93 -35.5t18 -96.5h-70q6 66 -53 66q-33 0 -50.5 -16.5t-26.5 -49.5h-71q11 61 53 96.5t107 35.5z" />
    <glyph glyph-name="rinvertedbreve" unicode="&#x213;" horiz-adv-x="346" 
d="M367 471l-23 -107q-54 15 -106.5 -13.5t-63.5 -92.5l-45 -258h-91l81 462h79l-8 -109q25 59 74 93t103 25zM269 672q65 0 93.5 -38.5t17.5 -102.5h-71q4 37 -6 55.5t-46 18.5q-35 0 -52 -18.5t-26 -55.5h-71q11 64 53.5 102.5t107.5 38.5z" />
    <glyph glyph-name="Udoublegrave" unicode="&#x214;" horiz-adv-x="589" 
d="M491 589h94l-70 -399q-19 -110 -84.5 -156t-169.5 -46t-160.5 57t-34.5 178l63 366h95l-66 -372q-13 -77 18 -114.5t97 -37.5q64 0 101 34t50 110zM475 653h-68l-103 123h109zM328 653h-71l-115 123h112z" />
    <glyph glyph-name="udoublegrave" unicode="&#x215;" horiz-adv-x="517" 
d="M318 87q-40 -99 -146 -99q-73 0 -103 45.5t-16 128.5l52 300h91l-54 -311q-8 -46 8 -71t53 -25q43 0 79 34.5t47 94.5l48 278h91l-62 -351q-8 -45 27 -45q9 0 29 5l-13 -67q-24 -9 -54 -9q-46 0 -64 23t-13 69zM404 529h-67l-103 146h109zM258 529h-71l-115 146h112z" />
    <glyph glyph-name="Uinvertedbreve" unicode="&#x216;" horiz-adv-x="589" 
d="M491 589h94l-70 -399q-19 -110 -84.5 -156t-169.5 -46t-160.5 57t-34.5 178l63 366h95l-66 -372q-13 -77 18 -114.5t97 -37.5q64 0 101 34t50 110zM390 787q64 0 93 -35.5t18 -96.5h-71q3 33 -8.5 49.5t-44.5 16.5t-50.5 -16.5t-26.5 -49.5h-70q11 61 53 96.5t107 35.5z
" />
    <glyph glyph-name="uinvertedbreve" unicode="&#x217;" horiz-adv-x="517" 
d="M318 87q-40 -99 -146 -99q-73 0 -103 45.5t-16 128.5l52 300h91l-54 -311q-8 -46 8 -71t53 -25q43 0 79 34.5t47 94.5l48 278h91l-62 -351q-8 -45 27 -45q9 0 29 5l-13 -67q-24 -9 -54 -9q-46 0 -64 23t-13 69zM313 672q65 0 93.5 -38.5t17.5 -102.5h-71q4 37 -6 55.5
t-45 18.5q-36 0 -53 -18.5t-26 -55.5h-71q12 65 54 103t107 38z" />
    <glyph glyph-name="Scommaaccent" unicode="&#x218;" horiz-adv-x="489" 
d="M18 143l85 21q-1 -53 28.5 -79.5t83.5 -26.5t84 24t30 72q0 41 -22 64.5t-80 45.5q-69 24 -103.5 59.5t-34.5 102.5q0 62 33.5 103.5t76.5 56.5t92 15q90 0 136.5 -37t47.5 -120l-90 -15q1 48 -25 73.5t-76 25.5q-48 0 -77.5 -24t-29.5 -66q0 -39 22 -56.5t83 -41.5
q73 -29 106.5 -67t33.5 -106q0 -91 -61 -135t-156 -44q-184 0 -187 155zM240 -139q0 -54 -37 -81.5t-98 -27.5v37q74 4 74 43q-27 -5 -43.5 8t-16.5 39q0 25 15.5 39t41.5 14q28 0 46 -18.5t18 -52.5z" />
    <glyph glyph-name="scommaaccent" unicode="&#x219;" horiz-adv-x="409" 
d="M16 122l80 20q0 -45 23.5 -67.5t63.5 -22.5q80 0 80 65q0 31 -17.5 49.5t-63.5 34.5q-57 20 -84 51.5t-27 81.5q0 67 46.5 103t119.5 36q147 0 147 -123l-82 -13q0 71 -72 71q-34 0 -54.5 -16.5t-20.5 -46.5q0 -25 17 -41.5t69 -36.5q60 -24 84.5 -56.5t24.5 -85.5
q0 -69 -46 -103t-124 -34q-77 0 -120 35t-44 99zM206 -139q0 -54 -37 -81.5t-98 -27.5v37q74 4 74 43q-27 -5 -43.5 8t-16.5 39q0 25 15.5 39t41.5 14q28 0 46 -18.5t18 -52.5z" />
    <glyph glyph-name="Hcaron" unicode="&#x21e;" 
d="M132 0h-94l103 589h94l-43 -250h278l44 250h94l-103 -589h-94l45 259h-279zM409 653h-56l-101 129h94l26 -33q6 -9 10.5 -17.5t5.5 -12.5l1 -4h2q7 14 29 34l38 33h98z" />
    <glyph glyph-name="hcaron" unicode="&#x21f;" horiz-adv-x="519" 
d="M456 318l-36 -207q-8 -45 27 -45q9 0 29 5l-13 -67q-24 -9 -54 -9q-100 0 -81 107l37 208q17 87 -60 87q-43 0 -81 -35t-51 -111l-44 -251h-91l116 668h93l-54 -300q49 105 149 105q54 0 86 -29t32 -82q0 -24 -4 -44zM231 705h-55l-102 130h94l26 -34q7 -9 11 -17t5 -12
l1 -4h3q6 13 29 33l37 34h99z" />
    <glyph glyph-name="Adotabove" unicode="&#x226;" horiz-adv-x="591" 
d="M432 0l-28 161h-241l-84 -161h-100l318 589h121l110 -589h-96zM310 727q0 26 17.5 43t42.5 17q27 0 44.5 -16.5t17.5 -43.5q0 -25 -18 -42.5t-44 -17.5q-25 0 -42.5 17.5t-17.5 42.5zM272 370l-70 -133h188q-14 69 -24.5 141t-15 110t-3.5 38h-4q-22 -64 -71 -156z" />
    <glyph glyph-name="adotabove" unicode="&#x227;" horiz-adv-x="534" 
d="M346 193l14 78q9 53 -12 92.5t-70 39.5q-65 0 -107 -62t-42 -155q0 -56 24 -90.5t69 -34.5q48 0 80.5 35.5t43.5 96.5zM485 462l-62 -351q-8 -45 26 -45q10 0 30 5l-13 -67q-24 -9 -54 -9q-84 0 -81 82q-38 -89 -138 -89q-70 0 -112.5 50t-42.5 139q0 122 63 209t162 87
q104 0 118 -89l26 78h78zM245 609q0 26 17.5 43t42.5 17q26 0 44 -17t18 -43q0 -25 -18 -42.5t-44 -17.5q-25 0 -42.5 17.5t-17.5 42.5z" />
    <glyph glyph-name="Otildemacron" unicode="&#x22c;" 
d="M284 -12q-108 0 -169 65.5t-61 174.5q0 171 87 272t215 101q109 0 170 -66t61 -175q0 -171 -87.5 -271.5t-215.5 -100.5zM348 521q-91 0 -144.5 -83.5t-53.5 -202.5q0 -79 37 -124t106 -45q90 0 143.5 84t53.5 203q0 75 -35.5 121.5t-106.5 46.5zM430 616q-7 0 -13 0.5
t-10.5 1.5t-10 3t-8 2.5t-8.5 4t-7 4.5t-8 5t-8 5q-3 2 -12.5 8t-12 7.5t-9 4.5t-11 4t-10.5 1q-17 0 -27.5 -13t-11.5 -37h-55q-10 51 18 87.5t76 36.5q17 0 32 -5t21 -8.5t23 -14.5q35 -24 52 -24q32 0 36 51h58q9 -54 -17 -89t-77 -35zM522 767h-264l12 71h264z" />
    <glyph glyph-name="otildemacron" unicode="&#x22d;" horiz-adv-x="500" 
d="M280 473q86 0 134 -53t48 -146q0 -121 -64.5 -203.5t-176.5 -82.5q-82 0 -132.5 51.5t-50.5 144.5q0 121 64.5 205t177.5 84zM269 399q-63 0 -101.5 -61t-38.5 -147q0 -64 27 -98.5t75 -34.5q63 0 100.5 62.5t37.5 149.5q0 62 -26 95.5t-74 33.5zM355 496q-9 0 -17 1
t-12.5 2t-12.5 5t-10 4.5t-11 6.5t-10 6q-39 25 -56 25q-36 0 -39 -49h-54q-10 51 18 87.5t76 36.5q7 0 13 -0.5t10.5 -1.5t10.5 -3.5t9 -3.5t8.5 -4.5t7.5 -4.5t8.5 -5.5t8.5 -5.5q36 -23 52 -23q32 0 36 51h58q8 -54 -18 -89t-76 -35zM442 652h-262l13 73h262z" />
    <glyph glyph-name="Odotabove" unicode="&#x22e;" 
d="M284 -12q-108 0 -169 65.5t-61 174.5q0 171 87 272t215 101q109 0 170 -66t61 -175q0 -171 -87.5 -271.5t-215.5 -100.5zM348 521q-91 0 -144.5 -83.5t-53.5 -202.5q0 -79 37 -124t106 -45q90 0 143.5 84t53.5 203q0 75 -35.5 121.5t-106.5 46.5zM321 727q0 26 17.5 43
t42.5 17q27 0 44.5 -16.5t17.5 -43.5q0 -25 -18 -42.5t-44 -17.5q-25 0 -42.5 17.5t-17.5 42.5z" />
    <glyph glyph-name="odotabove" unicode="&#x22f;" horiz-adv-x="500" 
d="M280 473q86 0 134 -53t48 -146q0 -121 -64.5 -203.5t-176.5 -82.5q-82 0 -132.5 51.5t-50.5 144.5q0 121 64.5 205t177.5 84zM269 399q-63 0 -101.5 -61t-38.5 -147q0 -64 27 -98.5t75 -34.5q63 0 100.5 62.5t37.5 149.5q0 62 -26 95.5t-74 33.5zM270 609q0 26 17.5 43
t42.5 17q26 0 44 -17t18 -43q0 -25 -18 -42.5t-44 -17.5q-25 0 -42.5 17.5t-17.5 42.5z" />
    <glyph glyph-name="odotabovemacron" unicode="&#x231;" horiz-adv-x="500" 
d="M280 473q86 0 134 -53t48 -146q0 -121 -64.5 -203.5t-176.5 -82.5q-82 0 -132.5 51.5t-50.5 144.5q0 121 64.5 205t177.5 84zM269 399q-63 0 -101.5 -61t-38.5 -147q0 -64 27 -98.5t75 -34.5q63 0 100.5 62.5t37.5 149.5q0 62 -26 95.5t-74 33.5zM451 648h-262l13 73h262
zM242 555q0 26 17.5 43t42.5 17q26 0 44 -17t18 -43q0 -25 -18 -42.5t-44 -17.5q-25 0 -42.5 17.5t-17.5 42.5z" />
    <glyph glyph-name="odotabovemacron" unicode="&#xe11e;" horiz-adv-x="500" 
d="M280 473q86 0 134 -53t48 -146q0 -121 -64.5 -203.5t-176.5 -82.5q-82 0 -132.5 51.5t-50.5 144.5q0 121 64.5 205t177.5 84zM269 399q-63 0 -101.5 -61t-38.5 -147q0 -64 27 -98.5t75 -34.5q63 0 100.5 62.5t37.5 149.5q0 62 -26 95.5t-74 33.5zM451 648h-262l13 73h262
zM242 555q0 26 17.5 43t42.5 17q26 0 44 -17t18 -43q0 -25 -18 -42.5t-44 -17.5q-25 0 -42.5 17.5t-17.5 42.5z" />
    <glyph glyph-name="Ymacron" unicode="&#x232;" horiz-adv-x="506" 
d="M179 589l62 -187q9 -30 15 -58t7 -41l1 -13h4q14 45 56 112l121 187h100l-242 -366l-39 -223h-94l38 223l-127 366h98zM463 674h-264l13 71h263z" />
    <glyph glyph-name="ymacron" unicode="&#x233;" horiz-adv-x="431" 
d="M138 462l29 -259q5 -40 7 -76t2 -52l-1 -16h4q14 59 58 144l132 259h96l-275 -515q-50 -95 -95 -126.5t-104 -31.5q-44 0 -75 18l22 70q27 -17 57 -17q36 0 64 26t59 87l-75 489h95zM384 558h-262l14 73h261z" />
    <glyph glyph-name="dotlessj" unicode="&#x237;" horiz-adv-x="226" 
d="M204 462l-93 -530q-13 -79 -53.5 -111t-106.5 -32q-57 0 -94 26l29 70q31 -25 67 -25q26 0 42.5 17t24.5 60l93 525h91z" />
    <glyph glyph-name="schwa" unicode="&#x259;" horiz-adv-x="478" 
d="M249 403q-73 0 -108 -76l-80 22q51 124 196 124q85 0 134 -53.5t49 -142.5q0 -137 -69 -213t-163 -76q-85 0 -127.5 47.5t-42.5 118.5q0 52 20 95h290q6 63 -18.5 108.5t-80.5 45.5zM338 184h-207q-4 -13 -4 -32q0 -41 21.5 -67.5t64.5 -26.5q93 0 125 126z" />
    <glyph glyph-name="ezh" unicode="&#x292;" horiz-adv-x="418" 
d="M117 213l92 99q20 21 39.5 39t28.5 26l9 8l1 4q-34 -3 -94 -3h-127l14 76h330l-11 -60l-202 -202v-3q73 -4 109.5 -48.5t36.5 -110.5q0 -91 -64.5 -141.5t-149.5 -50.5q-81 0 -121 37.5t-42 102.5l77 23q-1 -46 24.5 -71t66.5 -25q54 0 88 32t34 89q0 53 -33.5 83.5
t-116.5 37.5z" />
    <glyph glyph-name="circumflex" unicode="&#x2c6;" horiz-adv-x="463" 
d="M231 675h52l100 -147h-89l-28 42q-7 10 -11 19.5t-5 14.5v4h-4q-7 -15 -30 -38l-42 -42h-94z" />
    <glyph glyph-name="caron" unicode="&#x2c7;" horiz-adv-x="463" 
d="M232 528h-52l-100 147h89l28 -41q7 -10 11 -19.5t4 -14.5l1 -4h4q7 15 30 38l42 41h94z" />
    <glyph glyph-name="breve" unicode="&#x2d8;" horiz-adv-x="436" 
d="M195 527q-65 0 -93.5 38.5t-17.5 102.5h71q-4 -37 6 -55.5t45 -18.5q36 0 53 18.5t26 55.5h71q-12 -65 -54 -103t-107 -38z" />
    <glyph glyph-name="dotaccent" unicode="&#x2d9;" horiz-adv-x="282" 
d="M80 609q0 26 17.5 43t42.5 17q26 0 44 -17t18 -43q0 -25 -18 -42.5t-44 -17.5q-25 0 -42.5 17.5t-17.5 42.5z" />
    <glyph glyph-name="ring" unicode="&#x2da;" horiz-adv-x="359" 
d="M80 610q0 45 30 75.5t78 30.5q41 0 66 -25t25 -63q0 -45 -30 -76t-77 -31q-44 0 -68 25t-24 64zM184 674q-23 0 -39 -17.5t-16 -41.5q0 -23 13 -36.5t36 -13.5t38 17t15 41q0 23 -12.5 37t-34.5 14z" />
    <glyph glyph-name="ogonek" unicode="&#x2db;" horiz-adv-x="374" 
d="M80 -116q0 71 60 116.5t123 47.5l31 -48q-57 0 -97.5 -29t-40.5 -75q0 -21 12.5 -33.5t32.5 -12.5q40 0 64 39l29 -43q-35 -57 -109 -57q-50 0 -77.5 25t-27.5 70z" />
    <glyph glyph-name="tilde" unicode="&#x2dc;" horiz-adv-x="482" 
d="M305 529q-9 0 -17 1t-12.5 2t-12.5 5t-10 4.5t-11 6.5t-10 6q-39 25 -56 25q-36 0 -39 -49h-54q-10 51 18 87.5t76 36.5q7 0 13 -0.5t10.5 -1.5t10.5 -3.5t9 -3.5t8.5 -4.5t7.5 -4.5t8.5 -5.5t8.5 -5.5q36 -23 52 -23q32 0 36 51h58q8 -54 -18 -89t-76 -35z" />
    <glyph glyph-name="hungarumlaut" unicode="&#x2dd;" horiz-adv-x="493" 
d="M147 529h-67l62 146h109zM297 529h-71l74 146h113z" />
    <glyph glyph-name="uni0312" unicode="&#x312;" horiz-adv-x="317" 
d="M80 722q0 54 37 81.5t98 27.5v-37q-74 -4 -74 -42q27 4 43.5 -9t16.5 -38t-15.5 -39t-41.5 -14q-28 0 -46 18t-18 52z" />
    <glyph glyph-name="uni0320" unicode="&#x320;" horiz-adv-x="435" 
d="M342 -183h-262l13 73h262z" />
    <glyph glyph-name="uni0323" unicode="&#x323;" horiz-adv-x="282" 
d="M80 -119q0 26 17.5 43t42.5 17q26 0 44 -17t18 -43q0 -25 -18 -42.5t-44 -17.5q-25 0 -42.5 17.5t-17.5 42.5z" />
    <glyph glyph-name="uni0329" unicode="&#x329;" horiz-adv-x="242" 
d="M80 -197v144h82v-139z" />
    <glyph glyph-name="pi" unicode="&#x3c0;" horiz-adv-x="625" 
d="M209 481h412l-13 -72h-106l-57 -299q-10 -57 25 -57q17 0 28 11t26 36l50 -40q-22 -40 -51.5 -56t-73.5 -16q-57 0 -80 32.5t-12 90.5l59 298h-124l-119 -409h-90l122 409h-13q-42 0 -67 -23t-28 -68h-74q4 80 52.5 121.5t133.5 41.5z" />
    <glyph glyph-name="pi" unicode="&#x3d6;" horiz-adv-x="625" 
d="M209 481h412l-13 -72h-106l-57 -299q-10 -57 25 -57q17 0 28 11t26 36l50 -40q-22 -40 -51.5 -56t-73.5 -16q-57 0 -80 32.5t-12 90.5l59 298h-124l-119 -409h-90l122 409h-13q-42 0 -67 -23t-28 -68h-74q4 80 52.5 121.5t133.5 41.5z" />
    <glyph glyph-name="uni0E3F" unicode="&#xe3f;" horiz-adv-x="500" 
d="M356 248v-3q48 -3 73.5 -29.5t25.5 -67.5q0 -148 -199 -148h-21l-18 -106h-50l18 106h-155l84 481h156l17 93h50l-17 -93q148 0 148 -109q0 -110 -112 -124zM290 210h-17l-25 -139h10q108 0 108 78q0 61 -76 61zM171 276h64l23 135h-64zM159 210l-24 -139h63l25 139h-64z
M378 356q0 52 -70 55l-23 -135q42 0 67.5 19.5t25.5 60.5z" />
    <glyph glyph-name="Ddotbelow" unicode="&#x1e0c;" horiz-adv-x="597" 
d="M146 77h86q100 0 163.5 69.5t63.5 209.5q0 156 -164 156h-73zM232 0h-194l103 589h169q124 0 186 -58t62 -167q0 -77 -18.5 -139.5t-49.5 -103.5t-73.5 -69t-88.5 -40t-96 -12zM126 -139q0 26 17.5 43t42.5 17q26 0 44 -17t18 -43q0 -25 -18 -42.5t-44 -17.5
q-25 0 -42.5 17.5t-17.5 42.5z" />
    <glyph glyph-name="ddotbelow" unicode="&#x1e0d;" horiz-adv-x="532" 
d="M347 192l15 79q9 52 -12.5 91.5t-71.5 39.5q-66 0 -108 -62t-42 -155q0 -55 24 -89.5t69 -34.5q49 0 82 34.5t44 96.5zM522 668l-98 -557q-8 -45 27 -45q9 0 29 5l-13 -67q-24 -9 -54 -9q-83 0 -81 82q-32 -89 -139 -89q-70 0 -112.5 50t-42.5 139q0 122 63 209t163 87
q104 0 118 -89l50 284h90zM136 -139q0 26 17.5 43t42.5 17q26 0 44 -17t18 -43q0 -25 -18 -42.5t-44 -17.5q-25 0 -42.5 17.5t-17.5 42.5z" />
    <glyph glyph-name="Dcedilla" unicode="&#x1e10;" horiz-adv-x="597" 
d="M290 -124q0 -42 -30.5 -64.5t-76.5 -22.5q-61 0 -90 38l24 51q25 -36 62 -36q39 0 39 34q0 41 -64 42l32 82h-148l103 589h169q124 0 186 -58t62 -167q0 -97 -28 -169.5t-76 -113.5t-104 -60.5t-121 -20.5l-17 -41q40 -8 59 -27.5t19 -55.5zM146 77h86q100 0 163.5 69.5
t63.5 209.5q0 156 -164 156h-73z" />
    <glyph glyph-name="dcedilla" unicode="&#x1e11;" horiz-adv-x="532" 
d="M300 -124q0 -42 -30.5 -64.5t-76.5 -22.5q-60 0 -90 38l24 51q25 -36 62 -36q39 0 39 34q0 41 -63 42l26 70q-22 2 -32 4q-56 11 -88.5 59t-32.5 126q0 112 53.5 195.5t141.5 97.5q22 3 40 2q94 -3 109 -88l50 284h90l-98 -557q-8 -45 27 -45q9 0 29 5l-13 -67
q-24 -9 -54 -9q-83 0 -81 82q-24 -67 -95 -82l-15 -36q40 -8 59 -27.5t19 -55.5zM347 192l15 79q9 52 -12.5 91.5t-71.5 39.5q-66 0 -108 -62t-42 -155q0 -55 24 -89.5t69 -34.5q49 0 82 34.5t44 96.5z" />
    <glyph glyph-name="Hdotbelow" unicode="&#x1e24;" 
d="M132 0h-94l103 589h94l-43 -250h278l44 250h94l-103 -589h-94l45 259h-279zM185 -139q0 26 17.5 43t42.5 17q26 0 44 -17t18 -43q0 -25 -18 -42.5t-44 -17.5q-25 0 -42.5 17.5t-17.5 42.5z" />
    <glyph glyph-name="hdotbelow" unicode="&#x1e25;" horiz-adv-x="519" 
d="M456 318l-36 -207q-8 -45 27 -45q9 0 29 5l-13 -67q-24 -9 -54 -9q-100 0 -81 107l37 208q17 87 -60 87q-43 0 -81 -35t-51 -111l-44 -251h-91l116 668h93l-54 -300q49 105 149 105q54 0 86 -29t32 -82q0 -24 -4 -44zM145 -139q0 26 17.5 43t42.5 17q26 0 44 -17t18 -43
q0 -25 -18 -42.5t-44 -17.5q-25 0 -42.5 17.5t-17.5 42.5z" />
    <glyph glyph-name="Ldotbelow" unicode="&#x1e36;" horiz-adv-x="461" 
d="M141 589h94l-89 -509h261l-13 -80h-356zM135 -139q0 26 17.5 43t42.5 17q26 0 44 -17t18 -43q0 -25 -18 -42.5t-44 -17.5q-25 0 -42.5 17.5t-17.5 42.5z" />
    <glyph glyph-name="ldotbelow" unicode="&#x1e37;" horiz-adv-x="250" 
d="M240 668l-98 -557q-8 -45 27 -45q9 0 29 5l-13 -67q-24 -9 -54 -9q-100 0 -81 107l99 566h91zM14 -139q0 26 17.5 43t42.5 17q26 0 44 -17t18 -43q0 -25 -18 -42.5t-44 -17.5q-25 0 -42.5 17.5t-17.5 42.5z" />
    <glyph glyph-name="uni004C032300AF" unicode="&#x1e38;" horiz-adv-x="461" 
d="M141 589h94l-89 -509h261l-13 -80h-356zM135 -139q0 26 17.5 43t42.5 17q26 0 44 -17t18 -43q0 -25 -18 -42.5t-44 -17.5q-25 0 -42.5 17.5t-17.5 42.5zM342 674h-264l12 71h264z" />
    <glyph glyph-name="ldotbelowmacron" unicode="&#x1e39;" horiz-adv-x="250" 
d="M240 668l-98 -557q-8 -45 27 -45q9 0 29 5l-13 -67q-24 -9 -54 -9q-100 0 -81 107l99 566h91zM14 -139q0 26 17.5 43t42.5 17q26 0 44 -17t18 -43q0 -25 -18 -42.5t-44 -17.5q-25 0 -42.5 17.5t-17.5 42.5zM340 709h-264l12 71h264z" />
    <glyph glyph-name="Mdotbelow" unicode="&#x1e42;" horiz-adv-x="700" 
d="M369 144h-61l-72 198q-10 28 -16.5 55t-7.5 40l-2 13h-4q-2 -37 -13 -107l-61 -343h-94l103 589h105l87 -261q8 -24 13 -45.5t6 -30.5l1 -10h4q9 32 45 83l179 264h105l-103 -589h-95l61 343q5 31 10.5 58t8.5 38l4 11h-4q-17 -40 -61 -104zM223 -139q0 26 17.5 43
t42.5 17q26 0 44 -17t18 -43q0 -25 -18 -42.5t-44 -17.5q-25 0 -42.5 17.5t-17.5 42.5z" />
    <glyph glyph-name="mdotbelow" unicode="&#x1e43;" horiz-adv-x="769" 
d="M390 0h-91l55 310q15 87 -59 87q-38 0 -73.5 -35t-48.5 -111l-44 -251h-91l81 462h79l-5 -94q26 54 57.5 79.5t85.5 25.5q51 0 81.5 -29.5t30.5 -82.5q46 112 149 112q51 0 81.5 -29t30.5 -82q0 -24 -3 -44l-36 -207q-8 -45 26 -45q10 0 30 5l-13 -67q-24 -9 -54 -9
q-100 0 -81 107l37 208q15 87 -59 87q-38 0 -73.5 -35t-48.5 -111zM255 -139q0 26 17.5 43t42.5 17q26 0 44 -17t18 -43q0 -25 -18 -42.5t-44 -17.5q-25 0 -42.5 17.5t-17.5 42.5z" />
    <glyph glyph-name="Ndotaccent" unicode="&#x1e44;" 
d="M235 589l154 -331q13 -29 24.5 -60t16.5 -48l5 -16h4q7 68 20 142l55 313h94l-103 -589h-91l-158 328q-13 28 -25 59.5t-17 48.5l-6 17h-4q-4 -65 -17 -141l-55 -312h-94l103 589h94zM322 727q0 26 17.5 43t42.5 17q27 0 44.5 -16.5t17.5 -43.5q0 -25 -18 -42.5
t-44 -17.5q-25 0 -42.5 17.5t-17.5 42.5z" />
    <glyph glyph-name="ndotaccent" unicode="&#x1e45;" horiz-adv-x="519" 
d="M456 318l-36 -207q-8 -45 27 -45q9 0 29 5l-13 -67q-24 -9 -54 -9q-100 0 -81 107l37 208q17 87 -60 87q-43 0 -81 -35t-51 -111l-44 -251h-91l81 462h79l-5 -94q49 105 149 105q54 0 86 -29t32 -82q0 -24 -4 -44zM250 609q0 26 17.5 43t42.5 17q26 0 44 -17t18 -43
q0 -25 -18 -42.5t-44 -17.5q-25 0 -42.5 17.5t-17.5 42.5z" />
    <glyph glyph-name="Ndotbelow" unicode="&#x1e46;" 
d="M235 589l154 -331q13 -29 24.5 -60t16.5 -48l5 -16h4q7 68 20 142l55 313h94l-103 -589h-91l-158 328q-13 28 -25 59.5t-17 48.5l-6 17h-4q-4 -65 -17 -141l-55 -312h-94l103 589h94zM174 -139q0 26 17.5 43t42.5 17q26 0 44 -17t18 -43q0 -25 -18 -42.5t-44 -17.5
q-25 0 -42.5 17.5t-17.5 42.5z" />
    <glyph glyph-name="ndotbelow" unicode="&#x1e47;" horiz-adv-x="519" 
d="M456 318l-36 -207q-8 -45 27 -45q9 0 29 5l-13 -67q-24 -9 -54 -9q-100 0 -81 107l37 208q17 87 -60 87q-43 0 -81 -35t-51 -111l-44 -251h-91l81 462h79l-5 -94q49 105 149 105q54 0 86 -29t32 -82q0 -24 -4 -44zM122 -139q0 26 17.5 43t42.5 17q27 0 45 -17t18 -43
t-18 -43t-45 -17q-25 0 -42.5 17.5t-17.5 42.5z" />
    <glyph glyph-name="Rdotbelow" unicode="&#x1e5a;" horiz-adv-x="547" 
d="M489 0h-101q-15 17 -22 55l-17 102q-8 49 -29 65.5t-69 16.5h-77l-42 -239h-94l103 589h202q93 0 133 -35.5t40 -107.5q0 -80 -49 -124t-112 -47v-4q41 -6 60.5 -26.5t27.5 -66.5l21 -116q6 -36 25 -62zM222 512l-34 -196h106q125 0 125 116q0 41 -21.5 60.5t-70.5 19.5
h-105zM160 -139q0 26 17.5 43t42.5 17q26 0 44 -17t18 -43q0 -25 -18 -42.5t-44 -17.5q-25 0 -42.5 17.5t-17.5 42.5z" />
    <glyph glyph-name="rdotbelow" unicode="&#x1e5b;" horiz-adv-x="346" 
d="M367 471l-23 -107q-54 15 -106.5 -13.5t-63.5 -92.5l-45 -258h-91l81 462h79l-8 -109q25 59 74 93t103 25zM4 -139q0 26 17.5 43t42.5 17q26 0 44 -17t18 -43q0 -25 -18 -42.5t-44 -17.5q-25 0 -42.5 17.5t-17.5 42.5z" />
    <glyph glyph-name="Rdotbelowmacron" unicode="&#x1e5c;" horiz-adv-x="547" 
d="M489 0h-101q-15 17 -22 55l-17 102q-8 49 -29 65.5t-69 16.5h-77l-42 -239h-94l103 589h202q93 0 133 -35.5t40 -107.5q0 -80 -49 -124t-112 -47v-4q41 -6 60.5 -26.5t27.5 -66.5l21 -116q6 -36 25 -62zM222 512l-34 -196h106q125 0 125 116q0 41 -21.5 60.5t-70.5 19.5
h-105zM160 -139q0 26 17.5 43t42.5 17q26 0 44 -17t18 -43q0 -25 -18 -42.5t-44 -17.5q-25 0 -42.5 17.5t-17.5 42.5zM467 674h-264l13 71h263z" />
    <glyph glyph-name="rdotbelowmacron" unicode="&#x1e5d;" horiz-adv-x="346" 
d="M367 471l-23 -107q-54 15 -106.5 -13.5t-63.5 -92.5l-45 -258h-91l81 462h79l-8 -109q25 59 74 93t103 25zM384 558h-262l13 73h262zM4 -139q0 26 17.5 43t42.5 17q26 0 44 -17t18 -43q0 -25 -18 -42.5t-44 -17.5q-25 0 -42.5 17.5t-17.5 42.5z" />
    <glyph glyph-name="Sdotbelow" unicode="&#x1e62;" horiz-adv-x="489" 
d="M18 143l85 21q-1 -53 28.5 -79.5t83.5 -26.5t84 24t30 72q0 41 -22 64.5t-80 45.5q-69 24 -103.5 59.5t-34.5 102.5q0 62 33.5 103.5t76.5 56.5t92 15q90 0 136.5 -37t47.5 -120l-90 -15q1 48 -25 73.5t-76 25.5q-48 0 -77.5 -24t-29.5 -66q0 -39 22 -56.5t83 -41.5
q73 -29 106.5 -67t33.5 -106q0 -91 -61 -135t-156 -44q-184 0 -187 155zM109 -139q0 26 17.5 43t42.5 17q26 0 44 -17t18 -43q0 -25 -18 -42.5t-44 -17.5q-25 0 -42.5 17.5t-17.5 42.5z" />
    <glyph glyph-name="sdotbelow" unicode="&#x1e63;" horiz-adv-x="409" 
d="M16 122l80 20q0 -45 23.5 -67.5t63.5 -22.5q80 0 80 65q0 31 -17.5 49.5t-63.5 34.5q-57 20 -84 51.5t-27 81.5q0 67 46.5 103t119.5 36q147 0 147 -123l-82 -13q0 71 -72 71q-34 0 -54.5 -16.5t-20.5 -46.5q0 -25 17 -41.5t69 -36.5q60 -24 84.5 -56.5t24.5 -85.5
q0 -69 -46 -103t-124 -34q-77 0 -120 35t-44 99zM74 -139q0 26 17.5 43t42.5 17q26 0 44 -17t18 -43q0 -25 -18 -42.5t-44 -17.5q-25 0 -42.5 17.5t-17.5 42.5z" />
    <glyph glyph-name="Tdotbelow" unicode="&#x1e6c;" horiz-adv-x="481" 
d="M245 0h-94l88 509h-171l14 80h439l-15 -80h-172zM113 -139q0 26 17.5 43t42.5 17q26 0 44 -17t18 -43q0 -25 -18 -42.5t-44 -17.5q-25 0 -42.5 17.5t-17.5 42.5z" />
    <glyph glyph-name="tdotbelow" unicode="&#x1e6d;" horiz-adv-x="316" 
d="M263 88v-76q-42 -24 -99 -24q-135 0 -108 148l44 254h-64l13 72h65l17 97l92 12l-19 -109h121l-13 -72h-120l-46 -260q-12 -65 39 -65q36 0 78 23zM52 -139q0 26 17.5 43t42.5 17q26 0 44 -17t18 -43q0 -25 -18 -42.5t-44 -17.5q-25 0 -42.5 17.5t-17.5 42.5z" />
    <glyph glyph-name="Wgrave" unicode="&#x1e80;" horiz-adv-x="833" 
d="M527 589l31 -369q4 -41 5 -80.5t1 -59.5l-1 -19h4q17 67 53 158l148 370h98l-246 -589h-131l-30 347q-3 46 -3 81t2 55l2 20h-4q-14 -65 -53 -156l-149 -347h-129l-29 589h93l15 -367l1 -161h4q14 69 54 160l158 368h106zM525 653h-82l-100 123h120z" />
    <glyph glyph-name="wgrave" unicode="&#x1e81;" horiz-adv-x="676" 
d="M419 462l22 -242q4 -41 5 -80t0 -58l-2 -18h4q12 62 52 156l105 242h95l-207 -462h-108l-25 219q-4 39 -4.5 75.5t0.5 53.5l1 17h-4q-15 -57 -54 -146l-95 -219h-108l-48 462h93l20 -242q4 -41 5 -80t0 -58l-1 -18h4q14 65 54 157l108 241h88zM427 529h-79l-115 146h120z
" />
    <glyph glyph-name="Wacute" unicode="&#x1e82;" horiz-adv-x="833" 
d="M527 589l31 -369q4 -41 5 -80.5t1 -59.5l-1 -19h4q17 67 53 158l148 370h98l-246 -589h-131l-30 347q-3 46 -3 81t2 55l2 20h-4q-14 -65 -53 -156l-149 -347h-129l-29 589h93l15 -367l1 -161h4q14 69 54 160l158 368h106zM516 653h-82l62 123h120z" />
    <glyph glyph-name="wacute" unicode="&#x1e83;" horiz-adv-x="676" 
d="M419 462l22 -242q4 -41 5 -80t0 -58l-2 -18h4q12 62 52 156l105 242h95l-207 -462h-108l-25 219q-4 39 -4.5 75.5t0.5 53.5l1 17h-4q-15 -57 -54 -146l-95 -219h-108l-48 462h93l20 -242q4 -41 5 -80t0 -58l-1 -18h4q14 65 54 157l108 241h88zM412 529h-79l74 146h121z
" />
    <glyph glyph-name="Wdieresis" unicode="&#x1e84;" horiz-adv-x="833" 
d="M527 589l31 -369q4 -41 5 -80.5t1 -59.5l-1 -19h4q17 67 53 158l148 370h98l-246 -589h-131l-30 347q-3 46 -3 81t2 55l2 20h-4q-14 -65 -53 -156l-149 -347h-129l-29 589h93l15 -367l1 -161h4q14 69 54 160l158 368h106zM329 713q0 26 17.5 43t41.5 17q25 0 42 -17
t17 -43q0 -25 -17 -42t-42 -17q-24 0 -41.5 17t-17.5 42zM525 712q0 26 17.5 43t41.5 17q25 0 42 -17t17 -43q0 -25 -17 -42t-42 -17q-24 0 -41.5 17t-17.5 42z" />
    <glyph glyph-name="wdieresis" unicode="&#x1e85;" horiz-adv-x="676" 
d="M419 462l22 -242q4 -41 5 -80t0 -58l-2 -18h4q12 62 52 156l105 242h95l-207 -462h-108l-25 219q-4 39 -4.5 75.5t0.5 53.5l1 17h-4q-15 -57 -54 -146l-95 -219h-108l-48 462h93l20 -242q4 -41 5 -80t0 -58l-1 -18h4q14 65 54 157l108 241h88zM231 595q0 26 17.5 43
t41.5 17q25 0 42 -17t17 -43q0 -25 -17 -42t-42 -17q-24 0 -41.5 17t-17.5 42zM427 594q0 26 17.5 43t41.5 17q25 0 42.5 -17t17.5 -43q0 -25 -17.5 -42t-42.5 -17q-24 0 -41.5 17t-17.5 42z" />
    <glyph glyph-name="Idotbelow" unicode="&#x1eca;" horiz-adv-x="249" 
d="M141 589h94l-103 -589h-94zM-1 -139q0 26 17.5 43t42.5 17q26 0 44 -17t18 -43q0 -25 -18 -42.5t-44 -17.5q-25 0 -42.5 17.5t-17.5 42.5z" />
    <glyph glyph-name="idotbelow" unicode="&#x1ecb;" horiz-adv-x="253" 
d="M204 462l-62 -351q-8 -45 27 -45q9 0 29 5l-13 -67q-24 -9 -54 -9q-100 0 -81 107l63 360h91zM121 610q0 26 17.5 43t42.5 17q26 0 44 -17t18 -43q0 -25 -18 -42.5t-44 -17.5q-25 0 -42.5 17.5t-17.5 42.5zM6 -139q0 26 17.5 43t42.5 17q27 0 45 -17t18 -43t-18 -43
t-45 -17q-25 0 -42.5 17.5t-17.5 42.5z" />
    <glyph glyph-name="Odotbelow" unicode="&#x1ecc;" 
d="M284 -12q-108 0 -169 65.5t-61 174.5q0 171 87 272t215 101q109 0 170 -66t61 -175q0 -171 -87.5 -271.5t-215.5 -100.5zM348 521q-91 0 -144.5 -83.5t-53.5 -202.5q0 -79 37 -124t106 -45q90 0 143.5 84t53.5 203q0 75 -35.5 121.5t-106.5 46.5zM173 -139q0 26 17.5 43
t42.5 17q26 0 44 -17t18 -43q0 -25 -18 -42.5t-44 -17.5q-25 0 -42.5 17.5t-17.5 42.5z" />
    <glyph glyph-name="odotbelow" unicode="&#x1ecd;" horiz-adv-x="500" 
d="M280 473q86 0 134 -53t48 -146q0 -121 -64.5 -203.5t-176.5 -82.5q-82 0 -132.5 51.5t-50.5 144.5q0 121 64.5 205t177.5 84zM269 399q-63 0 -101.5 -61t-38.5 -147q0 -64 27 -98.5t75 -34.5q63 0 100.5 62.5t37.5 149.5q0 62 -26 95.5t-74 33.5zM106 -139q0 26 17.5 43
t42.5 17q26 0 44 -17t18 -43q0 -25 -18 -42.5t-44 -17.5q-25 0 -42.5 17.5t-17.5 42.5z" />
    <glyph glyph-name="Udotbelow" unicode="&#x1ee4;" horiz-adv-x="589" 
d="M491 589h94l-70 -399q-19 -110 -84.5 -156t-169.5 -46t-160.5 57t-34.5 178l63 366h95l-66 -372q-13 -77 18 -114.5t97 -37.5q64 0 101 34t50 110zM163 -139q0 26 17.5 43t42.5 17q26 0 44 -17t18 -43q0 -25 -18 -42.5t-44 -17.5q-25 0 -42.5 17.5t-17.5 42.5z" />
    <glyph glyph-name="udotbelow" unicode="&#x1ee5;" horiz-adv-x="517" 
d="M318 87q-40 -99 -146 -99q-73 0 -103 45.5t-16 128.5l52 300h91l-54 -311q-8 -46 8 -71t53 -25q43 0 79 34.5t47 94.5l48 278h91l-62 -351q-8 -45 27 -45q9 0 29 5l-13 -67q-24 -9 -54 -9q-46 0 -64 23t-13 69zM113 -139q0 26 17.5 43t42.5 17q26 0 44 -17t18 -43
q0 -25 -18 -42.5t-44 -17.5q-25 0 -42.5 17.5t-17.5 42.5z" />
    <glyph glyph-name="Ygrave" unicode="&#x1ef2;" horiz-adv-x="506" 
d="M179 589l62 -187q9 -30 15 -58t7 -41l1 -13h4q14 45 56 112l121 187h100l-242 -366l-39 -223h-94l38 223l-127 366h98zM372 653h-83l-100 123h120z" />
    <glyph glyph-name="ygrave" unicode="&#x1ef3;" horiz-adv-x="431" 
d="M138 462l29 -259q5 -40 7 -76t2 -52l-1 -16h4q14 59 58 144l132 259h96l-275 -515q-50 -95 -95 -126.5t-104 -31.5q-44 0 -75 18l22 70q27 -17 57 -17q36 0 64 26t59 87l-75 489h95zM298 529h-79l-115 146h120z" />
    <glyph glyph-name="Ytilde" unicode="&#x1ef8;" horiz-adv-x="506" 
d="M179 589l62 -187q9 -30 15 -58t7 -41l1 -13h4q14 45 56 112l121 187h100l-242 -366l-39 -223h-94l38 223l-127 366h98zM388 653q-10 0 -18.5 1t-17 4.5t-12 5t-14 8t-11.5 7.5q-37 25 -55 25q-17 0 -27.5 -12.5t-11.5 -36.5h-55q-10 50 18 86.5t76 36.5q17 0 32 -5
t21 -8.5t23 -14.5q36 -23 52 -23q32 0 36 51h58q9 -55 -17 -90t-77 -35z" />
    <glyph glyph-name="ytilde" unicode="&#x1ef9;" horiz-adv-x="431" 
d="M138 462l29 -259q5 -40 7 -76t2 -52l-1 -16h4q14 59 58 144l132 259h96l-275 -515q-50 -95 -95 -126.5t-104 -31.5q-44 0 -75 18l22 70q27 -17 57 -17q36 0 64 26t59 87l-75 489h95zM322 529q-9 0 -17 1t-12.5 2t-12.5 5t-10 4.5t-11 6.5t-10 6q-37 25 -55 25
q-17 0 -27.5 -12.5t-11.5 -36.5h-55q-10 51 18 87.5t76 36.5q7 0 13 -0.5t10.5 -1.5t10.5 -3.5t9 -3.5t8.5 -4.5t7.5 -4.5t8.5 -5.5t8.5 -5.5q36 -23 52 -23q32 0 36 51h58q9 -54 -17 -89t-77 -35z" />
    <glyph glyph-name="enspace" unicode="&#x2002;" horiz-adv-x="450" 
 />
    <glyph glyph-name="emspace" unicode="&#x2003;" horiz-adv-x="900" 
 />
    <glyph glyph-name="threeperemspace" unicode="&#x2004;" horiz-adv-x="300" 
 />
    <glyph glyph-name="fourperemspace" unicode="&#x2005;" horiz-adv-x="225" 
 />
    <glyph glyph-name="sixperemspace" unicode="&#x2006;" horiz-adv-x="150" 
 />
    <glyph glyph-name="figurespace" unicode="&#x2007;" horiz-adv-x="513" 
 />
    <glyph glyph-name="punctuationspace" unicode="&#x2008;" horiz-adv-x="171" 
 />
    <glyph glyph-name="thinspace" unicode="&#x2009;" horiz-adv-x="90" 
 />
    <glyph glyph-name="hairspace" unicode="&#x200a;" horiz-adv-x="45" 
 />
    <glyph glyph-name="zerowidthspace" unicode="&#x200b;" horiz-adv-x="0" 
 />
    <glyph glyph-name="figuredash" unicode="&#x2012;" horiz-adv-x="570" 
d="M68 220l11 64h423l-11 -64h-423z" />
    <glyph glyph-name="endash" unicode="&#x2013;" horiz-adv-x="511" 
d="M68 220l11 64h364l-11 -64h-364z" />
    <glyph glyph-name="emdash" unicode="&#x2014;" horiz-adv-x="1011" 
d="M68 220l11 64h864l-11 -64h-864z" />
    <glyph glyph-name="uni2015" unicode="&#x2015;" horiz-adv-x="1250" 
d="M70 220l11 64h1099l-11 -64h-1099z" />
    <glyph glyph-name="doublebar" unicode="&#x2016;" horiz-adv-x="393" 
d="M80 -203h-77l153 872h77zM241 -203h-77l153 872h77z" />
    <glyph glyph-name="quoteleft" unicode="&#x2018;" horiz-adv-x="227" 
d="M99 531q0 70 48.5 106.5t123.5 40.5v-43q-43 -5 -74 -24.5t-31 -50.5q31 6 51.5 -9.5t20.5 -45.5q0 -29 -18.5 -45.5t-48.5 -16.5q-31 0 -51.5 24t-20.5 64z" />
    <glyph glyph-name="quoteright" unicode="&#x2019;" horiz-adv-x="227" 
d="M247 590q0 -70 -48.5 -106.5t-123.5 -40.5v43q43 5 74.5 24.5t31.5 50.5q-31 -6 -51.5 10t-20.5 45t18 45.5t48 16.5q32 0 52 -23.5t20 -64.5z" />
    <glyph glyph-name="quotesinglbase" unicode="&#x201a;" horiz-adv-x="227" 
d="M157 27q0 -70 -48.5 -106t-123.5 -40v43q43 5 74.5 24t31.5 50q-32 -5 -52 10.5t-20 45.5q0 29 18 45t48 16q32 0 52 -23.5t20 -64.5z" />
    <glyph glyph-name="reversequoteleft" unicode="&#x201b;" horiz-adv-x="188" 
d="M84 591q0 40 20.5 64t51.5 24q30 0 48.5 -16.5t18.5 -45.5t-20.5 -45t-51.5 -10q0 -31 31 -50.5t74 -24.5v-43q-75 4 -123.5 40.5t-48.5 106.5z" />
    <glyph glyph-name="quotedblleft" unicode="&#x201c;" horiz-adv-x="415" 
d="M99 531q0 70 48.5 106.5t123.5 40.5v-43q-43 -5 -74 -24.5t-31 -50.5q31 6 51.5 -9.5t20.5 -45.5q0 -29 -18.5 -45.5t-48.5 -16.5q-31 0 -51.5 24t-20.5 64zM287 531q0 70 48.5 106.5t123.5 40.5v-43q-43 -5 -74 -24.5t-31 -50.5q31 6 51.5 -9.5t20.5 -45.5
q0 -29 -18.5 -45.5t-48.5 -16.5q-31 0 -51.5 24t-20.5 64z" />
    <glyph glyph-name="quotedblright" unicode="&#x201d;" horiz-adv-x="415" 
d="M247 590q0 -70 -48.5 -106.5t-123.5 -40.5v43q43 5 74.5 24.5t31.5 50.5q-31 -6 -51.5 10t-20.5 45t18 45.5t48 16.5q32 0 52 -23.5t20 -64.5zM435 590q0 -70 -48.5 -106.5t-123.5 -40.5v43q43 5 74.5 24.5t31.5 50.5q-31 -6 -51.5 10t-20.5 45t18 45.5t48 16.5
q32 0 52 -23.5t20 -64.5z" />
    <glyph glyph-name="quotedblbase" unicode="&#x201e;" horiz-adv-x="415" 
d="M157 31q0 -70 -48.5 -106.5t-123.5 -40.5v43q43 5 74.5 24.5t31.5 50.5q-31 -6 -51.5 10t-20.5 45t18 45.5t48 16.5q32 0 52 -23.5t20 -64.5zM345 31q0 -70 -48.5 -106.5t-123.5 -40.5v43q43 5 74.5 24.5t31.5 50.5q-31 -6 -51.5 10t-20.5 45t18 45.5t48 16.5
q32 0 52 -23.5t20 -64.5z" />
    <glyph glyph-name="reversequotedblleft" unicode="&#x201f;" horiz-adv-x="353" 
d="M84 592q0 40 20.5 64t51.5 24q30 0 48.5 -16.5t18.5 -45.5q0 -30 -20.5 -45.5t-51.5 -9.5q0 -31 31 -50.5t74 -24.5v-43q-75 4 -123.5 40.5t-48.5 106.5zM250 592q0 40 20 64t52 24q30 0 48 -16.5t18 -45.5q0 -30 -20.5 -45.5t-51.5 -9.5q0 -31 31.5 -50.5t74.5 -24.5
v-43q-75 4 -123.5 40.5t-48.5 106.5z" />
    <glyph glyph-name="dagger" unicode="&#x2020;" horiz-adv-x="546" 
d="M286 288l-190 -11l16 89l186 -10l31 233h95l-51 -233l189 10l-16 -89l-185 11l-67 -437h-95z" />
    <glyph glyph-name="daggerdbl" unicode="&#x2021;" horiz-adv-x="546" 
d="M364 306l-31 -169l190 11l-15 -88l-185 11l-29 -221h-95l50 221l-191 -11l15 88l186 -11l30 169l-190 -11l16 87l186 -11l28 218h95l-49 -218l189 11l-15 -87z" />
    <glyph glyph-name="bullet" unicode="&#x2022;" horiz-adv-x="323" 
d="M71 243q0 35 25 60.5t60 25.5q36 0 61.5 -25.5t25.5 -60.5t-25.5 -60t-61.5 -25q-34 0 -59.5 25t-25.5 60z" />
    <glyph glyph-name="ellipsis" unicode="&#x2026;" horiz-adv-x="858" 
d="M46 62q0 29 19.5 48.5t48.5 19.5t48.5 -19.5t19.5 -48.5q0 -28 -20 -48t-48 -20t-48 20t-20 48zM332 62q0 29 19.5 48.5t48.5 19.5t48.5 -19.5t19.5 -48.5q0 -28 -20 -48t-48 -20t-48 20t-20 48zM618 62q0 29 19.5 48.5t48.5 19.5t48.5 -19.5t19.5 -48.5q0 -28 -20 -48
t-48 -20t-48 20t-20 48z" />
    <glyph glyph-name="perthousand" unicode="&#x2030;" horiz-adv-x="1221" 
d="M163 229q-60 0 -91 39t-31 107q0 86 44 154t122 68q58 0 90 -40.5t32 -109.5q0 -87 -43.5 -152.5t-122.5 -65.5zM200 534q-31 0 -52 -30t-28 -63.5t-7 -63.5q0 -41 15 -65.5t43 -24.5q31 0 52 31t28 65t7 64q0 87 -58 87zM194 0l410 590h65l-409 -590h-66zM654 -7
q-60 0 -91 39t-31 107q0 86 44 154t122 68q58 0 90 -40.5t32 -109.5q0 -87 -43.5 -152.5t-122.5 -65.5zM691 298q-31 0 -52 -30t-28 -63.5t-7 -63.5q0 -41 15 -65.5t43 -24.5q31 0 52 31t28 65t7 64q0 87 -58 87zM1014 -7q-60 0 -91 39t-31 107q0 86 44 154t122 68
q58 0 90 -40.5t32 -109.5q0 -87 -43.5 -152.5t-122.5 -65.5zM1051 298q-31 0 -52 -30t-28 -63.5t-7 -63.5q0 -41 15 -65.5t43 -24.5q31 0 52 31t28 65t7 64q0 87 -58 87z" />
    <glyph glyph-name="tripleprime" unicode="&#x2034;" horiz-adv-x="477" 
d="M76 412l45 256h98l-87 -256h-56zM224 412l45 256h98l-87 -256h-56zM372 412l45 256h98l-87 -256h-56z" />
    <glyph glyph-name="guilsinglleft" unicode="&#x2039;" horiz-adv-x="324" 
d="M109 234v-4q11 -4 42 -48l84 -116l-58 -45l-148 213l223 213l43 -47l-119 -117q-16 -16 -33 -28.5t-25 -16.5z" />
    <glyph glyph-name="guilsinglright" unicode="&#x203a;" horiz-adv-x="324" 
d="M214 234v4q-11 4 -42 47l-83 117l58 45l148 -213l-223 -213l-43 47l119 116q16 16 32.5 28.5t25.5 17.5z" />
    <glyph glyph-name="fraction" unicode="&#x2044;" horiz-adv-x="139" 
d="M-168 0l410 590h65l-409 -590h-66z" />
    <glyph glyph-name="uni2070" unicode="&#x2070;" horiz-adv-x="362" 
d="M159 229q-60 0 -91 39t-31 107q0 86 44 154t122 68q58 0 90 -40.5t32 -109.5q0 -87 -43.5 -152.5t-122.5 -65.5zM196 534q-31 0 -52 -30t-28 -63.5t-7 -63.5q0 -41 15 -65.5t43 -24.5q31 0 52 31t28 65t7 64q0 87 -58 87z" />
    <glyph glyph-name="uni2074" unicode="&#x2074;" horiz-adv-x="356" 
d="M173 236l15 86h-179l10 54l213 213h75l-37 -213h57l-10 -54h-57l-15 -86h-72zM200 375l14 84l17 71h-4q-15 -26 -46 -59l-50 -50q-13 -13 -27 -24.5t-22 -16.5l-7 -5l-1 -4q16 4 57 4h69z" />
    <glyph glyph-name="uni2075" unicode="&#x2075;" horiz-adv-x="329" 
d="M57 391l43 198h210l-10 -59h-153l-22 -94q21 26 65 26q45 0 70.5 -27.5t25.5 -74.5q0 -64 -39.5 -97.5t-103.5 -33.5q-115 0 -126 89l66 21q6 -57 62 -57q34 0 52.5 19t18.5 55q0 27 -14 42.5t-35 15.5q-30 0 -51 -23h-59z" />
    <glyph glyph-name="uni2076" unicode="&#x2076;" horiz-adv-x="348" 
d="M330 529l-59 -30q-9 40 -54 40q-42 0 -74 -40.5t-40 -105.5h4q26 69 101 69q47 0 72 -28t25 -68q0 -61 -41 -99t-106 -38q-58 0 -89.5 34.5t-31.5 99.5q0 104 56 169t133 65q86 0 104 -68zM113 333q0 -23 13.5 -37.5t38.5 -14.5q30 0 52 20.5t22 58.5q0 22 -14 36t-39 14
q-30 0 -51.5 -21t-21.5 -56z" />
    <glyph glyph-name="uni2077" unicode="&#x2077;" horiz-adv-x="303" 
d="M221 528h-129l-10 -53h-62l20 114h277l-7 -40l-197 -313h-80z" />
    <glyph glyph-name="uni2078" unicode="&#x2078;" horiz-adv-x="342" 
d="M149 229q-61 0 -93 24t-32 66q0 38 26 65t65 34v4q-54 21 -54 70t41.5 77t99.5 28q56 0 86 -23t30 -62t-22.5 -62.5t-59.5 -31.5v-3q62 -20 62 -79q0 -49 -42.5 -78t-106.5 -29zM195 546q-28 0 -46.5 -15.5t-18.5 -43.5q0 -20 13.5 -32t36.5 -12q28 0 47.5 15t19.5 44
q0 19 -13.5 31.5t-38.5 12.5zM171 392q-29 0 -51 -17t-22 -47q0 -50 56 -50q31 0 52.5 16.5t21.5 47.5q0 50 -57 50z" />
    <glyph glyph-name="uni2079" unicode="&#x2079;" horiz-adv-x="348" 
d="M10 297l59 28q8 -39 62 -39q44 0 75 37t38 112h-4q-22 -71 -95 -71q-50 0 -77 28.5t-27 69.5q0 60 40 97.5t106 37.5q58 0 91 -36t33 -102q0 -106 -50.5 -168t-134.5 -62q-99 0 -116 68zM233 493q0 22 -14 36t-39 14q-30 0 -51.5 -19.5t-21.5 -55.5q0 -23 13.5 -37
t38.5 -14q31 0 52.5 20.5t21.5 55.5z" />
    <glyph glyph-name="uni207A" unicode="&#x207a;" horiz-adv-x="443" 
d="M48 442h153l26 148h46l-27 -148h157l-8 -46h-157l-28 -160h-46l29 160h-153z" />
    <glyph glyph-name="uni207B" unicode="&#x207b;" horiz-adv-x="444" 
d="M395 396h-355l8 46h356z" />
    <glyph glyph-name="uni207C" unicode="&#x207c;" horiz-adv-x="465" 
d="M395 340h-355l8 46h355zM417 461h-355l8 46h355z" />
    <glyph glyph-name="uni207D" unicode="&#x207d;" horiz-adv-x="230" 
d="M171 636h59q-137 -132 -137 -286q0 -81 56 -168h-56q-53 81 -53 168q0 164 131 286z" />
    <glyph glyph-name="uni207E" unicode="&#x207e;" horiz-adv-x="230" 
d="M58 182h-58q137 132 137 286q0 81 -56 168h55q54 -80 54 -168q0 -164 -132 -286z" />
    <glyph glyph-name="n.superior" unicode="&#x207f;" horiz-adv-x="391" 
d="M347 495l-26 -132q-6 -25 15 -25q6 0 27 4l-10 -52q-21 -6 -44 -6q-79 0 -63 75l26 132q8 52 -41 52q-76 0 -93 -92l-32 -164h-76l61 306h65l-3 -57q32 65 106 65q42 0 66 -20t24 -57q0 -17 -2 -29z" />
    <glyph glyph-name="uni2080" unicode="&#x2080;" horiz-adv-x="362" 
d="M159 -7q-60 0 -91 39t-31 107q0 86 44 154t122 68q58 0 90 -40.5t32 -109.5q0 -87 -43.5 -152.5t-122.5 -65.5zM196 298q-31 0 -52 -30t-28 -63.5t-7 -63.5q0 -41 15 -65.5t43 -24.5q31 0 52 31t28 65t7 64q0 87 -58 87z" />
    <glyph glyph-name="uni2081" unicode="&#x2081;" horiz-adv-x="294" 
d="M260 0h-259l10 56h98l40 228l-107 -10l10 57l182 23l-52 -298h88z" />
    <glyph glyph-name="uni2082" unicode="&#x2082;" horiz-adv-x="321" 
d="M275 57l-11 -57h-265l10 52q105 60 158 105t53 88q0 56 -55 56q-59 0 -71 -70l-56 26q9 47 44.5 75.5t92.5 28.5q55 0 86.5 -27t31.5 -78q0 -112 -198 -195v-4h180z" />
    <glyph glyph-name="uni2083" unicode="&#x2083;" horiz-adv-x="310" 
d="M186 184v-3q81 -9 81 -83q0 -51 -40.5 -78t-100.5 -27q-59 0 -89 26t-33 68l63 17q6 -59 59 -59q30 0 49 14t19 40q0 27 -20 41.5t-75 15.5l9 47q105 4 105 61q0 40 -48 40q-46 0 -61 -51l-56 23q27 85 125 85q50 0 81.5 -22t31.5 -65q0 -38 -26 -61.5t-74 -28.5z" />
    <glyph glyph-name="uni2084" unicode="&#x2084;" horiz-adv-x="356" 
d="M173 0l15 86h-179l10 54l213 213h75l-37 -213h57l-10 -54h-57l-15 -86h-72zM200 139l14 84l17 71h-4q-15 -26 -46 -59l-50 -50q-13 -13 -27 -24.5t-22 -16.5l-7 -5l-1 -4q16 4 57 4h69z" />
    <glyph glyph-name="uni2085" unicode="&#x2085;" horiz-adv-x="329" 
d="M57 155l43 198h210l-10 -59h-153l-22 -94q21 26 65 26q45 0 70.5 -27.5t25.5 -74.5q0 -64 -39.5 -97.5t-103.5 -33.5q-115 0 -126 89l66 21q6 -57 62 -57q34 0 52.5 19t18.5 55q0 27 -14 42.5t-35 15.5q-30 0 -51 -23h-59z" />
    <glyph glyph-name="uni2086" unicode="&#x2086;" horiz-adv-x="348" 
d="M330 293l-59 -30q-9 40 -54 40q-42 0 -73.5 -39.5t-43.5 -110.5h4q25 73 104 73q47 0 72 -28t25 -68q0 -61 -41 -99t-106 -38q-58 0 -89.5 34t-31.5 97q0 106 56 171.5t133 65.5q86 0 104 -68zM111 97q0 -23 14 -37.5t40 -14.5q31 0 53.5 20.5t22.5 58.5q0 23 -14 36.5
t-40 13.5q-31 0 -53.5 -21t-22.5 -56z" />
    <glyph glyph-name="uni2087" unicode="&#x2087;" horiz-adv-x="305" 
d="M222 292h-129l-10 -53h-62l20 114h277l-7 -40l-197 -313h-80z" />
    <glyph glyph-name="uni2088" unicode="&#x2088;" horiz-adv-x="342" 
d="M149 -7q-61 0 -93 24t-32 66q0 38 26 65t65 34v4q-54 21 -54 70t41.5 77t99.5 28q56 0 86 -23t30 -62t-22.5 -62.5t-59.5 -31.5v-3q62 -20 62 -79q0 -49 -42.5 -78t-106.5 -29zM195 310q-28 0 -46.5 -15.5t-18.5 -43.5q0 -20 13.5 -32t36.5 -12q28 0 47.5 15t19.5 44
q0 19 -13.5 31.5t-38.5 12.5zM171 156q-29 0 -51 -17t-22 -47q0 -50 56 -50q31 0 52.5 16.5t21.5 47.5q0 50 -57 50z" />
    <glyph glyph-name="uni2089" unicode="&#x2089;" horiz-adv-x="348" 
d="M10 61l59 28q9 -40 63 -40q44 0 74.5 37t39.5 114h-4q-22 -72 -97 -72q-50 0 -77 28.5t-27 69.5q0 60 40 97.5t106 37.5q58 0 91 -36t33 -102q0 -106 -50.5 -168t-134.5 -62q-99 0 -116 68zM236 258q0 23 -14.5 37t-40.5 14q-31 0 -53 -20t-22 -59q0 -22 14 -36t40 -14
q31 0 53.5 21.5t22.5 56.5z" />
    <glyph glyph-name="uni208A" unicode="&#x208a;" horiz-adv-x="443" 
d="M48 206h153l26 148h46l-27 -148h157l-8 -46h-157l-28 -160h-46l29 160h-153z" />
    <glyph glyph-name="uni208B" unicode="&#x208b;" horiz-adv-x="444" 
d="M395 160h-355l8 46h356z" />
    <glyph glyph-name="uni208C" unicode="&#x208c;" horiz-adv-x="465" 
d="M395 104h-355l8 46h355zM417 225h-355l8 46h355z" />
    <glyph glyph-name="uni208D" unicode="&#x208d;" horiz-adv-x="230" 
d="M171 400h59q-137 -132 -137 -286q0 -81 56 -168h-56q-53 81 -53 168q0 164 131 286z" />
    <glyph glyph-name="uni208E" unicode="&#x208e;" horiz-adv-x="230" 
d="M58 -54h-58q137 132 137 286q0 81 -56 168h55q54 -80 54 -168q0 -164 -132 -286z" />
    <glyph glyph-name="uni20A1" unicode="&#x20a1;" horiz-adv-x="495" 
d="M203 -92l28 80q-23 1 -46 8l-27 -79l-47 17l27 81q-90 51 -90 177q0 128 67 210.5t187 90.5l29 84l47 -16l-25 -71q18 -2 46 -12l25 73l47 -16l-30 -86q31 -27 44 -77l-83 -36l-90 -266q47 16 78 72l65 -47q-58 -94 -171 -104l-33 -99zM211 70q19 -9 45 -9l114 332
q-17 17 -42 23zM138 201q0 -61 30 -100l108 316q-61 -10 -99.5 -71t-38.5 -145z" />
    <glyph glyph-name="uni20A2" unicode="&#x20a2;" horiz-adv-x="494" 
d="M436 276l-17 -76q-40 10 -78 -11t-46 -68l-11 -62q65 11 106 84l64 -45q-36 -58 -85.5 -84t-123.5 -26q-89 0 -143 54.5t-54 149.5q0 131 70 216t194 85q141 0 172 -120l-82 -38q-14 86 -100 86q-71 0 -117 -63.5t-46 -156.5q0 -104 73 -134l35 202h66l-6 -79
q18 43 53.5 68t75.5 18z" />
    <glyph glyph-name="franc" unicode="&#x20a3;" horiz-adv-x="450" 
d="M341 150h-154l-25 -150h-93l26 150h-75l9 50h75l9 50h-75l9 50h74l32 181h325l-13 -76h-232l-19 -105h154l-9 -50h-154l-9 -50h154z" />
    <glyph glyph-name="lira" unicode="&#x20a4;" horiz-adv-x="491" 
d="M359 154h-139q-7 -29 -25 -50t-41 -28h169q61 0 82 49l60 -36q-34 -89 -143 -89h-311l13 78h47q25 0 47.5 23t25.5 53h-104l9 51h91q-1 11 -10 45h-72l9 51h56q-1 9 -1 31q0 82 54 121.5t126 39.5q74 0 115 -33t41 -101l-85 -14q-2 76 -80 76q-86 0 -86 -91q0 -20 1 -29
h178l-9 -51h-159q0 -3 3 -19.5t3 -25.5h144z" />
    <glyph glyph-name="uni20A6" unicode="&#x20a6;" horiz-adv-x="677" 
d="M639 254h-92l-8 -44h92l-9 -50h-92l-27 -160h-93l-124 243q-14 27 -27.5 58.5t-19.5 49.5l-6 18h-4q-6 -80 -19 -157l-37 -212h-92l28 160h-85l9 50h85l8 44h-85l9 50h84l31 177h100l123 -249q13 -27 24 -54.5t15 -41.5l4 -14h4q11 76 24 150l36 209h92l-32 -177h93z" />
    <glyph glyph-name="peseta" unicode="&#x20a7;" horiz-adv-x="1086" 
d="M679 122l76 20q1 -44 29 -68t69 -24q94 0 94 74q0 32 -17.5 50t-70.5 37q-53 17 -80 42t-34 62h-109l-55 -315h-93l55 315h-92q-15 -174 -224 -174h-80l-25 -141h-92l84 481h163q142 0 170 -90h302q15 51 62 76.5t106 25.5q165 0 165 -130l-81 -16q1 37 -21 58.5
t-66 21.5q-40 0 -64 -18.5t-24 -50.5q0 -30 18 -45.5t76 -36.5q66 -24 90 -56.5t24 -84.5q0 -74 -50 -110.5t-136 -36.5q-80 0 -124 35.5t-45 98.5zM194 407l-34 -192h73q127 0 127 118q0 74 -88 74h-78z" />
    <glyph glyph-name="uni20A8" unicode="&#x20a8;" horiz-adv-x="787" 
d="M193 407l-27 -154h90q53 0 80 21.5t27 71.5q0 61 -72 61h-98zM568 -12q-117 0 -196 84l-43 47q-2 2 -10.5 11.5t-11 12.5t-10.5 10.5t-12.5 10t-12.5 7t-15.5 6.5t-18 3.5t-21.5 1.5h-63l-32 -182h-92l84 481h191q152 0 152 -125q0 -68 -41 -103t-102 -37v-4
q10 -1 18.5 -2.5t14.5 -3.5t13.5 -6.5t11.5 -7.5t11 -10l10.5 -10.5t11.5 -12.5t12 -13l45 -47q52 -55 111 -55q71 0 71 45q0 23 -12.5 36.5t-45.5 26.5q-50 20 -71 45.5t-21 66.5q0 56 41 85.5t98 29.5q126 0 126 -96l-76 -14q0 50 -56 50q-27 0 -42.5 -13t-15.5 -34
q0 -20 13.5 -32t56.5 -31q45 -19 64.5 -43.5t19.5 -64.5q0 -58 -42.5 -85.5t-112.5 -27.5z" />
    <glyph glyph-name="uni20A9" unicode="&#x20a9;" horiz-adv-x="832" 
d="M802 271h-107l-18 -43h117l-8 -51h-131l-75 -177h-111l-27 261q-4 34 -4.5 68t0.5 51l2 17h-3q-11 -61 -45 -136l-116 -261h-113l-10 177h-126l8 51h115l-2 43h-105l9 51h93l-9 159h90l12 -284q1 -37 0 -67t-2 -50l-2 -19h3q14 58 47 132l125 288h94l26 -288
q3 -33 3.5 -66t-0.5 -49l-1 -17h3q8 59 40 133l120 287h91l-68 -159h94z" />
    <glyph glyph-name="uni20AA" unicode="&#x20aa;" horiz-adv-x="690" 
d="M446 124h-87l37 215q13 70 -60 70h-142l-72 -409h-92l84 481h251q83 0 106.5 -38.5t10.5 -113.5zM575 481h92l-58 -329q-13 -76 -50 -114t-120 -38h-252l62 356h87l-50 -284h146q71 0 84 69z" />
    <glyph glyph-name="Euro" unicode="&#x20ac;" horiz-adv-x="544" 
d="M363 273h-166q-7 -33 -7 -60h156l-19 -51h-133q8 -48 37.5 -74.5t77.5 -26.5q77 0 126 85l69 -47q-36 -58 -85.5 -84.5t-122.5 -26.5q-81 0 -133.5 46t-61.5 128h-81l9 51h71q2 33 7 60h-68l10 50h73q28 78 90 124t151 46q142 0 173 -121l-86 -39q-14 85 -99 85
q-44 0 -79 -25.5t-56 -69.5h166z" />
    <glyph glyph-name="uni20AE" unicode="&#x20ae;" horiz-adv-x="459" 
d="M383 273l-111 -18l-9 -50l111 19l-9 -51l-111 -18l-27 -155h-92l24 139l-109 -18l9 51l109 18l8 49l-108 -18l9 51l108 18l21 115h-162l13 76h419l-13 -76h-165l-17 -100l111 19z" />
    <glyph glyph-name="uni20B1" unicode="&#x20b1;" horiz-adv-x="579" 
d="M155 0h-92l49 284h-74l9 51h74l26 146h163q90 0 133 -35.5t43 -110.5h85l-9 -51h-83q-30 -143 -219 -143h-80zM266 213q99 0 120 71h-181l-12 -71h73zM227 409l-13 -74h179q-1 74 -88 74h-78z" />
    <glyph glyph-name="afii61289" unicode="&#x2113;" horiz-adv-x="336" 
d="M39 128l-30 49l66 46v240q0 206 138 206q105 0 105 -127q0 -108 -46.5 -197t-113.5 -147v-58q0 -44 15.5 -60.5t51.5 -16.5q31 0 58 12l-1 -75q-36 -12 -76 -12q-131 0 -131 127v40zM158 481v-208q44 42 73.5 114.5t29.5 160.5q0 63 -44 63q-59 0 -59 -130z" />
    <glyph glyph-name="afii61352" unicode="&#x2116;" horiz-adv-x="1066" 
d="M679 0l13 70h324l-13 -70h-324zM905 475q61 0 96 -35.5t35 -97.5q0 -80 -46 -134.5t-126 -54.5q-60 0 -97 34.5t-37 96.5q0 80 46.5 135.5t128.5 55.5zM896 412q-41 0 -65 -35.5t-24 -86.5q0 -76 63 -76q40 0 63.5 36t23.5 87q0 75 -61 75zM654 472l-82 -472h-92
l-157 328q-13 28 -25.5 59.5t-17.5 48.5l-6 17h-4q-3 -65 -17 -141l-36 -210q-12 -65 -43.5 -89.5t-86.5 -24.5q-54 0 -85 25l21 76q27 -23 54 -23q21 0 32 9.5t15 35.5l83 478h95l153 -331q13 -29 24.5 -60t16.5 -48l5 -16h4q7 68 20 142l37 211q11 65 43 89.5t86 24.5
q53 0 86 -25l-23 -82q-27 24 -53 24q-21 0 -32 -10t-15 -36z" />
    <glyph glyph-name="published" unicode="&#x2117;" horiz-adv-x="698" 
d="M336 425l-25 -146h53q96 0 96 90q0 56 -67 56h-57zM282 112h-76l66 373h127q137 0 137 -109q0 -156 -177 -156h-58zM55 294q0 132 89 219.5t217 87.5t217.5 -87.5t89.5 -219.5t-89.5 -219t-217.5 -87t-217 87t-89 219zM86 294q0 -120 80 -198.5t196 -78.5t196 78.5
t80 198.5t-80 199t-196 79t-196 -79t-80 -199z" />
    <glyph glyph-name="servicemark" unicode="&#x2120;" horiz-adv-x="618" 
d="M49 408l52 10q1 -41 49 -41q46 0 46 31q0 14 -10 22.5t-38 18.5q-37 11 -52.5 27t-15.5 45q0 39 30.5 58t71.5 19q92 0 92 -72l-56 -7q0 38 -42 38q-39 0 -39 -31q0 -12 10.5 -19.5t40.5 -17.5q68 -21 68 -72q0 -40 -30.5 -59t-79.5 -19q-96 0 -97 69zM568 341h-56
l32 163h-5l-71 -113h-46l-29 113h-5l-31 -163h-56l47 248h70l36 -134h4l86 134h72z" />
    <glyph glyph-name="trademark" unicode="&#x2122;" horiz-adv-x="605" 
d="M160 341h-56l39 200h-73l9 48h202l-9 -48h-73zM556 341h-56l31 163h-5l-70 -113h-47l-28 113h-5l-32 -163h-56l48 248h69l37 -134h3l87 134h71z" />
    <glyph glyph-name="estimated" unicode="&#x212e;" horiz-adv-x="647" 
d="M323 601q71 0 126 -25.5t87.5 -69.5t49 -98t16.5 -114v-26h-431v-169q60 -58 152 -58q130 0 184 104h66q-30 -73 -93 -115t-157 -42q-93 0 -157.5 45t-92.5 112.5t-28 148.5q0 82 28 149.5t92.5 112.5t157.5 45zM323 548q-94 0 -152 -58v-170h304v170q-58 58 -152 58z
" />
    <glyph glyph-name="uni2153" unicode="&#x2153;" horiz-adv-x="859" 
d="M285 236h-251l10 56h90l40 228l-107 -10l10 57l182 23l-52 -298h88zM192 0l410 590h65l-409 -590h-66zM685 184v-3q81 -9 81 -83q0 -51 -40.5 -78t-100.5 -27q-59 0 -89 26t-33 68l63 17q6 -59 59 -59q30 0 49 14t19 40q0 27 -20 41.5t-75 15.5l9 47q105 4 105 61
q0 40 -48 40q-46 0 -61 -51l-56 23q27 85 125 85q50 0 81.5 -22t31.5 -65q0 -38 -26 -61.5t-74 -28.5z" />
    <glyph glyph-name="uni2154" unicode="&#x2154;" horiz-adv-x="859" 
d="M287 293l-11 -57h-265l10 52q105 60 158 105t53 88q0 56 -55 56q-59 0 -71 -70l-56 26q9 47 44.5 75.5t92.5 28.5q55 0 86.5 -27t31.5 -78q0 -112 -198 -195v-4h180zM192 0l410 590h65l-409 -590h-66zM685 184v-3q81 -9 81 -83q0 -51 -40.5 -78t-100.5 -27q-59 0 -89 26
t-33 68l63 17q6 -59 59 -59q30 0 49 14t19 40q0 27 -20 41.5t-75 15.5l9 47q105 4 105 61q0 40 -48 40q-46 0 -61 -51l-56 23q27 85 125 85q50 0 81.5 -22t31.5 -65q0 -38 -26 -61.5t-74 -28.5z" />
    <glyph glyph-name="uni215B" unicode="&#x215b;" horiz-adv-x="859" 
d="M285 236h-251l10 56h90l40 228l-107 -10l10 57l182 23l-52 -298h88zM192 0l410 590h65l-409 -590h-66zM648 -7q-61 0 -93 24t-32 66q0 38 26 65t65 34v4q-54 21 -54 70t41.5 77t99.5 28q56 0 86 -23t30 -62t-22.5 -62.5t-59.5 -31.5v-3q62 -20 62 -79q0 -49 -42.5 -78
t-106.5 -29zM694 310q-28 0 -46.5 -15.5t-18.5 -43.5q0 -20 13.5 -32t36.5 -12q28 0 47.5 15t19.5 44q0 19 -13.5 31.5t-38.5 12.5zM670 156q-29 0 -51 -17t-22 -47q0 -50 56 -50q31 0 52.5 16.5t21.5 47.5q0 50 -57 50z" />
    <glyph glyph-name="uni215C" unicode="&#x215c;" horiz-adv-x="859" 
d="M211 420v-3q81 -9 81 -83q0 -51 -40.5 -78t-100.5 -27q-59 0 -89 26t-33 68l63 17q6 -59 59 -59q30 0 49 14t19 40q0 27 -20 41.5t-75 15.5l9 47q105 4 105 61q0 40 -48 40q-46 0 -61 -51l-56 23q27 85 125 85q50 0 81.5 -22t31.5 -65q0 -38 -26 -61.5t-74 -28.5zM192 0
l410 590h65l-409 -590h-66zM648 -7q-61 0 -93 24t-32 66q0 38 26 65t65 34v4q-54 21 -54 70t41.5 77t99.5 28q56 0 86 -23t30 -62t-22.5 -62.5t-59.5 -31.5v-3q62 -20 62 -79q0 -49 -42.5 -78t-106.5 -29zM694 310q-28 0 -46.5 -15.5t-18.5 -43.5q0 -20 13.5 -32t36.5 -12
q28 0 47.5 15t19.5 44q0 19 -13.5 31.5t-38.5 12.5zM670 156q-29 0 -51 -17t-22 -47q0 -50 56 -50q31 0 52.5 16.5t21.5 47.5q0 50 -57 50z" />
    <glyph glyph-name="uni215D" unicode="&#x215d;" horiz-adv-x="859" 
d="M65 391l43 198h210l-10 -59h-153l-22 -94q21 26 65 26q45 0 70.5 -27.5t25.5 -74.5q0 -64 -39.5 -97.5t-103.5 -33.5q-115 0 -126 89l66 21q6 -57 62 -57q34 0 52.5 19t18.5 55q0 27 -14 42.5t-35 15.5q-30 0 -51 -23h-59zM192 0l410 590h65l-409 -590h-66zM648 -7
q-61 0 -93 24t-32 66q0 38 26 65t65 34v4q-54 21 -54 70t41.5 77t99.5 28q56 0 86 -23t30 -62t-22.5 -62.5t-59.5 -31.5v-3q62 -20 62 -79q0 -49 -42.5 -78t-106.5 -29zM694 310q-28 0 -46.5 -15.5t-18.5 -43.5q0 -20 13.5 -32t36.5 -12q28 0 47.5 15t19.5 44
q0 19 -13.5 31.5t-38.5 12.5zM670 156q-29 0 -51 -17t-22 -47q0 -50 56 -50q31 0 52.5 16.5t21.5 47.5q0 50 -57 50z" />
    <glyph glyph-name="uni215E" unicode="&#x215e;" horiz-adv-x="793" 
d="M243 528h-129l-10 -53h-62l20 114h277l-7 -40l-197 -313h-80zM126 0l410 590h65l-409 -590h-66zM582 -7q-61 0 -93 24t-32 66q0 38 26 65t65 34v4q-54 21 -54 70t41.5 77t99.5 28q56 0 86 -23t30 -62t-22.5 -62.5t-59.5 -31.5v-3q62 -20 62 -79q0 -49 -42.5 -78
t-106.5 -29zM628 310q-28 0 -46.5 -15.5t-18.5 -43.5q0 -20 13.5 -32t36.5 -12q28 0 47.5 15t19.5 44q0 19 -13.5 31.5t-38.5 12.5zM604 156q-29 0 -51 -17t-22 -47q0 -50 56 -50q31 0 52.5 16.5t21.5 47.5q0 50 -57 50z" />
    <glyph glyph-name="arrowleft" unicode="&#x2190;" horiz-adv-x="672" 
d="M170 336h457v-82h-459l205 -209l-60 -57l-293 305l292 308l62 -56z" />
    <glyph glyph-name="arrowup" unicode="&#x2191;" horiz-adv-x="685" 
d="M384 451v-451h-82v453l-209 -206l-57 61l305 293l308 -292l-57 -62z" />
    <glyph glyph-name="arrowright" unicode="&#x2192;" horiz-adv-x="672" 
d="M20 336h457l-201 209l62 56l289 -308l-288 -305l-61 57l202 209h-460v82z" />
    <glyph glyph-name="arrowdown" unicode="&#x2193;" horiz-adv-x="685" 
d="M301 139v450h82v-453l209 206l57 -60l-305 -294l-308 293l57 62z" />
    <glyph glyph-name="uni2196" unicode="&#x2196;" horiz-adv-x="683" 
d="M607 0l-449 452v-353h-79v490h470v-77h-334l450 -453z" />
    <glyph glyph-name="uni2197" unicode="&#x2197;" horiz-adv-x="683" 
d="M525 452l-449 -452l-58 59l450 453h-333v77h469v-490h-79v353z" />
    <glyph glyph-name="uni2198" unicode="&#x2198;" horiz-adv-x="683" 
d="M76 589l449 -451v352h79v-490h-469v77h333l-450 453z" />
    <glyph glyph-name="uni2199" unicode="&#x2199;" horiz-adv-x="683" 
d="M158 138l449 451l58 -59l-450 -453h334v-77h-470v490h79v-352z" />
    <glyph glyph-name="partialdiff" unicode="&#x2202;" horiz-adv-x="499" 
d="M179 673q282 -68 282 -393q0 -128 -63.5 -210t-176.5 -82q-83 0 -133 50t-50 142q0 117 62 199.5t165 82.5q59 0 92 -38h4q-57 161 -254 202zM268 389q-62 0 -100.5 -59t-38.5 -143q0 -63 27 -96.5t74 -33.5q63 0 100.5 60.5t37.5 146.5q0 125 -100 125z" />
    <glyph glyph-name="increment" unicode="&#x2206;" horiz-adv-x="568" 
d="M419 78l-51 291q-7 41 -12 80t-6 58l-2 19h-4q-23 -64 -71 -156l-153 -292h299zM529 0h-549l318 589h121z" />
    <glyph glyph-name="product" unicode="&#x220f;" horiz-adv-x="594" 
d="M80 -202h-91l139 791h465l-139 -791h-92l125 706h-282z" />
    <glyph glyph-name="summation" unicode="&#x2211;" horiz-adv-x="445" 
d="M453 509h-176l-69 2v-4q24 -23 49 -67l81 -145l-135 -146q-21 -24 -41 -41t-29 -22l-9 -6v-4q36 4 97 4h157l-14 -80h-402l272 302l-169 287h402z" />
    <glyph glyph-name="minus" unicode="&#x2212;" horiz-adv-x="497" 
d="M448 221h-408l9 54h408z" />
    <glyph glyph-name="radical" unicode="&#x221a;" horiz-adv-x="521" 
d="M320 210l208 474l81 -9l-304 -675h-92l-81 346l-101 -49l-22 69l191 97l48 -253q7 -37 12 -71t6 -49l1 -16h4q10 46 49 136z" />
    <glyph glyph-name="infinity" unicode="&#x221e;" horiz-adv-x="865" 
d="M242 359q-50 0 -82 -40.5t-32 -93.5q0 -42 23.5 -65t59.5 -23q66 0 117 50l62 60l-38 49q-26 36 -51 49.5t-59 13.5zM428 198l-56 -53q-82 -77 -172 -77q-67 0 -109 39.5t-42 108.5q0 85 56.5 148.5t144.5 63.5q51 0 87 -20.5t71 -66.5l34 -44l56 54q82 77 172 77
q67 0 109 -40t42 -109q0 -84 -57 -147.5t-145 -63.5q-51 0 -87 20t-70 65zM627 137q50 0 82.5 40t32.5 92q0 43 -23.5 66.5t-59.5 23.5q-64 0 -117 -50l-63 -61l36 -47q28 -36 53 -50t59 -14z" />
    <glyph glyph-name="integral" unicode="&#x222b;" horiz-adv-x="269" 
d="M236 554l-114 -651q-11 -65 -41.5 -89.5t-85.5 -24.5q-54 0 -85 25l20 69q27 -23 54 -23q20 0 31 10t16 36l114 650q11 65 41.5 89.5t85.5 24.5q54 0 85 -25l-20 -69q-27 23 -53 23q-21 0 -32 -9.5t-16 -35.5z" />
    <glyph glyph-name="approxequal" unicode="&#x2248;" horiz-adv-x="526" 
d="M377 252q-38 0 -108 24t-103 24q-55 0 -105 -47l10 55q41 45 103 45q36 0 107 -23.5t106 -23.5q53 0 99 45l-10 -63q-40 -36 -99 -36zM356 134q-38 0 -108 24.5t-103 24.5q-53 0 -105 -49l10 57q44 45 103 45q35 0 107 -24.5t107 -24.5q50 0 99 46l-11 -63
q-39 -36 -99 -36z" />
    <glyph glyph-name="notequal" unicode="&#x2260;" horiz-adv-x="520" 
d="M471 285h-127l-79 -78h192l-9 -53h-236l-125 -125l-35 34l91 91h-103l9 53h146l79 78h-211l9 53h254l114 113l36 -34l-80 -79h84z" />
    <glyph glyph-name="lessequal" unicode="&#x2264;" horiz-adv-x="452" 
d="M410 432l-226 -145l167 -143l-46 -46l-225 193l294 192zM343 21h-315l9 53h315z" />
    <glyph glyph-name="greaterequal" unicode="&#x2265;" horiz-adv-x="452" 
d="M343 21h-315l9 53h315zM80 149l226 145l-168 143l46 46l226 -193l-295 -192z" />
    <glyph glyph-name="blacksquare" unicode="&#x25a0;" horiz-adv-x="755" 
d="M83 0v589h589v-589h-589z" />
    <glyph glyph-name="whitesquare" unicode="&#x25a1;" horiz-adv-x="755" 
d="M83 0v589h589v-589h-589zM126 546v-503h503v503h-503z" />
    <glyph glyph-name="blacksmallsquare" unicode="&#x25aa;" horiz-adv-x="492" 
d="M83 139v325h326v-325h-326z" />
    <glyph glyph-name="whitesmallsquare" unicode="&#x25ab;" horiz-adv-x="492" 
d="M83 139v325h326v-325h-326zM126 421v-239h240v239h-240z" />
    <glyph glyph-name="triagup" unicode="&#x25b2;" horiz-adv-x="571" 
d="M18 0l245 601l246 -601h-491z" />
    <glyph glyph-name="triagrt" unicode="&#x25ba;" horiz-adv-x="684" 
d="M75 536l601 -245l-601 -246v491z" />
    <glyph glyph-name="triagdn" unicode="&#x25bc;" horiz-adv-x="571" 
d="M329 -12l-245 601h491z" />
    <glyph glyph-name="triaglf" unicode="&#x25c4;" horiz-adv-x="684" 
d="M0 291l601 245v-491z" />
    <glyph glyph-name="lozenge" unicode="&#x25ca;" horiz-adv-x="509" 
d="M470 303l-233 -336h-66l-114 336l231 328h66zM391 305l-82 245l-172 -251l80 -253z" />
    <glyph glyph-name="whitecircle" unicode="&#x25cb;" horiz-adv-x="701" 
d="M44 294q0 127 89.5 217t216.5 90t217 -90t90 -217t-90 -216.5t-217 -89.5t-216.5 89.5t-89.5 216.5zM88 293q0 -110 76.5 -187.5t185.5 -77.5q108 0 185 78t77 187q0 110 -77 188.5t-185 78.5q-109 0 -185.5 -78.5t-76.5 -188.5z" />
    <glyph glyph-name="whitecircle" unicode="&#x25ef;" horiz-adv-x="701" 
d="M44 294q0 127 89.5 217t216.5 90t217 -90t90 -217t-90 -216.5t-217 -89.5t-216.5 89.5t-89.5 216.5zM88 293q0 -110 76.5 -187.5t185.5 -77.5q108 0 185 78t77 187q0 110 -77 188.5t-185 78.5q-109 0 -185.5 -78.5t-76.5 -188.5z" />
    <glyph glyph-name="blackcircle" unicode="&#x25cf;" horiz-adv-x="701" 
d="M44 294q0 127 89.5 217t216.5 90t217 -90t90 -217t-90 -216.5t-217 -89.5t-216.5 89.5t-89.5 216.5z" />
    <glyph glyph-name="anglebracketleft" unicode="&#x3008;" horiz-adv-x="349" 
d="M226 -203h-85l-76 441l227 430h91l-227 -433z" />
    <glyph glyph-name="anglebracketright" unicode="&#x3009;" horiz-adv-x="349" 
d="M126 668h85l76 -441l-227 -430h-91l228 433z" />
    <glyph glyph-name="lcedilla" unicode="&#xe100;" horiz-adv-x="250" 
d="M179 -124q0 -42 -30.5 -64.5t-76.5 -22.5q-62 0 -90 38l23 51q25 -36 62 -36q39 0 39 34q0 41 -63 42l31 81l9 5q-47 24 -33 98l99 566h91l-98 -557q-8 -45 27 -45q9 0 29 5l-13 -67q-24 -9 -54 -9q-11 0 -15 1l-16 -37q79 -16 79 -83z" />
    <glyph glyph-name="uni004500600323" unicode="&#xe101;" horiz-adv-x="490" 
d="M414 80l-13 -80h-363l103 589h363l-14 -80h-269l-30 -174h237l-14 -80h-237l-31 -175h268zM121 -139q0 26 17.5 43t42.5 17q26 0 44 -17t18 -43q0 -25 -18 -42.5t-44 -17.5q-25 0 -42.5 17.5t-17.5 42.5zM356 653h-82l63 123h120z" />
    <glyph glyph-name="uni006500600323" unicode="&#xe102;" horiz-adv-x="468" 
d="M229 58q45 0 68.5 18.5t35.5 56.5l84 -21q-24 -68 -71.5 -96t-124.5 -28q-86 0 -134.5 53.5t-48.5 143.5q0 133 69 210.5t162 77.5q85 0 128 -47.5t43 -118.5q0 -49 -20 -95h-293q-7 -63 19 -108.5t83 -45.5zM137 277h209q5 13 5 32q0 41 -21.5 67.5t-64.5 26.5
q-49 0 -81.5 -35.5t-46.5 -90.5zM304 529h-79l74 146h121zM90 -139q0 26 17.5 43t42.5 17q27 0 45 -17t18 -43t-18 -43t-45 -17q-25 0 -42.5 17.5t-17.5 42.5z" />
    <glyph glyph-name="uni004500B40323" unicode="&#xe103;" horiz-adv-x="490" 
d="M414 80l-13 -80h-363l103 589h363l-14 -80h-269l-30 -174h237l-14 -80h-237l-31 -175h268zM121 -139q0 26 17.5 43t42.5 17q26 0 44 -17t18 -43q0 -25 -18 -42.5t-44 -17.5q-25 0 -42.5 17.5t-17.5 42.5zM366 653h-83l-100 123h120z" />
    <glyph glyph-name="uni006500B40323" unicode="&#xe104;" horiz-adv-x="468" 
d="M229 58q45 0 68.5 18.5t35.5 56.5l84 -21q-24 -68 -71.5 -96t-124.5 -28q-86 0 -134.5 53.5t-48.5 143.5q0 133 69 210.5t162 77.5q85 0 128 -47.5t43 -118.5q0 -49 -20 -95h-293q-7 -63 19 -108.5t83 -45.5zM137 277h209q5 13 5 32q0 41 -21.5 67.5t-64.5 26.5
q-49 0 -81.5 -35.5t-46.5 -90.5zM319 529h-79l-115 146h121zM90 -139q0 26 17.5 43t42.5 17q27 0 45 -17t18 -43t-18 -43t-45 -17q-25 0 -42.5 17.5t-17.5 42.5z" />
    <glyph glyph-name="Gtilde" unicode="&#xe105;" horiz-adv-x="603" 
d="M322 304h234l-53 -304h-67l-4 74q-40 -86 -151 -86q-106 0 -166.5 65.5t-60.5 174.5q0 171 87.5 272t215.5 101q166 0 200 -147l-94 -36q-8 51 -38.5 77.5t-75.5 26.5q-91 0 -145 -84t-54 -203q0 -79 37 -124.5t109 -45.5q127 0 149 126l6 33h-143zM431 653
q-10 0 -18.5 1t-17 4.5t-12.5 5.5t-13.5 7.5t-12.5 7.5q-37 25 -55 25q-36 0 -39 -49h-55q-10 51 18 87t76 36q35 0 76 -28q36 -23 52 -23q31 0 37 51h57q9 -55 -17 -90t-76 -35z" />
    <glyph glyph-name="gtilde" unicode="&#xe106;" horiz-adv-x="509" 
d="M348 192l14 79q9 53 -12 92.5t-71 39.5q-67 0 -108.5 -61.5t-41.5 -154.5q0 -57 23.5 -90.5t69.5 -33.5q50 0 82.5 33.5t43.5 95.5zM486 462l-83 -474q-19 -102 -74.5 -150.5t-159.5 -48.5q-163 0 -186 124l77 35q4 -40 34.5 -65.5t78.5 -25.5q61 0 93.5 33.5t45.5 99.5
l17 87q-37 -86 -134 -86q-71 0 -114 50t-43 139q0 121 63.5 207t164.5 86t117 -89l25 78h78zM367 529q-9 0 -17 1t-12.5 2t-12.5 5t-10 4.5t-11 6.5t-10 6q-39 25 -56 25q-36 0 -39 -49h-54q-10 51 18 87.5t76 36.5q7 0 13 -0.5t10.5 -1.5t10.5 -3.5t9 -3.5t8.5 -4.5
t7.5 -4.5t8.5 -5.5t8.5 -5.5q35 -23 51 -23q31 0 37 51h57q9 -54 -17 -89t-76 -35z" />
    <glyph glyph-name="Gcommaturnedabove" unicode="&#xe107;" horiz-adv-x="603" 
d="M322 304h234l-53 -304h-67l-4 74q-40 -86 -151 -86q-106 0 -166.5 65.5t-60.5 174.5q0 171 87.5 272t215.5 101q166 0 200 -147l-94 -36q-8 51 -38.5 77.5t-75.5 26.5q-91 0 -145 -84t-54 -203q0 -79 37 -124.5t109 -45.5q127 0 149 126l6 33h-143zM313 722q0 54 37 81.5
t98 27.5v-37q-74 -4 -74 -42q27 4 43.5 -9t16.5 -38t-15.5 -39t-41.5 -14q-27 0 -45.5 18t-18.5 52z" />
    <glyph glyph-name="gcommaturnedabove" unicode="&#xe108;" horiz-adv-x="509" 
d="M348 192l14 79q9 53 -12 92.5t-71 39.5q-67 0 -108.5 -61.5t-41.5 -154.5q0 -57 23.5 -90.5t69.5 -33.5q50 0 82.5 33.5t43.5 95.5zM486 462l-83 -474q-19 -102 -74.5 -150.5t-159.5 -48.5q-163 0 -186 124l77 35q4 -40 34.5 -65.5t78.5 -25.5q61 0 93.5 33.5t45.5 99.5
l17 87q-37 -86 -134 -86q-71 0 -114 50t-43 139q0 121 63.5 207t164.5 86t117 -89l25 78h78zM251 603q0 53 37 80.5t98 27.5v-37q-73 -2 -73 -42q26 5 43 -8.5t17 -38.5t-16 -39t-41 -14q-28 0 -46.5 18.5t-18.5 52.5z" />
    <glyph glyph-name="Hmacronbelow" unicode="&#xe109;" 
d="M132 0h-94l103 589h94l-43 -250h278l44 250h94l-103 -589h-94l45 259h-279zM376 -183h-261l13 73h262z" />
    <glyph glyph-name="hmacronbelow" unicode="&#xe10a;" horiz-adv-x="519" 
d="M456 318l-36 -207q-8 -45 27 -45q9 0 29 5l-13 -67q-24 -9 -54 -9q-100 0 -81 107l37 208q17 87 -60 87q-43 0 -81 -35t-51 -111l-44 -251h-91l116 668h93l-54 -300q49 105 149 105q54 0 86 -29t32 -82q0 -24 -4 -44zM336 -183h-261l13 73h262z" />
    <glyph glyph-name="Jcaron" unicode="&#xe10b;" horiz-adv-x="430" 
d="M327 589h94l-76 -431q-16 -92 -62 -131t-134 -39q-68 0 -110 32.5t-56 88.5l76 50q21 -96 96 -96q48 0 68 24.5t30 85.5zM408 653h-55l-102 129h94l26 -33q7 -9 11 -17.5t5 -12.5l1 -4h3q6 14 29 34l37 33h99z" />
    <glyph glyph-name="Kcedilla" unicode="&#xe10d;" horiz-adv-x="525" 
d="M476 0h-106l-140 259h-53l-45 -259h-94l103 589h94l-43 -251h43l216 251h112l-254 -287zM290 -124q0 -42 -30.5 -64.5t-76.5 -22.5q-61 0 -90 38l24 51q25 -36 62 -36q39 0 39 34q0 41 -64 42l35 90h44l-21 -49q40 -8 59 -27.5t19 -55.5z" />
    <glyph glyph-name="kcedilla" unicode="&#xe10e;" horiz-adv-x="459" 
d="M279 49l-83 172h-28l-39 -221h-91l117 668h92l-67 -380h22l164 174h111l-202 -205l75 -156q14 -27 32.5 -32.5t50.5 4.5l-14 -69q-27 -9 -57 -9q-57 0 -83 54zM277 -124q0 -42 -30.5 -64.5t-76.5 -22.5q-60 0 -90 38l24 51q26 -36 62 -36q39 0 39 34q0 41 -63 42l34 90
h44l-21 -49q40 -8 59 -27.5t19 -55.5z" />
    <glyph glyph-name="Lcedilla" unicode="&#xe10f;" horiz-adv-x="461" 
d="M300 -124q0 -42 -30.5 -64.5t-76.5 -22.5q-61 0 -90 38l23 51q26 -36 62 -36q39 0 39 34q0 41 -63 42l31 82h-157l103 589h94l-89 -509h261l-13 -80h-155l-18 -41q79 -16 79 -83z" />
    <glyph glyph-name="ocedilla" unicode="&#xe110;" horiz-adv-x="500" 
d="M270 -124q0 -42 -30.5 -64.5t-76.5 -22.5q-62 0 -90 38l24 51q25 -36 62 -36q39 0 39 34q0 41 -64 42l29 78q-58 15 -91.5 63.5t-33.5 124.5q0 121 64.5 205t177.5 84q86 0 134 -53t48 -146q0 -121 -64.5 -203.5t-176.5 -82.5q-12 0 -17 1l-12 -30q40 -8 59 -27.5
t19 -55.5zM269 399q-63 0 -101.5 -61t-38.5 -147q0 -64 27 -98.5t75 -34.5q63 0 100.5 62.5t37.5 149.5q0 62 -26 95.5t-74 33.5z" />
    <glyph glyph-name="Mmacron" unicode="&#xe111;" horiz-adv-x="700" 
d="M369 144h-61l-72 198q-10 28 -16.5 55t-7.5 40l-2 13h-4q-2 -37 -13 -107l-61 -343h-94l103 589h105l87 -261q8 -24 13 -45.5t6 -30.5l1 -10h4q9 32 45 83l179 264h105l-103 -589h-95l61 343q5 31 10.5 58t8.5 38l4 11h-4q-17 -40 -61 -104zM560 674h-263l12 71h263z" />
    <glyph glyph-name="mmacron" unicode="&#xe112;" horiz-adv-x="769" 
d="M390 0h-91l55 310q15 87 -59 87q-38 0 -73.5 -35t-48.5 -111l-44 -251h-91l81 462h79l-5 -94q26 54 57.5 79.5t85.5 25.5q51 0 81.5 -29.5t30.5 -82.5q46 112 149 112q51 0 81.5 -29t30.5 -82q0 -24 -3 -44l-36 -207q-8 -45 26 -45q10 0 30 5l-13 -67q-24 -9 -54 -9
q-100 0 -81 107l37 208q15 87 -59 87q-38 0 -73.5 -35t-48.5 -111zM569 558h-262l14 73h261z" />
    <glyph glyph-name="Mcedilla" unicode="&#xe113;" horiz-adv-x="700" 
d="M369 144h-61l-72 198q-10 28 -16.5 55t-7.5 40l-2 13h-4q-2 -37 -13 -107l-61 -343h-94l103 589h105l87 -261q8 -24 13 -45.5t6 -30.5l1 -10h4q9 32 45 83l179 264h105l-103 -589h-95l61 343q5 31 10.5 58t8.5 38l4 11h-4q-17 -40 -61 -104zM387 -124q0 -42 -30.5 -64.5
t-76.5 -22.5q-60 0 -90 38l24 51q26 -36 62 -36q39 0 39 34q0 41 -63 42l34 90h44l-21 -49q40 -8 59 -27.5t19 -55.5z" />
    <glyph glyph-name="mcedilla" unicode="&#xe114;" horiz-adv-x="769" 
d="M420 -124q0 -42 -30.5 -64.5t-76.5 -22.5q-61 0 -90 38l23 51q26 -36 62 -36q39 0 39 34q0 41 -63 42l31 82h-16l55 310q15 87 -59 87q-38 0 -73.5 -35t-48.5 -111l-44 -251h-91l81 462h79l-5 -94q26 54 57.5 79.5t85.5 25.5q51 0 81.5 -29.5t30.5 -82.5q46 112 149 112
q51 0 81.5 -29t30.5 -82q0 -24 -3 -44l-36 -207q-8 -45 26 -45q10 0 30 5l-13 -67q-24 -9 -54 -9q-100 0 -81 107l37 208q15 87 -59 87q-38 0 -73.5 -35t-48.5 -111l-44 -251h-31l-18 -41q79 -16 79 -83z" />
    <glyph glyph-name="Ndieresis" unicode="&#xe115;" 
d="M235 589l154 -331q13 -29 24.5 -60t16.5 -48l5 -16h4q7 68 20 142l55 313h94l-103 -589h-91l-158 328q-13 28 -25 59.5t-17 48.5l-6 17h-4q-4 -65 -17 -141l-55 -312h-94l103 589h94zM222 713q0 26 17.5 43t41.5 17q25 0 42.5 -17t17.5 -43q0 -25 -17.5 -42t-42.5 -17
q-24 0 -41.5 17t-17.5 42zM418 712q0 26 17.5 43t41.5 17q26 0 43 -17t17 -43q0 -25 -17.5 -42t-42.5 -17q-24 0 -41.5 17t-17.5 42z" />
    <glyph glyph-name="ndieresis" unicode="&#xe116;" horiz-adv-x="519" 
d="M456 318l-36 -207q-8 -45 27 -45q9 0 29 5l-13 -67q-24 -9 -54 -9q-100 0 -81 107l37 208q17 87 -60 87q-43 0 -81 -35t-51 -111l-44 -251h-91l81 462h79l-5 -94q49 105 149 105q54 0 86 -29t32 -82q0 -24 -4 -44zM154 595q0 26 17.5 43t41.5 17q26 0 43 -17t17 -43
q0 -25 -17 -42t-43 -17q-24 0 -41.5 17t-17.5 42zM351 594q0 26 17.5 43t41.5 17q25 0 42 -17t17 -43q0 -25 -17 -42t-42 -17q-24 0 -41.5 17t-17.5 42z" />
    <glyph glyph-name="Nmacron" unicode="&#xe117;" 
d="M235 589l154 -331q13 -29 24.5 -60t16.5 -48l5 -16h4q7 68 20 142l55 313h94l-103 -589h-91l-158 328q-13 28 -25 59.5t-17 48.5l-6 17h-4q-4 -65 -17 -141l-55 -312h-94l103 589h94zM511 674h-264l13 71h263z" />
    <glyph glyph-name="nmacron" unicode="&#xe118;" horiz-adv-x="519" 
d="M456 318l-36 -207q-8 -45 27 -45q9 0 29 5l-13 -67q-24 -9 -54 -9q-100 0 -81 107l37 208q17 87 -60 87q-43 0 -81 -35t-51 -111l-44 -251h-91l81 462h79l-5 -94q49 105 149 105q54 0 86 -29t32 -82q0 -24 -4 -44zM436 558h-261l13 73h262z" />
    <glyph glyph-name="Ncedilla" unicode="&#xe119;" 
d="M235 589l154 -331q13 -29 24.5 -60t16.5 -48l5 -16h4q7 68 20 142l55 313h94l-103 -589h-91l-158 328q-13 28 -25 59.5t-17 48.5l-6 17h-4q-4 -65 -17 -141l-55 -312h-94l103 589h94zM338 -124q0 -42 -30.5 -64.5t-76.5 -22.5q-61 0 -90 38l24 51q26 -36 62 -36
q39 0 39 34q0 41 -64 42l35 90h44l-21 -49q40 -8 59 -27.5t19 -55.5z" />
    <glyph glyph-name="ncedilla" unicode="&#xe11a;" horiz-adv-x="519" 
d="M456 318l-36 -207q-8 -45 27 -45q9 0 29 5l-13 -67q-24 -9 -54 -9q-100 0 -81 107l37 208q17 87 -60 87q-43 0 -81 -35t-51 -111l-44 -251h-91l81 462h79l-5 -94q49 105 149 105q54 0 86 -29t32 -82q0 -24 -4 -44zM287 -124q0 -42 -30.5 -64.5t-76.5 -22.5q-62 0 -90 38
l23 51q27 -36 63 -36q39 0 39 34q0 41 -64 42l35 90h43l-20 -49q40 -8 59 -27.5t19 -55.5z" />
    <glyph glyph-name="Ocommaturnedabove" unicode="&#xe11b;" 
d="M284 -12q-108 0 -169 65.5t-61 174.5q0 171 87 272t215 101q109 0 170 -66t61 -175q0 -171 -87.5 -271.5t-215.5 -100.5zM348 521q-91 0 -144.5 -83.5t-53.5 -202.5q0 -79 37 -124t106 -45q90 0 143.5 84t53.5 203q0 75 -35.5 121.5t-106.5 46.5zM318 722q0 54 37 81.5
t98 27.5v-37q-74 -4 -74 -42q26 4 43 -9t17 -38t-16 -39t-41 -14q-28 0 -46 18t-18 52z" />
    <glyph glyph-name="ocommaturnedabove" unicode="&#xe11c;" horiz-adv-x="500" 
d="M280 473q86 0 134 -53t48 -146q0 -121 -64.5 -203.5t-176.5 -82.5q-82 0 -132.5 51.5t-50.5 144.5q0 121 64.5 205t177.5 84zM269 399q-63 0 -101.5 -61t-38.5 -147q0 -64 27 -98.5t75 -34.5q63 0 100.5 62.5t37.5 149.5q0 62 -26 95.5t-74 33.5zM245 603q0 53 37 80.5
t98 27.5v-37q-74 -2 -74 -42q27 5 43.5 -8.5t16.5 -38.5t-15.5 -39t-41.5 -14q-27 0 -45.5 18.5t-18.5 52.5z" />
    <glyph glyph-name="uni004F02D900AF" unicode="&#xe11d;" 
d="M284 -12q-108 0 -169 65.5t-61 174.5q0 171 87 272t215 101q109 0 170 -66t61 -175q0 -171 -87.5 -271.5t-215.5 -100.5zM348 521q-91 0 -144.5 -83.5t-53.5 -202.5q0 -79 37 -124t106 -45q90 0 143.5 84t53.5 203q0 75 -35.5 121.5t-106.5 46.5zM535 773h-264l12 71h264
zM317 679q0 27 17.5 44t42.5 17q27 0 44.5 -17t17.5 -44q0 -25 -18 -42.5t-44 -17.5q-25 0 -42.5 17.5t-17.5 42.5z" />
    <glyph glyph-name="Ocedilla" unicode="&#xe11f;" 
d="M337 -124q0 -42 -30.5 -64.5t-76.5 -22.5q-62 0 -90 38l24 51q25 -36 62 -36q39 0 39 34q0 41 -64 42l29 75q-84 16 -130 78.5t-46 156.5q0 171 87 272t215 101q109 0 170 -66t61 -175q0 -171 -87.5 -271.5t-215.5 -100.5h-13l-12 -29q40 -8 59 -27.5t19 -55.5zM348 521
q-91 0 -144.5 -83.5t-53.5 -202.5q0 -79 37 -124t106 -45q90 0 143.5 84t53.5 203q0 75 -35.5 121.5t-106.5 46.5z" />
    <glyph glyph-name="Ounderlineaccent" unicode="&#xe121;" 
d="M284 -12q-108 0 -169 65.5t-61 174.5q0 171 87 272t215 101q109 0 170 -66t61 -175q0 -171 -87.5 -271.5t-215.5 -100.5zM348 521q-91 0 -144.5 -83.5t-53.5 -202.5q0 -79 37 -124t106 -45q90 0 143.5 84t53.5 203q0 75 -35.5 121.5t-106.5 46.5zM290 -203h-70l19 150h70
z" />
    <glyph glyph-name="ounderlineaccent" unicode="&#xe122;" horiz-adv-x="500" 
d="M280 473q86 0 134 -53t48 -146q0 -121 -64.5 -203.5t-176.5 -82.5q-82 0 -132.5 51.5t-50.5 144.5q0 121 64.5 205t177.5 84zM269 399q-63 0 -101.5 -61t-38.5 -147q0 -64 27 -98.5t75 -34.5q63 0 100.5 62.5t37.5 149.5q0 62 -26 95.5t-74 33.5zM227 -203h-70l19 150h70
z" />
    <glyph glyph-name="Pmacron" unicode="&#xe123;" horiz-adv-x="493" 
d="M222 512l-39 -220h79q66 0 101.5 35t35.5 102q0 43 -23.5 63t-75.5 20h-78zM132 0h-94l103 589h173q95 0 138 -37.5t43 -114.5q0 -106 -65 -163.5t-168 -57.5h-92zM451 674h-263l12 71h263z" />
    <glyph glyph-name="pmacron" unicode="&#xe124;" horiz-adv-x="534" 
d="M175 264l-15 -83q-10 -46 16 -84t77 -38q67 0 107 63.5t40 156.5q0 57 -24 89t-68 32q-48 0 -85.5 -37.5t-47.5 -98.5zM142 74l-49 -277h-90l117 665h79l-6 -89q47 100 151 100q72 0 112 -49t40 -142q0 -127 -63 -210.5t-168 -83.5q-49 0 -82 24t-41 62zM455 558h-262
l13 73h262z" />
    <glyph glyph-name="Rdoublegrave" unicode="&#xe125;" horiz-adv-x="547" 
d="M489 0h-101q-15 17 -22 55l-17 102q-8 49 -29 65.5t-69 16.5h-77l-42 -239h-94l103 589h202q93 0 133 -35.5t40 -107.5q0 -80 -49 -124t-112 -47v-4q41 -6 60.5 -26.5t27.5 -66.5l21 -116q6 -36 25 -62zM222 512l-34 -196h106q125 0 125 116q0 41 -21.5 60.5t-70.5 19.5
h-105zM441 653h-67l-103 123h109zM295 653h-71l-115 123h112z" />
    <glyph glyph-name="rdoublegrave" unicode="&#xe126;" horiz-adv-x="346" 
d="M367 471l-23 -107q-54 15 -106.5 -13.5t-63.5 -92.5l-45 -258h-91l81 462h79l-8 -109q25 59 74 93t103 25zM360 529h-67l-103 146h109zM214 529h-71l-115 146h112z" />
    <glyph glyph-name="Rcedilla" unicode="&#xe127;" horiz-adv-x="547" 
d="M489 0h-101q-15 17 -22 55l-17 102q-8 49 -29 65.5t-69 16.5h-77l-42 -239h-94l103 589h202q93 0 133 -35.5t40 -107.5q0 -80 -49 -124t-112 -47v-4q41 -6 60.5 -26.5t27.5 -66.5l21 -116q6 -36 25 -62zM222 512l-34 -196h106q125 0 125 116q0 41 -21.5 60.5t-70.5 19.5
h-105zM324 -124q0 -42 -30.5 -64.5t-76.5 -22.5q-61 0 -90 38l24 51q25 -36 62 -36q39 0 39 34q0 41 -64 42l35 90h44l-21 -49q40 -8 59 -27.5t19 -55.5z" />
    <glyph glyph-name="rcedilla" unicode="&#xe128;" horiz-adv-x="346" 
d="M168 -124q0 -42 -30.5 -64.5t-76.5 -22.5q-61 0 -90 38l24 51q25 -36 62 -36q39 0 39 34q0 41 -64 42l32 82h-26l81 462h79l-8 -109q25 59 74 93t103 25l-23 -107q-54 15 -106.5 -13.5t-63.5 -92.5l-45 -258h-22l-17 -41q40 -8 59 -27.5t19 -55.5z" />
    <glyph glyph-name="Tcedilla" unicode="&#xe129;" horiz-adv-x="481" 
d="M277 -124q0 -42 -30.5 -64.5t-76.5 -22.5q-62 0 -90 38l24 51q26 -36 62 -36q39 0 39 34q0 41 -64 42l31 82h-21l88 509h-171l14 80h439l-15 -80h-172l-89 -509h-29l-17 -41q40 -8 59 -27.5t19 -55.5z" />
    <glyph glyph-name="tcedilla" unicode="&#xe12a;" horiz-adv-x="316" 
d="M216 -124q0 -36 -22 -57.5t-59 -27.5q-22 -2 -33 -1q-57 2 -83 37l24 51q25 -36 62 -36q39 0 39 34q0 41 -64 42l30 79q-71 25 -55 130q2 22 5 33l40 230h-64l13 72h65l17 97l92 12l-19 -109h121l-13 -72h-120l-46 -260q-12 -65 39 -65q36 0 78 23v-76q-40 -23 -90 -23
h-23l-12 -30q40 -8 59 -27.5t19 -55.5z" />
    <glyph glyph-name="Umacronbelow" unicode="&#xe12b;" horiz-adv-x="589" 
d="M491 589h94l-70 -399q-19 -110 -84.5 -156t-169.5 -46t-160.5 57t-34.5 178l63 366h95l-66 -372q-13 -77 18 -114.5t97 -37.5q64 0 101 34t50 110zM355 -183h-262l13 73h262z" />
    <glyph glyph-name="umacronbelow" unicode="&#xe12c;" horiz-adv-x="517" 
d="M318 87q-40 -99 -146 -99q-73 0 -103 45.5t-16 128.5l52 300h91l-54 -311q-8 -46 8 -71t53 -25q43 0 79 34.5t47 94.5l48 278h91l-62 -351q-8 -45 27 -45q9 0 29 5l-13 -67q-24 -9 -54 -9q-46 0 -64 23t-13 69zM304 -183h-261l13 73h262z" />
    <glyph glyph-name="R.alt" unicode="&#xe141;" horiz-adv-x="519" 
d="M337 239l130 -239h-105l-119 229h-73l-40 -229h-92l103 589h177q178 0 178 -151q0 -83 -45.5 -134t-113.5 -65zM220 510l-37 -209h80q137 0 137 124q0 85 -90 85h-90z" />
    <glyph glyph-name="Racute.alt" unicode="&#xe142;" horiz-adv-x="519" 
d="M366 653h-83l63 123h120zM337 239l130 -239h-105l-119 229h-73l-40 -229h-92l103 589h177q178 0 178 -151q0 -83 -45.5 -134t-113.5 -65zM220 510l-37 -209h80q137 0 137 124q0 85 -90 85h-90z" />
    <glyph glyph-name="Rcaron.alt" unicode="&#xe143;" horiz-adv-x="519" 
d="M354 653h-56l-101 129h94l25 -33q7 -9 11.5 -17.5t5.5 -12.5l1 -4h2q7 14 29 34l38 33h98zM337 239l130 -239h-105l-119 229h-73l-40 -229h-92l103 589h177q178 0 178 -151q0 -83 -45.5 -134t-113.5 -65zM220 510l-37 -209h80q137 0 137 124q0 85 -90 85h-90z" />
    <glyph glyph-name="Rinvertedbreve.alt" unicode="&#xe144;" horiz-adv-x="519" 
d="M356 787q64 0 93 -35.5t18 -96.5h-70q6 66 -53 66q-33 0 -50.5 -16.5t-26.5 -49.5h-71q11 61 53 96.5t107 35.5zM337 239l130 -239h-105l-119 229h-73l-40 -229h-92l103 589h177q178 0 178 -151q0 -83 -45.5 -134t-113.5 -65zM220 510l-37 -209h80q137 0 137 124
q0 85 -90 85h-90z" />
    <glyph glyph-name="Rdoublegrave.alt" unicode="&#xe145;" horiz-adv-x="519" 
d="M441 653h-67l-103 123h109zM295 653h-71l-115 123h112zM337 239l130 -239h-105l-119 229h-73l-40 -229h-92l103 589h177q178 0 178 -151q0 -83 -45.5 -134t-113.5 -65zM220 510l-37 -209h80q137 0 137 124q0 85 -90 85h-90z" />
    <glyph glyph-name="Rcommaaccent.alt" unicode="&#xe146;" horiz-adv-x="519" 
d="M281 -139q0 -54 -37 -81.5t-98 -27.5v37q74 4 74 43q-27 -5 -43.5 8t-16.5 39q0 25 15.5 39t41.5 14q27 0 45.5 -18.5t18.5 -52.5zM337 239l130 -239h-105l-119 229h-73l-40 -229h-92l103 589h177q178 0 178 -151q0 -83 -45.5 -134t-113.5 -65zM220 510l-37 -209h80
q137 0 137 124q0 85 -90 85h-90z" />
    <glyph glyph-name="Rcedilla.alt" unicode="&#xe147;" horiz-adv-x="519" 
d="M313 -124q0 -42 -30.5 -64.5t-76.5 -22.5q-62 0 -90 38l23 51q25 -36 62 -36q39 0 39 34q0 41 -63 42l34 90h44l-21 -49q79 -16 79 -83zM337 239l130 -239h-105l-119 229h-73l-40 -229h-92l103 589h177q178 0 178 -151q0 -83 -45.5 -134t-113.5 -65zM220 510l-37 -209h80
q137 0 137 124q0 85 -90 85h-90z" />
    <glyph glyph-name="Rdotbelow.alt" unicode="&#xe148;" horiz-adv-x="519" 
d="M150 -139q0 26 17.5 43t42.5 17q26 0 44 -17t18 -43q0 -25 -18 -42.5t-44 -17.5q-25 0 -42.5 17.5t-17.5 42.5zM337 239l130 -239h-105l-119 229h-73l-40 -229h-92l103 589h177q178 0 178 -151q0 -83 -45.5 -134t-113.5 -65zM220 510l-37 -209h80q137 0 137 124
q0 85 -90 85h-90z" />
    <glyph glyph-name="Rdotbelowmacron.alt" unicode="&#xe149;" horiz-adv-x="519" 
d="M150 -139q0 26 17.5 43t42.5 17q26 0 44 -17t18 -43q0 -25 -18 -42.5t-44 -17.5q-25 0 -42.5 17.5t-17.5 42.5zM467 674h-264l13 71h263zM337 239l130 -239h-105l-119 229h-73l-40 -229h-92l103 589h177q178 0 178 -151q0 -83 -45.5 -134t-113.5 -65zM220 510l-37 -209
h80q137 0 137 124q0 85 -90 85h-90z" />
    <glyph glyph-name="aogonek.school" unicode="&#xe150;" horiz-adv-x="493" 
d="M306 144l11 66q-88 7 -140 -19t-52 -76q0 -60 67 -60q43 0 75 24.5t39 64.5zM298 72q-36 -84 -140 -84q-59 0 -91.5 31t-32.5 86q0 84 75.5 125t216.5 34l9 49q8 45 -11 67t-60 22q-79 0 -96 -75l-85 13q16 69 69.5 101t123.5 32q177 0 149 -158l-36 -204q-8 -45 27 -45
q9 0 29 5l-13 -67q-146 -21 -146 -108q0 -21 12.5 -33.5t32.5 -12.5q40 0 64 39l29 -43q-35 -57 -109 -57q-50 0 -77.5 25t-27.5 70q0 46 31 81.5t74 52.5q-18 26 -17 54z" />
    <glyph glyph-name="a.school" unicode="&#xe151;" horiz-adv-x="490" 
d="M304 144l11 66q-88 7 -140 -19t-52 -76q0 -60 67 -60q43 0 75 24.5t39 64.5zM423 315l-36 -204q-8 -45 27 -45q9 0 29 5l-13 -67q-24 -9 -54 -9q-40 0 -60.5 19.5t-19.5 57.5q-36 -84 -140 -84q-59 0 -91.5 31t-32.5 86q0 84 75.5 125t216.5 34l9 49q8 45 -11 67t-60 22
q-79 0 -96 -75l-85 13q16 69 69.5 101t123.5 32q177 0 149 -158z" />
    <glyph glyph-name="agrave.school" unicode="&#xe152;" horiz-adv-x="490" 
d="M304 144l11 66q-88 7 -140 -19t-52 -76q0 -60 67 -60q43 0 75 24.5t39 64.5zM423 315l-36 -204q-8 -45 27 -45q9 0 29 5l-13 -67q-24 -9 -54 -9q-40 0 -60.5 19.5t-19.5 57.5q-36 -84 -140 -84q-59 0 -91.5 31t-32.5 86q0 84 75.5 125t216.5 34l9 49q8 45 -11 67t-60 22
q-79 0 -96 -75l-85 13q16 69 69.5 101t123.5 32q177 0 149 -158zM335 529h-79l-116 146h121z" />
    <glyph glyph-name="aacute.school" unicode="&#xe153;" horiz-adv-x="490" 
d="M304 144l11 66q-88 7 -140 -19t-52 -76q0 -60 67 -60q43 0 75 24.5t39 64.5zM423 315l-36 -204q-8 -45 27 -45q9 0 29 5l-13 -67q-24 -9 -54 -9q-40 0 -60.5 19.5t-19.5 57.5q-36 -84 -140 -84q-59 0 -91.5 31t-32.5 86q0 84 75.5 125t216.5 34l9 49q8 45 -11 67t-60 22
q-79 0 -96 -75l-85 13q16 69 69.5 101t123.5 32q177 0 149 -158zM314 529h-79l73 146h121z" />
    </font>
</defs>
</svg>
